<svg width="580" height="58" viewBox="0 0 580 58" fill="none" xmlns="http://www.w3.org/2000/svg">
<path d="M79.66 42V17.99H93.38C94.64 17.99 95.7717 18.235 96.775 18.725C97.8017 19.215 98.6067 19.9033 99.19 20.79C99.7733 21.6767 100.065 22.715 100.065 23.905C100.065 24.8617 99.89 25.7133 99.54 26.46C99.19 27.2067 98.7117 27.825 98.105 28.315C97.5217 28.805 96.8567 29.1667 96.11 29.4V29.54C96.9967 29.7267 97.7783 30.0767 98.455 30.59C99.155 31.1033 99.7033 31.7683 100.1 32.585C100.52 33.3783 100.73 34.3233 100.73 35.42C100.73 36.8667 100.392 38.08 99.715 39.06C99.0617 40.04 98.1867 40.775 97.09 41.265C95.9933 41.755 94.7683 42 93.415 42H79.66ZM84.875 37.73H92.4C93.2633 37.73 93.9633 37.485 94.5 36.995C95.06 36.505 95.34 35.7467 95.34 34.72C95.34 34.1133 95.2233 33.5883 94.99 33.145C94.7567 32.7017 94.4067 32.3633 93.94 32.13C93.4733 31.8733 92.8783 31.745 92.155 31.745H84.875V37.73ZM84.875 27.685H91.805C92.435 27.685 92.96 27.5683 93.38 27.335C93.8233 27.0783 94.15 26.7517 94.36 26.355C94.5933 25.935 94.71 25.4567 94.71 24.92C94.71 24.01 94.4533 23.3217 93.94 22.855C93.45 22.3883 92.7967 22.155 91.98 22.155H84.875V27.685ZM104.919 42V17.99H110.134V42H104.919ZM126.646 42.42C124.103 42.42 121.909 41.965 120.066 41.055C118.223 40.145 116.811 38.7683 115.831 36.925C114.851 35.0817 114.361 32.7717 114.361 29.995C114.361 27.1717 114.851 24.85 115.831 23.03C116.811 21.1867 118.223 19.8217 120.066 18.935C121.909 18.025 124.103 17.57 126.646 17.57C129.236 17.57 131.441 18.025 133.261 18.935C135.104 19.8217 136.516 21.1867 137.496 23.03C138.476 24.85 138.966 27.1717 138.966 29.995C138.966 32.7717 138.476 35.0817 137.496 36.925C136.516 38.7683 135.104 40.145 133.261 41.055C131.441 41.965 129.236 42.42 126.646 42.42ZM126.646 38.15C127.789 38.15 128.793 37.9867 129.656 37.66C130.519 37.3333 131.243 36.8433 131.826 36.19C132.409 35.5367 132.853 34.7433 133.156 33.81C133.459 32.8533 133.611 31.7683 133.611 30.555V29.47C133.611 28.2333 133.459 27.1367 133.156 26.18C132.853 25.2233 132.409 24.43 131.826 23.8C131.243 23.1467 130.519 22.6567 129.656 22.33C128.793 22.0033 127.789 21.84 126.646 21.84C125.526 21.84 124.534 22.0033 123.671 22.33C122.808 22.6567 122.084 23.1467 121.501 23.8C120.918 24.43 120.474 25.2233 120.171 26.18C119.891 27.1367 119.751 28.2333 119.751 29.47V30.555C119.751 31.7683 119.891 32.8533 120.171 33.81C120.474 34.7433 120.918 35.5367 121.501 36.19C122.084 36.8433 122.808 37.3333 123.671 37.66C124.534 37.9867 125.526 38.15 126.646 38.15ZM143.2 42V17.99H151.145L154.575 30.275C154.715 30.7183 154.855 31.2433 154.995 31.85C155.135 32.4567 155.275 33.0633 155.415 33.67C155.578 34.2533 155.707 34.7783 155.8 35.245H156.08C156.127 34.8483 156.208 34.3817 156.325 33.845C156.442 33.285 156.57 32.69 156.71 32.06C156.85 31.43 157.002 30.8233 157.165 30.24L160.595 17.99H168.4V42H163.255V30.625C163.255 29.575 163.255 28.525 163.255 27.475C163.278 26.4017 163.302 25.4683 163.325 24.675C163.372 23.8817 163.395 23.3683 163.395 23.135H163.115C163.068 23.3917 162.952 23.87 162.765 24.57C162.602 25.2467 162.415 25.97 162.205 26.74C162.018 27.51 161.843 28.175 161.68 28.735L157.935 42H153.385L149.605 28.77C149.465 28.28 149.302 27.7083 149.115 27.055C148.952 26.3783 148.788 25.69 148.625 24.99C148.485 24.2667 148.345 23.6483 148.205 23.135H147.925C147.948 23.765 147.972 24.5233 147.995 25.41C148.018 26.2733 148.042 27.1717 148.065 28.105C148.088 29.015 148.1 29.855 148.1 30.625V42H143.2ZM173.723 42V17.99H192.903V22.26H178.973V27.615H191.293V31.85H178.973V37.695H193.113V42H173.723ZM203.529 42V22.365H195.829V17.99H216.514V22.365H208.779V42H203.529ZM220.036 42V17.99H225.251V27.51H235.891V17.99H241.106V42H235.891V31.92H225.251V42H220.036ZM243.973 42L253.213 17.99H259.653L268.893 42H263.258L261.543 37.275H251.078L249.363 42H243.973ZM252.583 33.075H260.038L257.903 27.16C257.809 26.9033 257.693 26.6 257.553 26.25C257.436 25.8767 257.308 25.4683 257.168 25.025C257.028 24.5817 256.888 24.15 256.748 23.73C256.631 23.2867 256.514 22.89 256.398 22.54H256.188C256.071 22.9833 255.919 23.5083 255.733 24.115C255.546 24.6983 255.359 25.27 255.173 25.83C254.986 26.3667 254.834 26.81 254.718 27.16L252.583 33.075ZM271.75 42V17.99H276.545L286.205 30.94C286.345 31.1033 286.52 31.3367 286.73 31.64C286.94 31.92 287.138 32.2 287.325 32.48C287.512 32.76 287.64 32.9817 287.71 33.145H287.885C287.885 32.7483 287.885 32.3633 287.885 31.99C287.885 31.5933 287.885 31.2433 287.885 30.94V17.99H292.82V42H288.025L278.155 28.735C277.922 28.4083 277.677 28.0467 277.42 27.65C277.163 27.2533 276.977 26.95 276.86 26.74H276.685C276.685 27.09 276.685 27.44 276.685 27.79C276.685 28.1167 276.685 28.4317 276.685 28.735V42H271.75ZM298.137 42V17.99H317.317V22.26H303.387V27.615H315.707V31.85H303.387V37.695H317.527V42H298.137ZM328.898 42V17.99H341.393C343.12 17.99 344.555 18.3167 345.698 18.97C346.865 19.6 347.74 20.4983 348.323 21.665C348.93 22.8083 349.233 24.1733 349.233 25.76C349.233 27.3467 348.918 28.735 348.288 29.925C347.682 31.0917 346.783 32.0017 345.593 32.655C344.403 33.3083 342.945 33.635 341.218 33.635H334.113V42H328.898ZM334.113 29.365H340.518C341.615 29.365 342.455 29.05 343.038 28.42C343.645 27.79 343.948 26.915 343.948 25.795C343.948 25.025 343.82 24.3833 343.563 23.87C343.307 23.3567 342.922 22.96 342.408 22.68C341.918 22.4 341.288 22.26 340.518 22.26H334.113V29.365ZM363.922 42.42C361.378 42.42 359.185 41.965 357.342 41.055C355.498 40.145 354.087 38.7683 353.107 36.925C352.127 35.0817 351.637 32.7717 351.637 29.995C351.637 27.1717 352.127 24.85 353.107 23.03C354.087 21.1867 355.498 19.8217 357.342 18.935C359.185 18.025 361.378 17.57 363.922 17.57C366.512 17.57 368.717 18.025 370.537 18.935C372.38 19.8217 373.792 21.1867 374.772 23.03C375.752 24.85 376.242 27.1717 376.242 29.995C376.242 32.7717 375.752 35.0817 374.772 36.925C373.792 38.7683 372.38 40.145 370.537 41.055C368.717 41.965 366.512 42.42 363.922 42.42ZM363.922 38.15C365.065 38.15 366.068 37.9867 366.932 37.66C367.795 37.3333 368.518 36.8433 369.102 36.19C369.685 35.5367 370.128 34.7433 370.432 33.81C370.735 32.8533 370.887 31.7683 370.887 30.555V29.47C370.887 28.2333 370.735 27.1367 370.432 26.18C370.128 25.2233 369.685 24.43 369.102 23.8C368.518 23.1467 367.795 22.6567 366.932 22.33C366.068 22.0033 365.065 21.84 363.922 21.84C362.802 21.84 361.81 22.0033 360.947 22.33C360.083 22.6567 359.36 23.1467 358.777 23.8C358.193 24.43 357.75 25.2233 357.447 26.18C357.167 27.1367 357.027 28.2333 357.027 29.47V30.555C357.027 31.7683 357.167 32.8533 357.447 33.81C357.75 34.7433 358.193 35.5367 358.777 36.19C359.36 36.8433 360.083 37.3333 360.947 37.66C361.81 37.9867 362.802 38.15 363.922 38.15ZM385.468 42V22.365H377.768V17.99H398.453V22.365H390.718V42H385.468ZM401.974 42V17.99H421.154V22.26H407.224V27.615H419.544V31.85H407.224V37.695H421.364V42H401.974ZM425.866 42V17.99H430.661L440.321 30.94C440.461 31.1033 440.636 31.3367 440.846 31.64C441.056 31.92 441.254 32.2 441.441 32.48C441.628 32.76 441.756 32.9817 441.826 33.145H442.001C442.001 32.7483 442.001 32.3633 442.001 31.99C442.001 31.5933 442.001 31.2433 442.001 30.94V17.99H446.936V42H442.141L432.271 28.735C432.038 28.4083 431.793 28.0467 431.536 27.65C431.279 27.2533 431.093 26.95 430.976 26.74H430.801C430.801 27.09 430.801 27.44 430.801 27.79C430.801 28.1167 430.801 28.4317 430.801 28.735V42H425.866ZM458.168 42V22.365H450.468V17.99H471.153V22.365H463.418V42H458.168ZM474.675 42V17.99H479.89V42H474.675ZM482.752 42L491.992 17.99H498.432L507.672 42H502.037L500.322 37.275H489.857L488.142 42H482.752ZM491.362 33.075H498.817L496.682 27.16C496.589 26.9033 496.472 26.6 496.332 26.25C496.215 25.8767 496.087 25.4683 495.947 25.025C495.807 24.5817 495.667 24.15 495.527 23.73C495.41 23.2867 495.294 22.89 495.177 22.54H494.967C494.85 22.9833 494.699 23.5083 494.512 24.115C494.325 24.6983 494.139 25.27 493.952 25.83C493.765 26.3667 493.614 26.81 493.497 27.16L491.362 33.075ZM510.529 42V17.99H515.744V37.555H527.854V42H510.529Z" fill="#012B3D"/>
<g clip-path="url(#clip0_591_178)">
<path d="M0 58V51.5556L6.44444 45.1111V58H0ZM12.8889 58V38.6667L19.3333 32.2222V58H12.8889ZM25.7778 58V32.2222L32.2222 38.7633V58.0322H25.7778V58ZM38.6667 58V38.7311L45.1111 32.2867V58H38.6667ZM51.5556 58V25.7778L58 19.3333V58H51.5556ZM0 41.3411V32.2222L22.5556 9.66667L35.4444 22.5556L58 0V9.11889L35.4444 31.6744L22.5556 18.7856L0 41.3411Z" fill="#012B3D"/>
</g>
<defs>
<clipPath id="clip0_591_178">
<rect width="58" height="58" fill="white"/>
</clipPath>
</defs>
</svg>
