<svg width="75" height="56" viewBox="0 0 75 56" fill="none" xmlns="http://www.w3.org/2000/svg">
<path d="M12.4004 32.5V10.6127H20.0524C21.5771 10.6127 22.8346 10.8763 23.825 11.4036C24.8153 11.9237 25.5527 12.6255 26.0372 13.5089C26.5217 14.3853 26.7639 15.3578 26.7639 16.4265C26.7639 17.367 26.5965 18.1436 26.2616 18.7563C25.9339 19.3691 25.4993 19.8535 24.9578 20.2098C24.4235 20.566 23.8428 20.8296 23.2158 21.0006V21.2144C23.8855 21.2571 24.5588 21.4922 25.2357 21.9197C25.9125 22.3472 26.4789 22.9599 26.9349 23.7579C27.3909 24.5559 27.6189 25.532 27.6189 26.6862C27.6189 27.7834 27.3695 28.7702 26.8708 29.6465C26.3721 30.5229 25.5848 31.2175 24.5089 31.7305C23.4331 32.2435 22.0331 32.5 20.3089 32.5H12.4004ZM15.0508 30.1488H20.3089C22.0402 30.1488 23.2692 29.814 23.996 29.1442C24.7298 28.4674 25.0967 27.648 25.0967 26.6862C25.0967 25.9452 24.9079 25.2612 24.5303 24.6343C24.1527 24.0002 23.6148 23.4943 22.9166 23.1167C22.2183 22.7319 21.3919 22.5396 20.4371 22.5396H15.0508V30.1488ZM15.0508 20.2312H19.9669C20.7649 20.2312 21.4845 20.0744 22.1257 19.7609C22.7741 19.4474 23.2871 19.0057 23.6647 18.4357C24.0494 17.8657 24.2418 17.196 24.2418 16.4265C24.2418 15.4647 23.9069 14.6489 23.2372 13.9792C22.5674 13.3023 21.5059 12.9639 20.0524 12.9639H15.0508V20.2312ZM34.6243 10.6127V32.5H31.9739V10.6127H34.6243ZM58.4059 21.5564C58.4059 23.8648 57.9891 25.8597 57.1555 27.5412C56.3219 29.2226 55.1784 30.5193 53.7249 31.4313C52.2715 32.3433 50.6114 32.7992 48.7447 32.7992C46.878 32.7992 45.218 32.3433 43.7645 31.4313C42.3111 30.5193 41.1675 29.2226 40.3339 27.5412C39.5003 25.8597 39.0835 23.8648 39.0835 21.5564C39.0835 19.2479 39.5003 17.253 40.3339 15.5716C41.1675 13.8901 42.3111 12.5934 43.7645 11.6814C45.218 10.7695 46.878 10.3135 48.7447 10.3135C50.6114 10.3135 52.2715 10.7695 53.7249 11.6814C55.1784 12.5934 56.3219 13.8901 57.1555 15.5716C57.9891 17.253 58.4059 19.2479 58.4059 21.5564ZM55.841 21.5564C55.841 19.6612 55.5239 18.0617 54.8898 16.7578C54.2628 15.454 53.4114 14.4672 52.3356 13.7975C51.2669 13.1278 50.0699 12.7929 48.7447 12.7929C47.4195 12.7929 46.219 13.1278 45.1432 13.7975C44.0744 14.4672 43.223 15.454 42.5889 16.7578C41.9619 18.0617 41.6485 19.6612 41.6485 21.5564C41.6485 23.4516 41.9619 25.0511 42.5889 26.3549C43.223 27.6587 44.0744 28.6455 45.1432 29.3152C46.219 29.985 47.4195 30.3198 48.7447 30.3198C50.0699 30.3198 51.2669 29.985 52.3356 29.3152C53.4114 28.6455 54.2628 27.6587 54.8898 26.3549C55.5239 25.0511 55.841 23.4516 55.841 21.5564Z" fill="#012B3D"/>
<path d="M65.9439 15.6617V11.1413H61.3838V8.02043H65.9439V3.5H68.9831V8.02043H73.556V11.1413H68.9831V15.6617H65.9439Z" fill="#012B3D"/>
<path d="M13.0043 49V38.8182H16.8224C17.6046 38.8182 18.2609 38.9541 18.7912 39.2259C19.3248 39.4976 19.7275 39.8788 19.9993 40.3693C20.2744 40.8565 20.4119 41.425 20.4119 42.0746C20.4119 42.7275 20.2727 43.2943 19.9943 43.7749C19.7192 44.2521 19.3132 44.6217 18.7763 44.8835C18.2393 45.142 17.5798 45.2713 16.7976 45.2713H14.0781V43.7401H16.549C17.0064 43.7401 17.3809 43.6771 17.6726 43.5511C17.9643 43.4219 18.1797 43.2346 18.3189 42.9893C18.4614 42.7408 18.5327 42.4358 18.5327 42.0746C18.5327 41.7133 18.4614 41.4051 18.3189 41.1499C18.1764 40.8913 17.9593 40.6958 17.6676 40.5632C17.3759 40.4273 16.9998 40.3594 16.5391 40.3594H14.8487V49H13.0043ZM18.2642 44.3864L20.7848 49H18.7266L16.2507 44.3864H18.2642ZM25.5824 49V38.8182H32.2045V40.3643H27.4268V43.1286H31.8615V44.6747H27.4268V47.4538H32.2443V49H25.5824ZM41.0092 49H37.5589V38.8182H41.0788C42.0897 38.8182 42.9581 39.022 43.6839 39.4297C44.4131 39.834 44.9732 40.4157 45.3643 41.1747C45.7554 41.9337 45.951 42.8419 45.951 43.8991C45.951 44.9598 45.7538 45.8712 45.3594 46.6335C44.9683 47.3958 44.4032 47.9808 43.6641 48.3885C42.9283 48.7962 42.0433 49 41.0092 49ZM39.4034 47.4041H40.9197C41.629 47.4041 42.2206 47.2749 42.6946 47.0163C43.1686 46.7545 43.5249 46.3651 43.7635 45.848C44.0021 45.3277 44.1214 44.678 44.1214 43.8991C44.1214 43.1203 44.0021 42.474 43.7635 41.9602C43.5249 41.4432 43.1719 41.0571 42.7045 40.8018C42.2405 40.5433 41.6638 40.4141 40.9744 40.4141H39.4034V47.4041ZM51.1761 49V38.8182H57.7983V40.3643H53.0206V43.1286H57.4553V44.6747H53.0206V47.4538H57.8381V49H51.1761Z" fill="#012B3D"/>
</svg>
