<svg width="411" height="235" viewBox="0 0 411 235" fill="none" xmlns="http://www.w3.org/2000/svg">
<path d="M0 18C0 8.05887 8.05887 0 18 0H393C402.941 0 411 8.05888 411 18V217C411 226.941 402.941 235 393 235H18C8.05889 235 0 226.941 0 217V18Z" fill="#FBFCFD"/>
<g clip-path="url(#clip0_628_216)">
<g filter="url(#filter0_d_628_216)">
<path d="M109.287 23.0617C103.983 23.8353 100.297 28.7801 101.071 34.0847L103.737 52.362C104.279 56.0752 107.74 58.6553 111.454 58.1135C115.167 57.5715 117.747 54.1103 117.205 50.3971L116.504 45.5875C116.176 43.3427 117.11 41.6283 118.191 39.6434C119.425 37.3756 120.825 34.8059 120.311 31.2786C119.536 25.9739 114.591 22.2882 109.287 23.0617ZM118.386 31.5588C119.228 37.3308 113.737 40.0966 114.579 45.8681C114.86 47.7918 114.942 48.3511 115.28 50.6778C115.668 53.3341 113.829 55.8015 111.172 56.1893C108.516 56.577 106.049 54.7376 105.661 52.0813C105.432 50.5127 103.277 35.7429 102.994 33.8044C102.374 29.5543 105.317 25.6064 109.567 24.9859C113.818 24.3654 117.766 27.3088 118.386 31.5588Z" fill="#0F2A34"/>
<path d="M119.816 15.8279C119.035 15.9418 118.345 16.2715 117.764 16.7273C117.105 15.5038 115.74 14.7522 114.287 14.9647C113.471 15.0838 112.776 15.495 112.263 16.0652C111.639 15.4908 110.779 15.1818 109.876 15.3135C108.974 15.4452 108.238 15.9863 107.804 16.7147C107.296 16.4679 106.712 16.3648 106.112 16.4522C104.913 16.6275 103.991 17.5129 103.708 18.6199C103.384 18.552 103.044 18.5288 102.698 18.5794C101.106 18.8114 100.001 20.295 100.233 21.8864C100.465 23.4779 101.948 24.5834 103.54 24.3514C104.739 24.1761 105.661 23.2902 105.944 22.1836C106.269 22.2511 106.607 22.2748 106.954 22.2242C107.856 22.0924 108.592 21.5513 109.027 20.8229C109.534 21.0697 110.118 21.1728 110.718 21.0854C111.26 21.0064 111.739 20.774 112.134 20.4497C112.865 21.3588 114.034 21.8788 115.269 21.6984C115.628 21.6461 115.957 21.5252 116.266 21.3733C116.866 23.4345 118.896 24.8037 121.079 24.4854C123.467 24.1371 125.125 21.9124 124.777 19.5251C124.428 17.1386 122.203 15.48 119.816 15.8279ZM104.081 21.3245C104.158 21.8553 103.791 22.3495 103.259 22.4267C102.728 22.5045 102.234 22.136 102.157 21.6052C102.079 21.0739 102.448 20.5804 102.978 20.503C103.51 20.4253 104.003 20.7938 104.081 21.3245ZM107.495 19.1973C107.573 19.7286 107.205 20.2223 106.673 20.2995C106.142 20.3773 105.649 20.0088 105.571 19.478C105.493 18.9468 105.862 18.4532 106.393 18.3758C106.924 18.2982 107.418 18.6666 107.495 19.1973ZM111.259 18.0586C111.337 18.5899 110.969 19.084 110.437 19.1608C109.906 19.2386 109.413 18.8701 109.335 18.3393C109.258 17.8081 109.626 17.3145 110.157 17.2371C110.688 17.1598 111.182 17.5278 111.259 18.0586ZM114.989 19.7738C114.192 19.8905 113.451 19.3385 113.335 18.5416C113.219 17.7447 113.771 17.004 114.568 16.8883C115.364 16.7721 116.105 17.3236 116.221 18.1205C116.337 18.9174 115.786 19.6577 114.989 19.7738ZM122.853 19.8058C123.047 21.134 122.127 22.3679 120.799 22.5618C119.471 22.7553 118.237 21.8357 118.043 20.5076C117.849 19.1794 118.769 17.9455 120.097 17.7516C121.425 17.5577 122.659 18.4777 122.853 19.8058Z" fill="#0F2A34"/>
</g>
<rect x="113" y="38" width="8" height="9" fill="#FBFCFD"/>
<g clip-path="url(#clip1_628_216)">
<path d="M115.127 45.1088C115.047 44.991 114.927 44.9517 114.807 44.9517C114.687 44.9517 114.567 44.9909 114.407 45.0695C113.968 45.3051 113.528 45.4229 113.049 45.4229C112.289 45.4229 111.73 45.2266 111.29 44.7946C110.89 44.4019 110.69 43.8522 110.69 43.1847C110.69 42.5172 110.89 41.9674 111.29 41.5748C111.69 41.1428 112.249 40.9465 113.009 40.9465C113.488 40.9465 113.928 41.0643 114.367 41.2999C114.527 41.3784 114.647 41.4177 114.807 41.4177C114.887 41.4177 115.007 41.3784 115.087 41.2606C115.167 41.1428 115.207 41.025 115.207 40.8679C115.207 40.7501 115.087 40.6323 114.927 40.4752C114.767 40.3182 114.487 40.2004 114.168 40.0826C113.848 39.9648 113.448 39.8862 112.929 39.8862C112.009 39.8862 111.21 40.1611 110.57 40.7501C109.891 41.3784 109.571 42.1638 109.571 43.1847C109.571 44.2056 109.891 44.991 110.571 45.6192C111.21 46.2082 112.009 46.4831 112.929 46.4831C113.688 46.4831 114.367 46.2868 114.967 45.8941C115.167 45.7763 115.247 45.6585 115.247 45.5014C115.247 45.3443 115.207 45.2266 115.127 45.1088Z" fill="#0F2A34"/>
<path d="M121.922 40.7894C121.322 40.2004 120.563 39.8862 119.564 39.8862C118.564 39.8862 117.805 40.2004 117.205 40.7894C116.606 41.4176 116.326 42.203 116.326 43.1846C116.326 44.1663 116.606 44.9909 117.205 45.5799C117.805 46.1689 118.564 46.4831 119.564 46.4831C120.563 46.4831 121.322 46.1689 121.922 45.5799C122.521 44.9517 122.801 44.1663 122.801 43.1846C122.801 42.203 122.521 41.4176 121.922 40.7894ZM120.962 44.9124C120.763 45.1087 120.523 45.2265 120.283 45.3051C120.043 45.3836 119.803 45.4229 119.564 45.4229C119.324 45.4229 119.084 45.3836 118.844 45.3051C118.604 45.2265 118.365 45.1087 118.165 44.9124C117.965 44.7553 117.805 44.5197 117.645 44.2448C117.525 43.9307 117.445 43.6166 117.445 43.1846C117.445 42.7527 117.525 42.3993 117.645 42.1244C118.005 41.2998 118.644 40.9072 119.564 40.9072C120.123 40.9072 120.563 41.0642 120.962 41.4176C121.402 41.8103 121.642 42.3993 121.642 43.1454C121.642 43.9307 121.402 44.5197 120.962 44.9124Z" fill="#0F2A34"/>
<path d="M125.838 50.4488H123.16C123.2 50.2918 123.36 50.174 123.52 50.0169C123.68 49.8991 123.879 49.742 124.119 49.585C124.359 49.4279 124.599 49.2708 124.839 49.1138C125.078 48.9567 125.318 48.7997 125.518 48.6033C125.998 48.1714 126.238 47.7395 126.238 47.2682C126.238 46.8363 126.078 46.4436 125.718 46.1687C125.398 45.8939 124.999 45.7368 124.479 45.7368C123.839 45.7368 123.28 45.8546 122.76 46.1295C122.64 46.1688 122.6 46.2473 122.6 46.3651C122.6 46.4829 122.64 46.5614 122.68 46.6007C122.76 46.64 122.84 46.6792 122.88 46.6792C122.92 46.6792 123 46.6792 123.04 46.6399C123.48 46.4436 123.919 46.3651 124.359 46.3651C124.799 46.3651 125.118 46.4436 125.318 46.6399C125.398 46.7185 125.478 46.797 125.518 46.9148C125.558 47.0326 125.598 47.1897 125.598 47.3467C125.598 47.5038 125.518 47.7001 125.358 47.8572C125.198 48.0535 125.038 48.2106 124.799 48.3677C124.559 48.5248 124.319 48.6819 124.039 48.8389C123.759 48.996 123.52 49.153 123.28 49.3494C123.08 49.5457 122.88 49.7421 122.72 49.9384C122.56 50.1347 122.48 50.3703 122.48 50.6452C122.48 50.763 122.52 50.8415 122.6 50.9201C122.68 50.9986 122.76 51.0379 122.88 51.0379H125.838C125.918 51.0379 125.998 51.0379 126.078 50.9594C126.118 50.8808 126.158 50.8023 126.158 50.7238C126.158 50.6452 126.158 50.5667 126.078 50.4882C125.998 50.4488 125.918 50.4096 125.838 50.4488Z" fill="#0F2A34"/>
</g>
</g>
<path d="M144.773 32.4922H141.973C141.922 32.13 141.818 31.8082 141.66 31.527C141.503 31.2415 141.3 30.9986 141.053 30.7983C140.806 30.598 140.52 30.4446 140.196 30.3381C139.877 30.2315 139.53 30.1783 139.155 30.1783C138.477 30.1783 137.887 30.3466 137.384 30.6832C136.881 31.0156 136.491 31.5014 136.214 32.1406C135.937 32.7756 135.799 33.5469 135.799 34.4545C135.799 35.3878 135.937 36.1719 136.214 36.8068C136.495 37.4418 136.888 37.9212 137.39 38.245C137.893 38.5689 138.475 38.7308 139.135 38.7308C139.506 38.7308 139.849 38.6818 140.165 38.5838C140.484 38.4858 140.767 38.343 141.015 38.1555C141.262 37.9638 141.466 37.7315 141.628 37.4588C141.794 37.1861 141.91 36.875 141.973 36.5256L144.773 36.5384C144.701 37.1392 144.52 37.7188 144.23 38.277C143.944 38.831 143.559 39.3274 143.073 39.7663C142.591 40.201 142.016 40.5462 141.347 40.8018C140.682 41.0533 139.93 41.179 139.091 41.179C137.923 41.179 136.879 40.9148 135.959 40.3864C135.042 39.858 134.318 39.093 133.785 38.0916C133.257 37.0902 132.993 35.8778 132.993 34.4545C132.993 33.027 133.261 31.8125 133.798 30.8111C134.335 29.8097 135.064 29.0469 135.984 28.5227C136.905 27.9943 137.94 27.7301 139.091 27.7301C139.849 27.7301 140.552 27.8366 141.2 28.0497C141.852 28.2628 142.429 28.5739 142.932 28.983C143.435 29.3878 143.844 29.8842 144.16 30.4723C144.479 31.0604 144.684 31.7337 144.773 32.4922ZM149.506 41.1854C148.88 41.1854 148.322 41.0767 147.832 40.8594C147.342 40.6378 146.954 40.3118 146.668 39.8814C146.387 39.4467 146.247 38.9055 146.247 38.2578C146.247 37.7124 146.347 37.2543 146.547 36.8835C146.747 36.5128 147.02 36.2145 147.365 35.9886C147.71 35.7628 148.102 35.5923 148.541 35.4773C148.984 35.3622 149.449 35.2812 149.935 35.2344C150.506 35.1747 150.966 35.1193 151.315 35.0682C151.665 35.0128 151.918 34.9318 152.076 34.8253C152.234 34.7187 152.313 34.5611 152.313 34.3523V34.3139C152.313 33.9091 152.185 33.5959 151.929 33.3743C151.678 33.1527 151.32 33.0419 150.855 33.0419C150.365 33.0419 149.975 33.1506 149.685 33.3679C149.396 33.581 149.204 33.8494 149.11 34.1733L146.592 33.9688C146.72 33.3722 146.971 32.8565 147.346 32.4219C147.721 31.983 148.205 31.6463 148.797 31.4119C149.394 31.1733 150.084 31.054 150.868 31.054C151.413 31.054 151.935 31.1179 152.434 31.2457C152.937 31.3736 153.382 31.5717 153.77 31.8402C154.162 32.1087 154.471 32.4538 154.697 32.8757C154.923 33.2933 155.036 33.794 155.036 34.3778V41H152.453V39.6385H152.377C152.219 39.9453 152.008 40.2159 151.744 40.4503C151.479 40.6804 151.162 40.8615 150.791 40.9936C150.421 41.1214 149.992 41.1854 149.506 41.1854ZM150.286 39.3061C150.687 39.3061 151.041 39.2273 151.347 39.0696C151.654 38.9077 151.895 38.6903 152.07 38.4176C152.244 38.1449 152.332 37.8359 152.332 37.4908V36.4489C152.247 36.5043 152.129 36.5554 151.98 36.6023C151.835 36.6449 151.671 36.6854 151.488 36.7237C151.305 36.7578 151.122 36.7898 150.938 36.8196C150.755 36.8452 150.589 36.8686 150.44 36.8899C150.12 36.9368 149.841 37.0114 149.602 37.1136C149.364 37.2159 149.178 37.3544 149.046 37.5291C148.914 37.6996 148.848 37.9126 148.848 38.1683C148.848 38.5391 148.982 38.8224 149.251 39.0185C149.524 39.2102 149.869 39.3061 150.286 39.3061ZM157.148 41V31.1818H159.788V32.8949H159.89C160.069 32.2855 160.37 31.8253 160.792 31.5142C161.214 31.1989 161.699 31.0412 162.249 31.0412C162.385 31.0412 162.532 31.0497 162.69 31.0668C162.848 31.0838 162.986 31.1072 163.106 31.1371V33.5533C162.978 33.5149 162.801 33.4808 162.575 33.451C162.349 33.4212 162.142 33.4062 161.955 33.4062C161.554 33.4062 161.196 33.4936 160.881 33.6683C160.57 33.8388 160.323 34.0774 160.14 34.3842C159.961 34.6911 159.871 35.0447 159.871 35.4453V41H157.148ZM164.565 41V27.9091H167.288V32.831H167.371C167.49 32.5668 167.663 32.2983 167.888 32.0256C168.119 31.7486 168.417 31.5185 168.783 31.3352C169.154 31.1477 169.614 31.054 170.164 31.054C170.88 31.054 171.54 31.2415 172.146 31.6165C172.751 31.9872 173.234 32.5476 173.597 33.2976C173.959 34.0433 174.14 34.9787 174.14 36.1037C174.14 37.1989 173.963 38.1236 173.609 38.8778C173.26 39.6278 172.783 40.1967 172.177 40.5845C171.577 40.968 170.903 41.1598 170.158 41.1598C169.629 41.1598 169.18 41.0724 168.809 40.8977C168.442 40.723 168.142 40.5036 167.908 40.2393C167.673 39.9709 167.494 39.7003 167.371 39.4276H167.249V41H164.565ZM167.23 36.0909C167.23 36.6747 167.311 37.1839 167.473 37.6186C167.635 38.0533 167.869 38.392 168.176 38.6349C168.483 38.8736 168.856 38.9929 169.295 38.9929C169.738 38.9929 170.113 38.8714 170.42 38.6286C170.726 38.3814 170.959 38.0405 171.116 37.6058C171.278 37.1669 171.359 36.6619 171.359 36.0909C171.359 35.5241 171.28 35.0256 171.123 34.5952C170.965 34.1648 170.733 33.8281 170.426 33.5852C170.119 33.3423 169.742 33.2209 169.295 33.2209C168.851 33.2209 168.476 33.3381 168.17 33.5724C167.867 33.8068 167.635 34.1392 167.473 34.5696C167.311 35 167.23 35.5071 167.23 36.0909ZM180.393 41.1918C179.4 41.1918 178.541 40.9808 177.817 40.5589C177.097 40.1328 176.541 39.5405 176.149 38.782C175.756 38.0192 175.56 37.1349 175.56 36.1293C175.56 35.1151 175.756 34.2287 176.149 33.4702C176.541 32.7074 177.097 32.1151 177.817 31.6932C178.541 31.267 179.4 31.054 180.393 31.054C181.386 31.054 182.242 31.267 182.962 31.6932C183.687 32.1151 184.245 32.7074 184.637 33.4702C185.029 34.2287 185.225 35.1151 185.225 36.1293C185.225 37.1349 185.029 38.0192 184.637 38.782C184.245 39.5405 183.687 40.1328 182.962 40.5589C182.242 40.9808 181.386 41.1918 180.393 41.1918ZM180.406 39.0824C180.857 39.0824 181.234 38.9545 181.537 38.6989C181.84 38.4389 182.068 38.0852 182.221 37.6378C182.379 37.1903 182.457 36.6811 182.457 36.1101C182.457 35.5391 182.379 35.0298 182.221 34.5824C182.068 34.1349 181.84 33.7812 181.537 33.5213C181.234 33.2614 180.857 33.1314 180.406 33.1314C179.95 33.1314 179.566 33.2614 179.255 33.5213C178.948 33.7812 178.716 34.1349 178.558 34.5824C178.405 35.0298 178.328 35.5391 178.328 36.1101C178.328 36.6811 178.405 37.1903 178.558 37.6378C178.716 38.0852 178.948 38.4389 179.255 38.6989C179.566 38.9545 179.95 39.0824 180.406 39.0824ZM189.719 35.3239V41H186.996V31.1818H189.591V32.9141H189.706C189.923 32.343 190.288 31.8913 190.799 31.5589C191.31 31.2223 191.93 31.054 192.659 31.054C193.341 31.054 193.935 31.2031 194.443 31.5014C194.95 31.7997 195.344 32.2259 195.625 32.7798C195.906 33.3295 196.047 33.9858 196.047 34.7486V41H193.324V35.2344C193.328 34.6335 193.175 34.1648 192.864 33.8281C192.553 33.4872 192.124 33.3168 191.579 33.3168C191.212 33.3168 190.889 33.3956 190.607 33.5533C190.33 33.7109 190.113 33.9411 189.955 34.2436C189.802 34.5419 189.723 34.902 189.719 35.3239ZM205.178 27.9091V41H202.41V27.9091H205.178ZM210.127 35.3239V41H207.404V31.1818H209.999V32.9141H210.114C210.332 32.343 210.696 31.8913 211.207 31.5589C211.719 31.2223 212.339 31.054 213.067 31.054C213.749 31.054 214.344 31.2031 214.851 31.5014C215.358 31.7997 215.752 32.2259 216.033 32.7798C216.315 33.3295 216.455 33.9858 216.455 34.7486V41H213.732V35.2344C213.736 34.6335 213.583 34.1648 213.272 33.8281C212.961 33.4872 212.533 33.3168 211.987 33.3168C211.621 33.3168 211.297 33.3956 211.016 33.5533C210.739 33.7109 210.521 33.9411 210.364 34.2436C210.21 34.5419 210.131 34.902 210.127 35.3239ZM223.824 31.1818V33.2273H217.911V31.1818H223.824ZM219.253 28.8295H221.976V37.983C221.976 38.2344 222.015 38.4304 222.091 38.571C222.168 38.7074 222.275 38.8033 222.411 38.8587C222.552 38.9141 222.714 38.9418 222.897 38.9418C223.025 38.9418 223.152 38.9311 223.28 38.9098C223.408 38.8842 223.506 38.8651 223.574 38.8523L224.003 40.8786C223.866 40.9212 223.674 40.9702 223.427 41.0256C223.18 41.0852 222.88 41.1214 222.526 41.1342C221.87 41.1598 221.294 41.0724 220.8 40.8722C220.31 40.6719 219.929 40.3608 219.656 39.9389C219.383 39.517 219.249 38.9844 219.253 38.3409V28.8295ZM229.966 41.1918C228.956 41.1918 228.087 40.9872 227.358 40.5781C226.634 40.1648 226.076 39.581 225.684 38.8267C225.292 38.0682 225.096 37.1712 225.096 36.1357C225.096 35.1257 225.292 34.2393 225.684 33.4766C226.076 32.7138 226.628 32.1193 227.339 31.6932C228.055 31.267 228.895 31.054 229.858 31.054C230.505 31.054 231.108 31.1584 231.667 31.3672C232.229 31.5717 232.719 31.8807 233.137 32.294C233.559 32.7074 233.887 33.2273 234.121 33.8537C234.356 34.4759 234.473 35.2045 234.473 36.0398V36.7876H226.182V35.1001H231.91C231.91 34.7081 231.824 34.3608 231.654 34.0582C231.483 33.7557 231.247 33.5192 230.944 33.3487C230.646 33.174 230.299 33.0866 229.902 33.0866C229.489 33.0866 229.123 33.1825 228.803 33.3743C228.488 33.5618 228.241 33.8153 228.062 34.1349C227.883 34.4503 227.791 34.8018 227.787 35.1896V36.794C227.787 37.2798 227.876 37.6996 228.055 38.0533C228.238 38.407 228.496 38.6797 228.829 38.8714C229.161 39.0632 229.555 39.1591 230.011 39.1591C230.314 39.1591 230.591 39.1165 230.842 39.0312C231.093 38.946 231.309 38.8182 231.488 38.6477C231.667 38.4773 231.803 38.2685 231.897 38.0213L234.415 38.1875C234.287 38.7926 234.025 39.321 233.629 39.7727C233.237 40.2202 232.73 40.5696 232.108 40.821C231.49 41.0682 230.776 41.1918 229.966 41.1918ZM238.973 35.3239V41H236.25V31.1818H238.845V32.9141H238.96C239.177 32.343 239.542 31.8913 240.053 31.5589C240.564 31.2223 241.184 31.054 241.913 31.054C242.595 31.054 243.189 31.2031 243.696 31.5014C244.204 31.7997 244.598 32.2259 244.879 32.7798C245.16 33.3295 245.301 33.9858 245.301 34.7486V41H242.578V35.2344C242.582 34.6335 242.429 34.1648 242.118 33.8281C241.807 33.4872 241.378 33.3168 240.833 33.3168C240.466 33.3168 240.142 33.3956 239.861 33.5533C239.584 33.7109 239.367 33.9411 239.209 34.2436C239.056 34.5419 238.977 34.902 238.973 35.3239ZM255.616 33.9815L253.123 34.1349C253.081 33.9219 252.989 33.7301 252.848 33.5597C252.708 33.3849 252.522 33.2464 252.292 33.1442C252.066 33.0376 251.796 32.9844 251.48 32.9844C251.059 32.9844 250.703 33.0739 250.413 33.2528C250.123 33.4276 249.978 33.6619 249.978 33.956C249.978 34.1903 250.072 34.3885 250.259 34.5504C250.447 34.7124 250.769 34.8423 251.225 34.9403L253.002 35.2983C253.956 35.4943 254.668 35.8097 255.137 36.2443C255.605 36.679 255.84 37.25 255.84 37.9574C255.84 38.6009 255.65 39.1655 255.271 39.6513C254.896 40.1371 254.38 40.5163 253.724 40.7891C253.072 41.0575 252.32 41.1918 251.468 41.1918C250.168 41.1918 249.132 40.9212 248.361 40.38C247.594 39.8345 247.144 39.093 247.012 38.1555L249.691 38.0149C249.772 38.4112 249.968 38.7138 250.279 38.9226C250.59 39.1271 250.988 39.2294 251.474 39.2294C251.951 39.2294 252.335 39.1378 252.625 38.9545C252.919 38.767 253.068 38.5263 253.072 38.2322C253.068 37.9851 252.963 37.7827 252.759 37.625C252.554 37.4631 252.239 37.3395 251.813 37.2543L250.112 36.9155C249.154 36.7237 248.44 36.3913 247.971 35.9183C247.507 35.4453 247.274 34.8423 247.274 34.1094C247.274 33.4787 247.445 32.9354 247.786 32.4794C248.131 32.0234 248.615 31.6719 249.237 31.4247C249.863 31.1776 250.596 31.054 251.436 31.054C252.676 31.054 253.652 31.3161 254.363 31.8402C255.079 32.3643 255.497 33.0781 255.616 33.9815ZM257.554 41V31.1818H260.277V41H257.554ZM258.922 29.9162C258.517 29.9162 258.17 29.782 257.88 29.5135C257.595 29.2408 257.452 28.9148 257.452 28.5355C257.452 28.1605 257.595 27.8388 257.88 27.5703C258.17 27.2976 258.517 27.1612 258.922 27.1612C259.327 27.1612 259.672 27.2976 259.958 27.5703C260.248 27.8388 260.392 28.1605 260.392 28.5355C260.392 28.9148 260.248 29.2408 259.958 29.5135C259.672 29.782 259.327 29.9162 258.922 29.9162ZM267.681 31.1818V33.2273H261.768V31.1818H267.681ZM263.111 28.8295H265.834V37.983C265.834 38.2344 265.872 38.4304 265.949 38.571C266.025 38.7074 266.132 38.8033 266.268 38.8587C266.409 38.9141 266.571 38.9418 266.754 38.9418C266.882 38.9418 267.01 38.9311 267.138 38.9098C267.266 38.8842 267.364 38.8651 267.432 38.8523L267.86 40.8786C267.724 40.9212 267.532 40.9702 267.285 41.0256C267.038 41.0852 266.737 41.1214 266.383 41.1342C265.727 41.1598 265.152 41.0724 264.658 40.8722C264.168 40.6719 263.786 40.3608 263.513 39.9389C263.241 39.517 263.106 38.9844 263.111 38.3409V28.8295ZM271.136 44.6818C270.791 44.6818 270.467 44.6541 270.164 44.5987C269.866 44.5476 269.619 44.4815 269.423 44.4006L270.036 42.3679C270.356 42.4659 270.644 42.5192 270.899 42.5277C271.159 42.5362 271.383 42.4766 271.571 42.3487C271.762 42.2209 271.918 42.0036 272.037 41.6967L272.197 41.2812L268.675 31.1818H271.539L273.571 38.392H273.674L275.725 31.1818H278.608L274.792 42.0611C274.609 42.5895 274.36 43.0497 274.044 43.4418C273.733 43.8381 273.339 44.1428 272.862 44.3558C272.384 44.5732 271.809 44.6818 271.136 44.6818Z" fill="#0F2A34"/>
<line x1="10" y1="161.75" x2="401" y2="161.75" stroke="#3F4A4F" stroke-width="0.5"/>
<defs>
<filter id="filter0_d_628_216" x="96.2021" y="14.9287" width="32.6211" height="51.2568" filterUnits="userSpaceOnUse" color-interpolation-filters="sRGB">
<feFlood flood-opacity="0" result="BackgroundImageFix"/>
<feColorMatrix in="SourceAlpha" type="matrix" values="0 0 0 0 0 0 0 0 0 0 0 0 0 0 0 0 0 0 127 0" result="hardAlpha"/>
<feOffset dy="4"/>
<feGaussianBlur stdDeviation="2"/>
<feComposite in2="hardAlpha" operator="out"/>
<feColorMatrix type="matrix" values="0 0 0 0 0 0 0 0 0 0 0 0 0 0 0 0 0 0 0.25 0"/>
<feBlend mode="normal" in2="BackgroundImageFix" result="effect1_dropShadow_628_216"/>
<feBlend mode="normal" in="SourceGraphic" in2="effect1_dropShadow_628_216" result="shape"/>
</filter>
<clipPath id="clip0_628_216">
<rect width="50" height="50" fill="white" transform="translate(95 11)"/>
</clipPath>
<clipPath id="clip1_628_216">
<rect width="16.6667" height="16.3743" fill="white" transform="translate(109.571 37.2749)"/>
</clipPath>
</defs>
</svg>
