<svg width="55" height="42" viewBox="0 0 55 42" fill="none" xmlns="http://www.w3.org/2000/svg">
<path d="M16.8779 14.4243C18.3948 14.4243 19.6044 14.8012 20.5195 15.5073L20.6992 15.6528C21.5131 16.3654 22.0434 17.3243 22.2734 18.5337C22.3122 18.8051 22.258 19.0326 22.1221 19.2378C21.9937 19.4265 21.8151 19.5492 21.5801 19.6069L21.3516 19.6343C21.202 19.6306 21.0531 19.584 20.9199 19.4897L20.9111 19.4839L20.9033 19.478L20.8047 19.3999C20.6964 19.297 20.5688 19.1157 20.5195 18.8169L20.5176 18.8013L20.4404 18.4751C20.2348 17.7331 19.844 17.1322 19.2363 16.7114C18.6005 16.2645 17.7936 16.062 16.876 16.062C15.64 16.062 14.6336 16.5064 13.8516 17.4175L13.8457 17.4243C13.0123 18.4287 12.6192 19.8471 12.6191 21.5591C12.6191 23.3099 13.0078 24.7393 13.8525 25.7339L13.8535 25.7349C14.6147 26.6268 15.6245 27.0542 16.876 27.0542C17.795 27.0542 18.6008 26.8518 19.2119 26.3931L19.2148 26.3911C19.9045 25.8659 20.3456 25.0129 20.5771 23.9478L20.5791 23.9399L20.5801 23.9312C20.6264 23.6753 20.774 23.462 20.9844 23.3354C21.1335 23.2536 21.2706 23.2184 21.4111 23.2153L21.6709 23.2437C21.9087 23.2987 22.0998 23.4311 22.2305 23.6284V23.6294C22.3201 23.7671 22.4307 24.0214 22.3428 24.4087C22.0362 25.6736 21.4755 26.6595 20.6885 27.3716L20.6855 27.3745C19.7513 28.2349 18.4834 28.6948 16.8779 28.6948C15.0733 28.6948 13.6301 28.0403 12.5439 26.7554L12.54 26.7515L12.3418 26.5103C11.383 25.2758 10.876 23.6247 10.876 21.5591C10.876 19.4082 11.4512 17.6855 12.5459 16.3931L12.5479 16.3911C13.6379 15.0868 15.0826 14.4243 16.8779 14.4243Z" fill="#01243D"/>
<path d="M16.8779 14.4243C18.3948 14.4243 19.6044 14.8012 20.5195 15.5073L20.6992 15.6528C21.5131 16.3654 22.0434 17.3243 22.2734 18.5337C22.3122 18.8051 22.258 19.0326 22.1221 19.2378C21.9937 19.4265 21.8151 19.5492 21.5801 19.6069L21.3516 19.6343C21.202 19.6306 21.0531 19.584 20.9199 19.4897L20.9111 19.4839L20.9033 19.478L20.8047 19.3999C20.6964 19.297 20.5688 19.1157 20.5195 18.8169L20.5176 18.8013L20.4404 18.4751C20.2348 17.7331 19.844 17.1322 19.2363 16.7114C18.6005 16.2645 17.7936 16.062 16.876 16.062C15.64 16.062 14.6336 16.5064 13.8516 17.4175L13.8457 17.4243C13.0123 18.4287 12.6192 19.8471 12.6191 21.5591C12.6191 23.3099 13.0078 24.7393 13.8525 25.7339L13.8535 25.7349C14.6147 26.6268 15.6245 27.0542 16.876 27.0542C17.795 27.0542 18.6008 26.8518 19.2119 26.3931L19.2148 26.3911C19.9045 25.8659 20.3456 25.0129 20.5771 23.9478L20.5791 23.9399L20.5801 23.9312C20.6264 23.6753 20.774 23.462 20.9844 23.3354C21.1335 23.2536 21.2706 23.2184 21.4111 23.2153L21.6709 23.2437C21.9087 23.2987 22.0998 23.4311 22.2305 23.6284V23.6294C22.3201 23.7671 22.4307 24.0214 22.3428 24.4087C22.0362 25.6736 21.4755 26.6595 20.6885 27.3716L20.6855 27.3745C19.7513 28.2349 18.4834 28.6948 16.8779 28.6948C15.0733 28.6948 13.6301 28.0403 12.5439 26.7554L12.54 26.7515L12.3418 26.5103C11.383 25.2758 10.876 23.6247 10.876 21.5591C10.876 19.4082 11.4512 17.6855 12.5459 16.3931L12.5479 16.3911C13.6379 15.0868 15.0826 14.4243 16.8779 14.4243Z" stroke="#01243D"/>
<path d="M16.8779 14.4243C18.3948 14.4243 19.6044 14.8012 20.5195 15.5073L20.6992 15.6528C21.5131 16.3654 22.0434 17.3243 22.2734 18.5337C22.3122 18.8051 22.258 19.0326 22.1221 19.2378C21.9937 19.4265 21.8151 19.5492 21.5801 19.6069L21.3516 19.6343C21.202 19.6306 21.0531 19.584 20.9199 19.4897L20.9111 19.4839L20.9033 19.478L20.8047 19.3999C20.6964 19.297 20.5688 19.1157 20.5195 18.8169L20.5176 18.8013L20.4404 18.4751C20.2348 17.7331 19.844 17.1322 19.2363 16.7114C18.6005 16.2645 17.7936 16.062 16.876 16.062C15.64 16.062 14.6336 16.5064 13.8516 17.4175L13.8457 17.4243C13.0123 18.4287 12.6192 19.8471 12.6191 21.5591C12.6191 23.3099 13.0078 24.7393 13.8525 25.7339L13.8535 25.7349C14.6147 26.6268 15.6245 27.0542 16.876 27.0542C17.795 27.0542 18.6008 26.8518 19.2119 26.3931L19.2148 26.3911C19.9045 25.8659 20.3456 25.0129 20.5771 23.9478L20.5791 23.9399L20.5801 23.9312C20.6264 23.6753 20.774 23.462 20.9844 23.3354C21.1335 23.2536 21.2706 23.2184 21.4111 23.2153L21.6709 23.2437C21.9087 23.2987 22.0998 23.4311 22.2305 23.6284V23.6294C22.3201 23.7671 22.4307 24.0214 22.3428 24.4087C22.0362 25.6736 21.4755 26.6595 20.6885 27.3716L20.6855 27.3745C19.7513 28.2349 18.4834 28.6948 16.8779 28.6948C15.0733 28.6948 13.6301 28.0403 12.5439 26.7554L12.54 26.7515L12.3418 26.5103C11.383 25.2758 10.876 23.6247 10.876 21.5591C10.876 19.4082 11.4512 17.6855 12.5459 16.3931L12.5479 16.3911C13.6379 15.0868 15.0826 14.4243 16.8779 14.4243Z" stroke="black" stroke-opacity="0.2"/>
<path d="M30.8789 14.4243C32.9357 14.4244 34.5139 15.1757 35.6279 16.6392L35.6289 16.6401C36.602 17.9106 37.1103 19.5552 37.1104 21.5591C37.1104 23.5623 36.5996 25.1993 35.6279 26.4614L35.625 26.4653C34.5121 27.9361 32.9339 28.6938 30.8789 28.6938C28.812 28.6938 27.2274 27.9364 26.1094 26.4595C25.1596 25.1977 24.6641 23.5586 24.6641 21.5591C24.6641 19.5612 25.16 17.9176 26.1064 16.647C27.2267 15.1755 28.8106 14.4243 30.8789 14.4243ZM30.8789 16.0444C29.4016 16.0444 28.2517 16.5622 27.4658 17.6587C26.7455 18.655 26.4092 19.9822 26.4092 21.5591C26.4092 23.128 26.7491 24.4514 27.4639 25.4536L27.4648 25.4546C28.2508 26.5524 29.4007 27.0708 30.8789 27.0708C32.3506 27.0707 33.4982 26.5509 34.2939 25.4507L34.2949 25.4497C35.0209 24.4409 35.3662 23.1176 35.3662 21.5591C35.3662 20.0881 35.0656 18.8312 34.4277 17.855L34.2959 17.6636C33.4976 16.5644 32.3507 16.0445 30.8789 16.0444Z" fill="#01243D"/>
<path d="M30.8789 14.4243C32.9357 14.4244 34.5139 15.1757 35.6279 16.6392L35.6289 16.6401C36.602 17.9106 37.1103 19.5552 37.1104 21.5591C37.1104 23.5623 36.5996 25.1993 35.6279 26.4614L35.625 26.4653C34.5121 27.9361 32.9339 28.6938 30.8789 28.6938C28.812 28.6938 27.2274 27.9364 26.1094 26.4595C25.1596 25.1977 24.6641 23.5586 24.6641 21.5591C24.6641 19.5612 25.16 17.9176 26.1064 16.647C27.2267 15.1755 28.8106 14.4243 30.8789 14.4243ZM30.8789 16.0444C29.4016 16.0444 28.2517 16.5622 27.4658 17.6587C26.7455 18.655 26.4092 19.9822 26.4092 21.5591C26.4092 23.128 26.7491 24.4514 27.4639 25.4536L27.4648 25.4546C28.2508 26.5524 29.4007 27.0708 30.8789 27.0708C32.3506 27.0707 33.4982 26.5509 34.2939 25.4507L34.2949 25.4497C35.0209 24.4409 35.3662 23.1176 35.3662 21.5591C35.3662 20.0881 35.0656 18.8312 34.4277 17.855L34.2959 17.6636C33.4976 16.5644 32.3507 16.0445 30.8789 16.0444Z" stroke="#01243D"/>
<path d="M30.8789 14.4243C32.9357 14.4244 34.5139 15.1757 35.6279 16.6392L35.6289 16.6401C36.602 17.9106 37.1103 19.5552 37.1104 21.5591C37.1104 23.5623 36.5996 25.1993 35.6279 26.4614L35.625 26.4653C34.5121 27.9361 32.9339 28.6938 30.8789 28.6938C28.812 28.6938 27.2274 27.9364 26.1094 26.4595C25.1596 25.1977 24.6641 23.5586 24.6641 21.5591C24.6641 19.5612 25.16 17.9176 26.1064 16.647C27.2267 15.1755 28.8106 14.4243 30.8789 14.4243ZM30.8789 16.0444C29.4016 16.0444 28.2517 16.5622 27.4658 17.6587C26.7455 18.655 26.4092 19.9822 26.4092 21.5591C26.4092 23.128 26.7491 24.4514 27.4639 25.4536L27.4648 25.4546C28.2508 26.5524 29.4007 27.0708 30.8789 27.0708C32.3506 27.0707 33.4982 26.5509 34.2939 25.4507L34.2949 25.4497C35.0209 24.4409 35.3662 23.1176 35.3662 21.5591C35.3662 20.0881 35.0656 18.8312 34.4277 17.855L34.2959 17.6636C33.4976 16.5644 32.3507 16.0445 30.8789 16.0444Z" stroke="black" stroke-opacity="0.2"/>
<path d="M42.2227 22.5459C43.1143 22.544 43.9837 22.8388 44.5967 23.4004L44.7158 23.5166C45.2776 24.1018 45.5635 24.8197 45.5635 25.6719C45.5634 26.4859 45.3592 27.1553 44.9746 27.6885L44.7949 27.9131C44.5113 28.2423 43.9626 28.6737 43.0127 29.2783L43.002 29.2852L42.9922 29.292L42.7959 29.4316C41.8803 30.0039 41.3977 30.4258 41.1338 30.7354L40.4307 31.5596H44.8652C45.0887 31.5596 45.29 31.6326 45.4492 31.7627L45.5146 31.8213C45.6784 31.9853 45.7705 32.2064 45.7705 32.4531C45.7704 32.6876 45.681 32.905 45.5127 33.0752L45.5039 33.084L45.4951 33.0938C45.3706 33.2326 45.1402 33.3457 44.8662 33.3457H38.6836L38.6787 32.8193V32.8184C38.6695 31.7561 38.9348 30.8296 39.4521 30.0479C39.9103 29.3604 40.6281 28.7077 41.6143 28.1143L41.6191 28.1113C42.6455 27.4753 43.0659 27.1106 43.2451 26.9141L43.25 26.9092C43.5547 26.566 43.6875 26.1507 43.6875 25.6719C43.6875 25.4509 43.6492 25.2624 43.5791 25.0996C43.5086 24.9359 43.4163 24.8229 43.3438 24.7461L43.3418 24.7441L43.2666 24.6699C43.1825 24.5945 43.0724 24.5161 42.9268 24.4531C42.7359 24.3706 42.5089 24.3262 42.2363 24.3262C41.9695 24.3262 41.7466 24.3687 41.5586 24.4502C41.3677 24.533 41.2404 24.644 41.1523 24.7383C41.0778 24.8174 40.983 24.9323 40.9111 25.0977C40.8396 25.2624 40.8018 25.4516 40.8018 25.6719V26.0479C40.8018 26.3295 40.6921 26.5759 40.498 26.7529L40.4805 26.7686C40.3614 26.8876 40.1383 26.9814 39.8662 26.9814C39.6041 26.9815 39.3633 26.894 39.2031 26.7412C39.0558 26.5754 38.9229 26.3538 38.9229 26.0078V25.6729C38.9229 24.8168 39.2062 24.1015 39.7578 23.5225L39.7588 23.5205C40.3559 22.8883 41.2709 22.5481 42.2227 22.5459Z" fill="#01243D"/>
<path d="M42.2227 22.5459C43.1143 22.544 43.9837 22.8388 44.5967 23.4004L44.7158 23.5166C45.2776 24.1018 45.5635 24.8197 45.5635 25.6719C45.5634 26.4859 45.3592 27.1553 44.9746 27.6885L44.7949 27.9131C44.5113 28.2423 43.9626 28.6737 43.0127 29.2783L43.002 29.2852L42.9922 29.292L42.7959 29.4316C41.8803 30.0039 41.3977 30.4258 41.1338 30.7354L40.4307 31.5596H44.8652C45.0887 31.5596 45.29 31.6326 45.4492 31.7627L45.5146 31.8213C45.6784 31.9853 45.7705 32.2064 45.7705 32.4531C45.7704 32.6876 45.681 32.905 45.5127 33.0752L45.5039 33.084L45.4951 33.0938C45.3706 33.2326 45.1402 33.3457 44.8662 33.3457H38.6836L38.6787 32.8193V32.8184C38.6695 31.7561 38.9348 30.8296 39.4521 30.0479C39.9103 29.3604 40.6281 28.7077 41.6143 28.1143L41.6191 28.1113C42.6455 27.4753 43.0659 27.1106 43.2451 26.9141L43.25 26.9092C43.5547 26.566 43.6875 26.1507 43.6875 25.6719C43.6875 25.4509 43.6492 25.2624 43.5791 25.0996C43.5086 24.9359 43.4163 24.8229 43.3438 24.7461L43.3418 24.7441L43.2666 24.6699C43.1825 24.5945 43.0724 24.5161 42.9268 24.4531C42.7359 24.3706 42.5089 24.3262 42.2363 24.3262C41.9695 24.3262 41.7466 24.3687 41.5586 24.4502C41.3677 24.533 41.2404 24.644 41.1523 24.7383C41.0778 24.8174 40.983 24.9323 40.9111 25.0977C40.8396 25.2624 40.8018 25.4516 40.8018 25.6719V26.0479C40.8018 26.3295 40.6921 26.5759 40.498 26.7529L40.4805 26.7686C40.3614 26.8876 40.1383 26.9814 39.8662 26.9814C39.6041 26.9815 39.3633 26.894 39.2031 26.7412C39.0558 26.5754 38.9229 26.3538 38.9229 26.0078V25.6729C38.9229 24.8168 39.2062 24.1015 39.7578 23.5225L39.7588 23.5205C40.3559 22.8883 41.2709 22.5481 42.2227 22.5459Z" stroke="#01243D"/>
<path d="M42.2227 22.5459C43.1143 22.544 43.9837 22.8388 44.5967 23.4004L44.7158 23.5166C45.2776 24.1018 45.5635 24.8197 45.5635 25.6719C45.5634 26.4859 45.3592 27.1553 44.9746 27.6885L44.7949 27.9131C44.5113 28.2423 43.9626 28.6737 43.0127 29.2783L43.002 29.2852L42.9922 29.292L42.7959 29.4316C41.8803 30.0039 41.3977 30.4258 41.1338 30.7354L40.4307 31.5596H44.8652C45.0887 31.5596 45.29 31.6326 45.4492 31.7627L45.5146 31.8213C45.6784 31.9853 45.7705 32.2064 45.7705 32.4531C45.7704 32.6876 45.681 32.905 45.5127 33.0752L45.5039 33.084L45.4951 33.0938C45.3706 33.2326 45.1402 33.3457 44.8662 33.3457H38.6836L38.6787 32.8193V32.8184C38.6695 31.7561 38.9348 30.8296 39.4521 30.0479C39.9103 29.3604 40.6281 28.7077 41.6143 28.1143L41.6191 28.1113C42.6455 27.4753 43.0659 27.1106 43.2451 26.9141L43.25 26.9092C43.5547 26.566 43.6875 26.1507 43.6875 25.6719C43.6875 25.4509 43.6492 25.2624 43.5791 25.0996C43.5086 24.9359 43.4163 24.8229 43.3438 24.7461L43.3418 24.7441L43.2666 24.6699C43.1825 24.5945 43.0724 24.5161 42.9268 24.4531C42.7359 24.3706 42.5089 24.3262 42.2363 24.3262C41.9695 24.3262 41.7466 24.3687 41.5586 24.4502C41.3677 24.533 41.2404 24.644 41.1523 24.7383C41.0778 24.8174 40.983 24.9323 40.9111 25.0977C40.8396 25.2624 40.8018 25.4516 40.8018 25.6719V26.0479C40.8018 26.3295 40.6921 26.5759 40.498 26.7529L40.4805 26.7686C40.3614 26.8876 40.1383 26.9814 39.8662 26.9814C39.6041 26.9815 39.3633 26.894 39.2031 26.7412C39.0558 26.5754 38.9229 26.3538 38.9229 26.0078V25.6729C38.9229 24.8168 39.2062 24.1015 39.7578 23.5225L39.7588 23.5205C40.3559 22.8883 41.2709 22.5481 42.2227 22.5459Z" stroke="black" stroke-opacity="0.2"/>
<path d="M26.125 0.5C34.9781 0.5 42.78 6.31737 45.3506 14.7393L45.4248 14.9814L45.6631 15.0654C50.9813 16.9346 54.5 21.8441 54.5 27.5C54.5 34.8056 48.5556 40.75 41.25 40.75C38.9801 40.75 36.7465 40.1556 34.7471 39.0215L34.5273 38.8965L34.2959 39C29.8967 40.9701 24.9329 41.2918 20.3008 39.8799L20.1416 39.8311L19.9863 39.8877C18.3822 40.463 16.7466 40.75 15.125 40.75C7.0622 40.75 0.5 34.1878 0.5 26.125C0.5 21.2215 2.93103 16.723 7.03125 13.9922L7.16797 13.9014L7.22363 13.7471C10.1146 5.80384 17.6506 0.5 26.125 0.5ZM26.125 2.25C18.2431 2.25 11.2497 7.27474 8.72363 14.7549L8.62305 15.0518L8.35645 15.2178V15.2188C4.53615 17.5948 2.25 21.6716 2.25 26.125C2.25 33.2248 8.02517 39 15.125 38.999C16.6865 38.999 18.2608 38.6912 19.7998 38.0898V38.0889L20.0898 37.9746L20.3896 38.0742L20.3906 38.0752C24.9554 39.577 29.8872 39.2318 34.1934 37.1123L34.6387 36.8945L35.0557 37.1621V37.1611C36.9259 38.3641 39.0688 39 41.25 39C47.5927 39 52.75 33.8427 52.75 27.5C52.75 22.5392 49.6206 18.2415 44.9229 16.6582L44.4629 16.5137L43.9883 16.375L43.8623 15.8984C41.7287 7.86235 34.4349 2.25 26.125 2.25Z" fill="#01243D"/>
<path d="M26.125 0.5C34.9781 0.5 42.78 6.31737 45.3506 14.7393L45.4248 14.9814L45.6631 15.0654C50.9813 16.9346 54.5 21.8441 54.5 27.5C54.5 34.8056 48.5556 40.75 41.25 40.75C38.9801 40.75 36.7465 40.1556 34.7471 39.0215L34.5273 38.8965L34.2959 39C29.8967 40.9701 24.9329 41.2918 20.3008 39.8799L20.1416 39.8311L19.9863 39.8877C18.3822 40.463 16.7466 40.75 15.125 40.75C7.0622 40.75 0.5 34.1878 0.5 26.125C0.5 21.2215 2.93103 16.723 7.03125 13.9922L7.16797 13.9014L7.22363 13.7471C10.1146 5.80384 17.6506 0.5 26.125 0.5ZM26.125 2.25C18.2431 2.25 11.2497 7.27474 8.72363 14.7549L8.62305 15.0518L8.35645 15.2178V15.2188C4.53615 17.5948 2.25 21.6716 2.25 26.125C2.25 33.2248 8.02517 39 15.125 38.999C16.6865 38.999 18.2608 38.6912 19.7998 38.0898V38.0889L20.0898 37.9746L20.3896 38.0742L20.3906 38.0752C24.9554 39.577 29.8872 39.2318 34.1934 37.1123L34.6387 36.8945L35.0557 37.1621V37.1611C36.9259 38.3641 39.0688 39 41.25 39C47.5927 39 52.75 33.8427 52.75 27.5C52.75 22.5392 49.6206 18.2415 44.9229 16.6582L44.4629 16.5137L43.9883 16.375L43.8623 15.8984C41.7287 7.86235 34.4349 2.25 26.125 2.25Z" stroke="#01243D"/>
<path d="M26.125 0.5C34.9781 0.5 42.78 6.31737 45.3506 14.7393L45.4248 14.9814L45.6631 15.0654C50.9813 16.9346 54.5 21.8441 54.5 27.5C54.5 34.8056 48.5556 40.75 41.25 40.75C38.9801 40.75 36.7465 40.1556 34.7471 39.0215L34.5273 38.8965L34.2959 39C29.8967 40.9701 24.9329 41.2918 20.3008 39.8799L20.1416 39.8311L19.9863 39.8877C18.3822 40.463 16.7466 40.75 15.125 40.75C7.0622 40.75 0.5 34.1878 0.5 26.125C0.5 21.2215 2.93103 16.723 7.03125 13.9922L7.16797 13.9014L7.22363 13.7471C10.1146 5.80384 17.6506 0.5 26.125 0.5ZM26.125 2.25C18.2431 2.25 11.2497 7.27474 8.72363 14.7549L8.62305 15.0518L8.35645 15.2178V15.2188C4.53615 17.5948 2.25 21.6716 2.25 26.125C2.25 33.2248 8.02517 39 15.125 38.999C16.6865 38.999 18.2608 38.6912 19.7998 38.0898V38.0889L20.0898 37.9746L20.3896 38.0742L20.3906 38.0752C24.9554 39.577 29.8872 39.2318 34.1934 37.1123L34.6387 36.8945L35.0557 37.1621V37.1611C36.9259 38.3641 39.0688 39 41.25 39C47.5927 39 52.75 33.8427 52.75 27.5C52.75 22.5392 49.6206 18.2415 44.9229 16.6582L44.4629 16.5137L43.9883 16.375L43.8623 15.8984C41.7287 7.86235 34.4349 2.25 26.125 2.25Z" stroke="black" stroke-opacity="0.2"/>
</svg>
