<svg width="231" height="78" viewBox="0 0 231 78" fill="none" xmlns="http://www.w3.org/2000/svg">
<path d="M85.5871 42.576C82.1631 42.576 79.2351 41.984 76.8031 40.8C74.3711 39.584 72.5151 37.712 71.2351 35.184C69.9871 32.656 69.3631 29.44 69.3631 25.536C69.3631 19.776 70.7711 15.504 73.5871 12.72C76.4351 9.904 80.4351 8.496 85.5871 8.496C88.4031 8.496 90.9311 8.976 93.1711 9.936C95.4111 10.896 97.1711 12.336 98.4511 14.256C99.7631 16.176 100.419 18.592 100.419 21.504H93.2191C93.2191 19.968 92.8991 18.672 92.2591 17.616C91.6511 16.56 90.7711 15.76 89.6191 15.216C88.4991 14.64 87.1871 14.352 85.6831 14.352C83.6351 14.352 81.9391 14.752 80.5951 15.552C79.2831 16.352 78.3071 17.536 77.6671 19.104C77.0591 20.64 76.7551 22.528 76.7551 24.768V26.256C76.7551 28.56 77.0751 30.496 77.7151 32.064C78.3551 33.6 79.3151 34.768 80.5951 35.568C81.9071 36.336 83.5871 36.72 85.6351 36.72C87.2351 36.72 88.6271 36.448 89.8111 35.904C90.9951 35.36 91.9071 34.56 92.5471 33.504C93.1871 32.448 93.5071 31.152 93.5071 29.616H100.419C100.419 32.528 99.7791 34.944 98.4991 36.864C97.2511 38.784 95.5071 40.224 93.2671 41.184C91.0271 42.112 88.4671 42.576 85.5871 42.576ZM121.414 42.576C117.926 42.576 114.918 41.952 112.39 40.704C109.862 39.456 107.926 37.568 106.582 35.04C105.238 32.512 104.566 29.344 104.566 25.536C104.566 21.664 105.238 18.48 106.582 15.984C107.926 13.456 109.862 11.584 112.39 10.368C114.918 9.12 117.926 8.496 121.414 8.496C124.966 8.496 127.99 9.12 130.486 10.368C133.014 11.584 134.95 13.456 136.294 15.984C137.638 18.48 138.31 21.664 138.31 25.536C138.31 29.344 137.638 32.512 136.294 35.04C134.95 37.568 133.014 39.456 130.486 40.704C127.99 41.952 124.966 42.576 121.414 42.576ZM121.414 36.72C122.982 36.72 124.358 36.496 125.542 36.048C126.726 35.6 127.718 34.928 128.518 34.032C129.318 33.136 129.926 32.048 130.342 30.768C130.758 29.456 130.966 27.968 130.966 26.304V24.816C130.966 23.12 130.758 21.616 130.342 20.304C129.926 18.992 129.318 17.904 128.518 17.04C127.718 16.144 126.726 15.472 125.542 15.024C124.358 14.576 122.982 14.352 121.414 14.352C119.878 14.352 118.518 14.576 117.334 15.024C116.15 15.472 115.158 16.144 114.358 17.04C113.558 17.904 112.95 18.992 112.534 20.304C112.15 21.616 111.958 23.12 111.958 24.816V26.304C111.958 27.968 112.15 29.456 112.534 30.768C112.95 32.048 113.558 33.136 114.358 34.032C115.158 34.928 116.15 35.6 117.334 36.048C118.518 36.496 119.878 36.72 121.414 36.72ZM156.933 42.576C155.013 42.576 153.189 42.384 151.461 42C149.733 41.616 148.197 41.008 146.853 40.176C145.541 39.312 144.501 38.24 143.733 36.96C142.997 35.648 142.629 34.064 142.629 32.208C142.629 32.048 142.629 31.888 142.629 31.728C142.629 31.536 142.645 31.392 142.677 31.296H149.781C149.749 31.392 149.733 31.52 149.733 31.68C149.733 31.84 149.733 31.984 149.733 32.112C149.733 33.136 150.005 34 150.549 34.704C151.125 35.408 151.957 35.936 153.045 36.288C154.133 36.64 155.397 36.816 156.837 36.816C157.765 36.816 158.581 36.768 159.285 36.672C160.021 36.544 160.661 36.384 161.205 36.192C161.781 35.968 162.245 35.712 162.597 35.424C162.981 35.136 163.253 34.8 163.413 34.416C163.605 34.032 163.701 33.6 163.701 33.12C163.701 32.256 163.413 31.552 162.837 31.008C162.293 30.464 161.525 30 160.533 29.616C159.573 29.232 158.485 28.88 157.269 28.56C156.053 28.24 154.805 27.92 153.525 27.6C152.245 27.248 150.997 26.832 149.781 26.352C148.565 25.84 147.477 25.232 146.517 24.528C145.557 23.824 144.789 22.928 144.213 21.84C143.637 20.752 143.349 19.44 143.349 17.904C143.349 16.272 143.685 14.864 144.357 13.68C145.061 12.496 146.037 11.52 147.285 10.752C148.533 9.984 149.973 9.424 151.605 9.072C153.237 8.688 155.013 8.496 156.933 8.496C158.725 8.496 160.421 8.688 162.021 9.072C163.621 9.424 165.029 10 166.245 10.8C167.461 11.6 168.405 12.608 169.077 13.824C169.781 15.04 170.133 16.48 170.133 18.144V18.72H163.173V18.336C163.173 17.472 162.917 16.736 162.405 16.128C161.893 15.52 161.173 15.04 160.245 14.688C159.317 14.336 158.229 14.16 156.981 14.16C155.637 14.16 154.485 14.288 153.525 14.544C152.597 14.8 151.877 15.184 151.365 15.696C150.885 16.176 150.645 16.752 150.645 17.424C150.645 18.192 150.917 18.832 151.461 19.344C152.037 19.824 152.805 20.256 153.765 20.64C154.757 20.992 155.861 21.312 157.077 21.6C158.293 21.888 159.541 22.208 160.821 22.56C162.101 22.912 163.349 23.328 164.565 23.808C165.781 24.288 166.869 24.896 167.829 25.632C168.789 26.336 169.557 27.216 170.133 28.272C170.709 29.328 170.997 30.592 170.997 32.064C170.997 34.592 170.389 36.624 169.173 38.16C167.957 39.696 166.293 40.816 164.181 41.52C162.069 42.224 159.653 42.576 156.933 42.576ZM184.807 42V15.072H174.247V9.072H202.615V15.072H192.007V42H184.807Z" fill="#01243D"/>
<g clip-path="url(#clip0_577_206)">
<path d="M32 48.0001C26.7467 48.0001 22.08 46.5068 18 43.5201C13.92 40.5334 11.0133 36.6934 9.33333 31.9734H0V26.6401H8.13333C8.05333 26.1601 8 25.7068 8 25.3068V22.6401C8 22.2401 8.05333 21.7868 8.13333 21.3068H0V15.9734H9.33333C11.0133 11.2534 13.92 7.41344 18 4.42678C22.08 1.44011 26.7467 -0.0532227 32 -0.0532227C35.0667 -0.0532227 37.9733 0.480111 40.6933 1.54678C43.4133 2.61344 45.8667 4.13344 48 6.08011L43.3333 10.7468C41.7867 9.46678 40.0267 8.45344 38.1067 7.70678C36.1867 6.96011 34.1333 6.61344 32 6.61344C28.6667 6.61344 25.6267 7.46678 22.9067 9.17344C20.1867 10.8801 18.1067 13.1468 16.6667 15.9468H32V21.2801H14.9333C14.8533 21.7601 14.7733 22.2134 14.72 22.6134C14.6667 23.0134 14.64 23.4668 14.64 23.9468C14.64 24.4268 14.64 24.8801 14.72 25.2801C14.8 25.6801 14.8267 26.1334 14.9333 26.6134H32V31.9468H16.6667C18.08 34.7468 20.16 37.0134 22.9067 38.7201C25.6533 40.4268 28.6667 41.2801 32 41.2801C34.1333 41.2801 36.1867 40.9068 38.16 40.1868C40.1333 39.4668 41.8667 38.4534 43.3333 37.1468L48 41.8134C45.8667 43.7601 43.44 45.2801 40.6933 46.3468C37.9467 47.4134 35.0667 47.9468 32 47.9468V48.0001Z" fill="#01243D"/>
</g>
<defs>
<clipPath id="clip0_577_206">
<rect width="48" height="48" fill="white"/>
</clipPath>
</defs>
</svg>
