<svg width="65" height="65" viewBox="0 0 65 65" fill="none" xmlns="http://www.w3.org/2000/svg">
<path d="M51.4959 13.7224L49.6323 15.5846L52.3911 18.3449V23.6862H57.6503V53.0246C57.6503 56.574 55.3891 56.9835 53.6899 56.9835C50.5215 56.9835 49.84 53.8705 49.7354 53.2458V31.1826H40.2932V4.81376C40.2932 2.15356 38.1396 0 35.4794 0H9.53355C6.87335 0 4.7168 2.15058 4.7168 4.81376V60.1832C4.7168 62.842 6.87335 65 9.53355 65H35.4794C38.1396 65 40.2932 62.8449 40.2932 60.1832V33.8144H47.0991V53.343L47.1126 53.5148C47.3935 55.625 49.1302 59.6138 53.6899 59.6138C57.8206 59.6138 60.2851 57.1509 60.2851 53.0201V22.5071L51.4959 13.7224ZM53.7078 22.3651V19.6601L56.4128 22.3651H53.7078ZM15.5907 36.0547C15.5907 36.0547 20.007 36.5284 21.3475 37.8749C22.6896 39.214 22.8973 41.1867 21.8078 42.2717C20.7198 43.3612 18.7531 43.1565 17.4095 41.8099C16.0645 40.4694 15.5907 36.0547 15.5907 36.0547ZM20.6137 57.1554C20.2401 56.3558 19.9591 55.5832 19.7066 54.7523C19.3688 53.6015 19.1357 52.4149 19.0699 51.1998C18.9115 48.7818 19.5601 46.2008 21.0621 44.3013C21.4118 43.8335 21.8691 43.3657 22.2338 43.0085C22.576 42.6618 22.9137 42.2583 23.2067 41.8518C23.791 41.0268 24.2229 40.0928 24.3933 39.0855C24.7535 37.0634 23.9838 34.8576 22.5924 33.1897C24.1886 34.6528 25.3602 36.8064 25.278 39.1707C25.2437 40.3409 24.8895 41.5036 24.347 42.5408C24.072 43.0668 23.7656 43.5495 23.4039 44.0308C23.0468 44.4926 22.7852 44.8512 22.5371 45.2951C21.5433 47.0078 21.34 48.994 21.7211 50.892C21.905 51.8514 22.2218 52.787 22.6283 53.6867C23.0258 54.564 23.5609 55.498 24.0765 56.1765L24.882 56.988C24.9313 57.0508 24.9522 57.1031 24.9806 57.1584L20.6137 57.1554ZM28.125 50.3405C26.783 51.6811 24.8132 51.8888 23.7253 50.8008C22.6373 49.7158 22.845 47.7446 24.1871 46.4025C25.5291 45.0605 29.9453 44.5837 29.9453 44.5837C29.9453 44.5837 29.4641 48.997 28.125 50.3405ZM35.0221 30.3023H10.4288V5.70896H35.0236L35.0221 30.3023Z" fill="#012B3D"/>
</svg>
