<svg width="48" height="48" viewBox="0 0 48 48" fill="none" xmlns="http://www.w3.org/2000/svg">
<g clip-path="url(#clip0_576_178)">
<path d="M32 48.0001C26.7467 48.0001 22.08 46.5068 18 43.5201C13.92 40.5334 11.0133 36.6934 9.33333 31.9734H0V26.6401H8.13333C8.05333 26.1601 8 25.7068 8 25.3068V22.6401C8 22.2401 8.05333 21.7868 8.13333 21.3068H0V15.9734H9.33333C11.0133 11.2534 13.92 7.41344 18 4.42678C22.08 1.44011 26.7467 -0.0532227 32 -0.0532227C35.0667 -0.0532227 37.9733 0.480111 40.6933 1.54678C43.4133 2.61344 45.8667 4.13344 48 6.08011L43.3333 10.7468C41.7867 9.46678 40.0267 8.45344 38.1067 7.70678C36.1867 6.96011 34.1333 6.61344 32 6.61344C28.6667 6.61344 25.6267 7.46678 22.9067 9.17344C20.1867 10.8801 18.1067 13.1468 16.6667 15.9468H32V21.2801H14.9333C14.8533 21.7601 14.7733 22.2134 14.72 22.6134C14.6667 23.0134 14.64 23.4668 14.64 23.9468C14.64 24.4268 14.64 24.8801 14.72 25.2801C14.8 25.6801 14.8267 26.1334 14.9333 26.6134H32V31.9468H16.6667C18.08 34.7468 20.16 37.0134 22.9067 38.7201C25.6533 40.4268 28.6667 41.2801 32 41.2801C34.1333 41.2801 36.1867 40.9068 38.16 40.1868C40.1333 39.4668 41.8667 38.4534 43.3333 37.1468L48 41.8134C45.8667 43.7601 43.44 45.2801 40.6933 46.3468C37.9467 47.4134 35.0667 47.9468 32 47.9468V48.0001Z" fill="#012B3D"/>
</g>
<defs>
<clipPath id="clip0_576_178">
<rect width="48" height="48" fill="white"/>
</clipPath>
</defs>
</svg>
