<svg width="491" height="51" viewBox="0 0 491 51" fill="none" xmlns="http://www.w3.org/2000/svg">
<path d="M19.6396 16.7026C21.4185 16.7026 22.8457 17.1442 23.9277 17.979L24.1396 18.1519C25.1036 18.9955 25.7288 20.1304 25.999 21.5562C26.0467 21.8922 25.9788 22.1775 25.8076 22.4341C25.6471 22.6687 25.4237 22.8222 25.1338 22.894L24.8496 22.9292C24.6566 22.9257 24.4655 22.8648 24.2959 22.7446L24.2881 22.7388L24.2793 22.7339L24.1533 22.6333C24.0158 22.5025 23.8584 22.276 23.7979 21.9087L23.7959 21.9019L23.7949 21.894L23.707 21.52C23.472 20.6718 23.0266 19.9901 22.3379 19.5132C21.6155 19.0052 20.6941 18.772 19.6377 18.772C18.222 18.772 17.0733 19.2796 16.1797 20.3208L16.1748 20.3267C15.2213 21.4756 14.7657 23.1054 14.7656 25.0864C14.7656 27.1133 15.216 28.7552 16.1816 29.8921H16.1826C17.0511 30.9099 18.2024 31.3988 19.6377 31.3989C20.6962 31.3989 21.6152 31.166 22.3076 30.646L22.3105 30.644C23.0918 30.0489 23.5972 29.0776 23.8643 27.8491L23.8662 27.8403L23.8682 27.8325C23.9268 27.5088 24.1145 27.2367 24.3848 27.0776C24.5688 26.9778 24.7415 26.9351 24.9189 26.9321L25.2344 26.9673C25.495 27.0273 25.712 27.1624 25.8721 27.3618L25.9385 27.4526C26.0521 27.6277 26.1879 27.9455 26.0801 28.4204C25.7203 29.9062 25.0592 31.0689 24.1289 31.9106L24.126 31.9136C23.0209 32.9313 21.5242 33.4722 19.6396 33.4722C17.5175 33.4721 15.8145 32.7014 14.5342 31.187L14.5303 31.1821C13.2499 29.7004 12.5743 27.6653 12.5742 25.0874C12.5742 22.5695 13.2481 20.5448 14.5371 19.0229L14.5391 19.02C15.8237 17.483 17.5278 16.7027 19.6396 16.7026Z" fill="#012B3D"/>
<path d="M19.6396 16.7026C21.4185 16.7026 22.8457 17.1442 23.9277 17.979L24.1396 18.1519C25.1036 18.9955 25.7288 20.1304 25.999 21.5562C26.0467 21.8922 25.9788 22.1775 25.8076 22.4341C25.6471 22.6687 25.4237 22.8222 25.1338 22.894L24.8496 22.9292C24.6566 22.9257 24.4655 22.8648 24.2959 22.7446L24.2881 22.7388L24.2793 22.7339L24.1533 22.6333C24.0158 22.5025 23.8584 22.276 23.7979 21.9087L23.7959 21.9019L23.7949 21.894L23.707 21.52C23.472 20.6718 23.0266 19.9901 22.3379 19.5132C21.6155 19.0052 20.6941 18.772 19.6377 18.772C18.222 18.772 17.0733 19.2796 16.1797 20.3208L16.1748 20.3267C15.2213 21.4756 14.7657 23.1054 14.7656 25.0864C14.7656 27.1133 15.216 28.7552 16.1816 29.8921H16.1826C17.0511 30.9099 18.2024 31.3988 19.6377 31.3989C20.6962 31.3989 21.6152 31.166 22.3076 30.646L22.3105 30.644C23.0918 30.0489 23.5972 29.0776 23.8643 27.8491L23.8662 27.8403L23.8682 27.8325C23.9268 27.5088 24.1145 27.2367 24.3848 27.0776C24.5688 26.9778 24.7415 26.9351 24.9189 26.9321L25.2344 26.9673C25.495 27.0273 25.712 27.1624 25.8721 27.3618L25.9385 27.4526C26.0521 27.6277 26.1879 27.9455 26.0801 28.4204C25.7203 29.9062 25.0592 31.0689 24.1289 31.9106L24.126 31.9136C23.0209 32.9313 21.5242 33.4722 19.6396 33.4722C17.5175 33.4721 15.8145 32.7014 14.5342 31.187L14.5303 31.1821C13.2499 29.7004 12.5743 27.6653 12.5742 25.0874C12.5742 22.5695 13.2481 20.5448 14.5371 19.0229L14.5391 19.02C15.8237 17.483 17.5278 16.7027 19.6396 16.7026Z" stroke="#012B3D"/>
<path d="M19.6396 16.7026C21.4185 16.7026 22.8457 17.1442 23.9277 17.979L24.1396 18.1519C25.1036 18.9955 25.7288 20.1304 25.999 21.5562C26.0467 21.8922 25.9788 22.1775 25.8076 22.4341C25.6471 22.6687 25.4237 22.8222 25.1338 22.894L24.8496 22.9292C24.6566 22.9257 24.4655 22.8648 24.2959 22.7446L24.2881 22.7388L24.2793 22.7339L24.1533 22.6333C24.0158 22.5025 23.8584 22.276 23.7979 21.9087L23.7959 21.9019L23.7949 21.894L23.707 21.52C23.472 20.6718 23.0266 19.9901 22.3379 19.5132C21.6155 19.0052 20.6941 18.772 19.6377 18.772C18.222 18.772 17.0733 19.2796 16.1797 20.3208L16.1748 20.3267C15.2213 21.4756 14.7657 23.1054 14.7656 25.0864C14.7656 27.1133 15.216 28.7552 16.1816 29.8921H16.1826C17.0511 30.9099 18.2024 31.3988 19.6377 31.3989C20.6962 31.3989 21.6152 31.166 22.3076 30.646L22.3105 30.644C23.0918 30.0489 23.5972 29.0776 23.8643 27.8491L23.8662 27.8403L23.8682 27.8325C23.9268 27.5088 24.1145 27.2367 24.3848 27.0776C24.5688 26.9778 24.7415 26.9351 24.9189 26.9321L25.2344 26.9673C25.495 27.0273 25.712 27.1624 25.8721 27.3618L25.9385 27.4526C26.0521 27.6277 26.1879 27.9455 26.0801 28.4204C25.7203 29.9062 25.0592 31.0689 24.1289 31.9106L24.126 31.9136C23.0209 32.9313 21.5242 33.4722 19.6396 33.4722C17.5175 33.4721 15.8145 32.7014 14.5342 31.187L14.5303 31.1821C13.2499 29.7004 12.5743 27.6653 12.5742 25.0874C12.5742 22.5695 13.2481 20.5448 14.5371 19.0229L14.5391 19.02C15.8237 17.483 17.5278 16.7027 19.6396 16.7026Z" stroke="black" stroke-opacity="0.2"/>
<path d="M35.9316 16.7026C38.3479 16.7027 40.2101 17.5866 41.5234 19.312L41.5244 19.313C42.6697 20.8083 43.2646 22.7407 43.2646 25.0864C43.2646 27.4317 42.6664 29.3555 41.5225 30.8413L41.5195 30.8452C40.2076 32.579 38.346 33.4711 35.9316 33.4712C33.6553 33.4712 31.8714 32.6873 30.5713 31.1548L30.3174 30.8384C29.199 29.3529 28.6182 27.427 28.6182 25.0864C28.6182 22.7479 29.1994 20.8173 30.3135 19.3218C31.6341 17.587 33.5021 16.7026 35.9316 16.7026ZM35.9316 18.7524C34.234 18.7524 32.923 19.3449 32.0264 20.5962C31.2016 21.737 30.8125 23.2623 30.8125 25.0864C30.8125 26.9009 31.2057 28.4226 32.0244 29.5708L32.0254 29.5718C32.9221 30.8244 34.2332 31.4185 35.9316 31.4185C37.6222 31.4184 38.9316 30.8236 39.8398 29.5679V29.5669C40.6719 28.4109 41.0713 26.8888 41.0713 25.0864C41.0713 23.2718 40.6763 21.7475 39.8418 20.6011H39.8408C38.9295 19.347 37.6219 18.7525 35.9316 18.7524Z" fill="#012B3D"/>
<path d="M35.9316 16.7026C38.3479 16.7027 40.2101 17.5866 41.5234 19.312L41.5244 19.313C42.6697 20.8083 43.2646 22.7407 43.2646 25.0864C43.2646 27.4317 42.6664 29.3555 41.5225 30.8413L41.5195 30.8452C40.2076 32.579 38.346 33.4711 35.9316 33.4712C33.6553 33.4712 31.8714 32.6873 30.5713 31.1548L30.3174 30.8384C29.199 29.3529 28.6182 27.427 28.6182 25.0864C28.6182 22.7479 29.1994 20.8173 30.3135 19.3218C31.6341 17.587 33.5021 16.7026 35.9316 16.7026ZM35.9316 18.7524C34.234 18.7524 32.923 19.3449 32.0264 20.5962C31.2016 21.737 30.8125 23.2623 30.8125 25.0864C30.8125 26.9009 31.2057 28.4226 32.0244 29.5708L32.0254 29.5718C32.9221 30.8244 34.2332 31.4185 35.9316 31.4185C37.6222 31.4184 38.9316 30.8236 39.8398 29.5679V29.5669C40.6719 28.4109 41.0713 26.8888 41.0713 25.0864C41.0713 23.2718 40.6763 21.7475 39.8418 20.6011H39.8408C38.9295 19.347 37.6219 18.7525 35.9316 18.7524Z" stroke="#012B3D"/>
<path d="M35.9316 16.7026C38.3479 16.7027 40.2101 17.5866 41.5234 19.312L41.5244 19.313C42.6697 20.8083 43.2646 22.7407 43.2646 25.0864C43.2646 27.4317 42.6664 29.3555 41.5225 30.8413L41.5195 30.8452C40.2076 32.579 38.346 33.4711 35.9316 33.4712C33.6553 33.4712 31.8714 32.6873 30.5713 31.1548L30.3174 30.8384C29.199 29.3529 28.6182 27.427 28.6182 25.0864C28.6182 22.7479 29.1994 20.8173 30.3135 19.3218C31.6341 17.587 33.5021 16.7026 35.9316 16.7026ZM35.9316 18.7524C34.234 18.7524 32.923 19.3449 32.0264 20.5962C31.2016 21.737 30.8125 23.2623 30.8125 25.0864C30.8125 26.9009 31.2057 28.4226 32.0244 29.5708L32.0254 29.5718C32.9221 30.8244 34.2332 31.4185 35.9316 31.4185C37.6222 31.4184 38.9316 30.8236 39.8398 29.5679V29.5669C40.6719 28.4109 41.0713 26.8888 41.0713 25.0864C41.0713 23.2718 40.6763 21.7475 39.8418 20.6011H39.8408C38.9295 19.347 37.6219 18.7525 35.9316 18.7524Z" stroke="black" stroke-opacity="0.2"/>
<path d="M49.1309 26.1533C50.2555 26.1508 51.3553 26.5478 52.0908 27.3076C52.76 28.0045 53.1006 28.8598 53.1006 29.8721C53.1006 30.9026 52.8235 31.7432 52.2988 32.4004L52.1904 32.5293L52.1865 32.5332C51.8481 32.9262 51.201 33.4345 50.0947 34.1387L50.084 34.1445L50.0742 34.1523L49.8418 34.3174C48.7798 34.9812 48.2252 35.4661 47.9258 35.8174L47.2236 36.6416H52.2061C52.4845 36.6416 52.7374 36.7331 52.9375 36.8965L53.0205 36.9707C53.2265 37.1771 53.3417 37.4549 53.3418 37.7627C53.3418 38.0575 53.2287 38.3315 53.0176 38.5449L53.0088 38.5537L53.001 38.5635C52.8391 38.7442 52.5471 38.8848 52.207 38.8848H44.9316L44.9258 38.1904V38.1895C44.9149 36.9392 45.2286 35.8462 45.8398 34.9219C46.3814 34.1087 47.2253 33.3399 48.3809 32.6445L48.3867 32.6416C49.5792 31.9026 50.0599 31.4829 50.2607 31.2627L50.2656 31.2578C50.6047 30.8759 50.7539 30.4138 50.7539 29.873C50.7539 29.6252 50.7114 29.4163 50.6348 29.2383C50.5577 29.0594 50.4564 28.9366 50.376 28.8516L50.375 28.8496L50.291 28.7686C50.1985 28.6856 50.078 28.5994 49.918 28.5303C49.7079 28.4395 49.4556 28.3887 49.1475 28.3887C48.8455 28.3887 48.5971 28.4368 48.3906 28.5264C48.1812 28.6173 48.0423 28.7388 47.9453 28.8428C47.8624 28.9309 47.759 29.0561 47.6807 29.2363C47.6024 29.4166 47.5606 29.6259 47.5605 29.873V30.3105C47.5605 30.6609 47.423 30.9695 47.1797 31.1914L47.1621 31.207C47.0048 31.3642 46.7224 31.4785 46.3896 31.4785C46.0678 31.4785 45.7659 31.3708 45.5615 31.1758C45.379 30.9718 45.21 30.6949 45.21 30.2637V29.873C45.21 28.8571 45.5462 28.0042 46.2031 27.3145L46.2051 27.3135C46.9182 26.5584 48.0055 26.1559 49.1309 26.1533Z" fill="#012B3D"/>
<path d="M49.1309 26.1533C50.2555 26.1508 51.3553 26.5478 52.0908 27.3076C52.76 28.0045 53.1006 28.8598 53.1006 29.8721C53.1006 30.9026 52.8235 31.7432 52.2988 32.4004L52.1904 32.5293L52.1865 32.5332C51.8481 32.9262 51.201 33.4345 50.0947 34.1387L50.084 34.1445L50.0742 34.1523L49.8418 34.3174C48.7798 34.9812 48.2252 35.4661 47.9258 35.8174L47.2236 36.6416H52.2061C52.4845 36.6416 52.7374 36.7331 52.9375 36.8965L53.0205 36.9707C53.2265 37.1771 53.3417 37.4549 53.3418 37.7627C53.3418 38.0575 53.2287 38.3315 53.0176 38.5449L53.0088 38.5537L53.001 38.5635C52.8391 38.7442 52.5471 38.8848 52.207 38.8848H44.9316L44.9258 38.1904V38.1895C44.9149 36.9392 45.2286 35.8462 45.8398 34.9219C46.3814 34.1087 47.2253 33.3399 48.3809 32.6445L48.3867 32.6416C49.5792 31.9026 50.0599 31.4829 50.2607 31.2627L50.2656 31.2578C50.6047 30.8759 50.7539 30.4138 50.7539 29.873C50.7539 29.6252 50.7114 29.4163 50.6348 29.2383C50.5577 29.0594 50.4564 28.9366 50.376 28.8516L50.375 28.8496L50.291 28.7686C50.1985 28.6856 50.078 28.5994 49.918 28.5303C49.7079 28.4395 49.4556 28.3887 49.1475 28.3887C48.8455 28.3887 48.5971 28.4368 48.3906 28.5264C48.1812 28.6173 48.0423 28.7388 47.9453 28.8428C47.8624 28.9309 47.759 29.0561 47.6807 29.2363C47.6024 29.4166 47.5606 29.6259 47.5605 29.873V30.3105C47.5605 30.6609 47.423 30.9695 47.1797 31.1914L47.1621 31.207C47.0048 31.3642 46.7224 31.4785 46.3896 31.4785C46.0678 31.4785 45.7659 31.3708 45.5615 31.1758C45.379 30.9718 45.21 30.6949 45.21 30.2637V29.873C45.21 28.8571 45.5462 28.0042 46.2031 27.3145L46.2051 27.3135C46.9182 26.5584 48.0055 26.1559 49.1309 26.1533Z" stroke="#012B3D"/>
<path d="M49.1309 26.1533C50.2555 26.1508 51.3553 26.5478 52.0908 27.3076C52.76 28.0045 53.1006 28.8598 53.1006 29.8721C53.1006 30.9026 52.8235 31.7432 52.2988 32.4004L52.1904 32.5293L52.1865 32.5332C51.8481 32.9262 51.201 33.4345 50.0947 34.1387L50.084 34.1445L50.0742 34.1523L49.8418 34.3174C48.7798 34.9812 48.2252 35.4661 47.9258 35.8174L47.2236 36.6416H52.2061C52.4845 36.6416 52.7374 36.7331 52.9375 36.8965L53.0205 36.9707C53.2265 37.1771 53.3417 37.4549 53.3418 37.7627C53.3418 38.0575 53.2287 38.3315 53.0176 38.5449L53.0088 38.5537L53.001 38.5635C52.8391 38.7442 52.5471 38.8848 52.207 38.8848H44.9316L44.9258 38.1904V38.1895C44.9149 36.9392 45.2286 35.8462 45.8398 34.9219C46.3814 34.1087 47.2253 33.3399 48.3809 32.6445L48.3867 32.6416C49.5792 31.9026 50.0599 31.4829 50.2607 31.2627L50.2656 31.2578C50.6047 30.8759 50.7539 30.4138 50.7539 29.873C50.7539 29.6252 50.7114 29.4163 50.6348 29.2383C50.5577 29.0594 50.4564 28.9366 50.376 28.8516L50.375 28.8496L50.291 28.7686C50.1985 28.6856 50.078 28.5994 49.918 28.5303C49.7079 28.4395 49.4556 28.3887 49.1475 28.3887C48.8455 28.3887 48.5971 28.4368 48.3906 28.5264C48.1812 28.6173 48.0423 28.7388 47.9453 28.8428C47.8624 28.9309 47.759 29.0561 47.6807 29.2363C47.6024 29.4166 47.5606 29.6259 47.5605 29.873V30.3105C47.5605 30.6609 47.423 30.9695 47.1797 31.1914L47.1621 31.207C47.0048 31.3642 46.7224 31.4785 46.3896 31.4785C46.0678 31.4785 45.7659 31.3708 45.5615 31.1758C45.379 30.9718 45.21 30.6949 45.21 30.2637V29.873C45.21 28.8571 45.5462 28.0042 46.2031 27.3145L46.2051 27.3135C46.9182 26.5584 48.0055 26.1559 49.1309 26.1533Z" stroke="black" stroke-opacity="0.2"/>
<path d="M30.4004 0.5C40.7381 0.500171 49.8478 7.29297 52.8496 17.127L52.9238 17.3691L53.1621 17.4531C59.3831 19.6395 63.5 25.3835 63.5 32C63.5 40.5462 56.5462 47.5 48 47.5C45.3443 47.5 42.7313 46.8042 40.3926 45.4775L40.1729 45.3525L39.9414 45.4561C34.8042 47.7567 29.0079 48.1323 23.5986 46.4834L23.4404 46.4355L23.2842 46.4912C21.409 47.1637 19.4963 47.5 17.5996 47.5C8.17256 47.4998 0.500211 39.8274 0.5 30.4004C0.5 24.6668 3.34301 19.4065 8.13672 16.2139L8.27344 16.123L8.3291 15.9688C11.7049 6.69352 20.5048 0.5 30.4004 0.5ZM30.4004 2.7002C21.4067 2.7002 13.411 8.34392 10.3701 16.791L10.2295 17.1953L10.1025 17.5693L9.7666 17.7783C5.34496 20.5285 2.7002 25.247 2.7002 30.4004C2.70041 38.6164 9.38349 45.2997 17.5996 45.2988C19.2928 45.2988 20.9998 44.985 22.6748 44.3721L23.0098 44.2461L23.376 44.1025L23.752 44.2275H23.7529C29.045 45.9686 34.7619 45.568 39.7539 43.1104L40.3125 42.8379L40.8359 43.1738C42.9993 44.5654 45.4779 45.2998 48 45.2998C55.3354 45.2998 61.2998 39.3354 61.2998 32C61.2998 26.078 57.4439 20.9727 51.7158 19.2939L51.1191 19.1191L50.9609 18.5215C48.4878 9.20613 40.033 2.70037 30.4004 2.7002Z" fill="#012B3D"/>
<path d="M30.4004 0.5C40.7381 0.500171 49.8478 7.29297 52.8496 17.127L52.9238 17.3691L53.1621 17.4531C59.3831 19.6395 63.5 25.3835 63.5 32C63.5 40.5462 56.5462 47.5 48 47.5C45.3443 47.5 42.7313 46.8042 40.3926 45.4775L40.1729 45.3525L39.9414 45.4561C34.8042 47.7567 29.0079 48.1323 23.5986 46.4834L23.4404 46.4355L23.2842 46.4912C21.409 47.1637 19.4963 47.5 17.5996 47.5C8.17256 47.4998 0.500211 39.8274 0.5 30.4004C0.5 24.6668 3.34301 19.4065 8.13672 16.2139L8.27344 16.123L8.3291 15.9688C11.7049 6.69352 20.5048 0.5 30.4004 0.5ZM30.4004 2.7002C21.4067 2.7002 13.411 8.34392 10.3701 16.791L10.2295 17.1953L10.1025 17.5693L9.7666 17.7783C5.34496 20.5285 2.7002 25.247 2.7002 30.4004C2.70041 38.6164 9.38349 45.2997 17.5996 45.2988C19.2928 45.2988 20.9998 44.985 22.6748 44.3721L23.0098 44.2461L23.376 44.1025L23.752 44.2275H23.7529C29.045 45.9686 34.7619 45.568 39.7539 43.1104L40.3125 42.8379L40.8359 43.1738C42.9993 44.5654 45.4779 45.2998 48 45.2998C55.3354 45.2998 61.2998 39.3354 61.2998 32C61.2998 26.078 57.4439 20.9727 51.7158 19.2939L51.1191 19.1191L50.9609 18.5215C48.4878 9.20613 40.033 2.70037 30.4004 2.7002Z" stroke="#012B3D"/>
<path d="M30.4004 0.5C40.7381 0.500171 49.8478 7.29297 52.8496 17.127L52.9238 17.3691L53.1621 17.4531C59.3831 19.6395 63.5 25.3835 63.5 32C63.5 40.5462 56.5462 47.5 48 47.5C45.3443 47.5 42.7313 46.8042 40.3926 45.4775L40.1729 45.3525L39.9414 45.4561C34.8042 47.7567 29.0079 48.1323 23.5986 46.4834L23.4404 46.4355L23.2842 46.4912C21.409 47.1637 19.4963 47.5 17.5996 47.5C8.17256 47.4998 0.500211 39.8274 0.5 30.4004C0.5 24.6668 3.34301 19.4065 8.13672 16.2139L8.27344 16.123L8.3291 15.9688C11.7049 6.69352 20.5048 0.5 30.4004 0.5ZM30.4004 2.7002C21.4067 2.7002 13.411 8.34392 10.3701 16.791L10.2295 17.1953L10.1025 17.5693L9.7666 17.7783C5.34496 20.5285 2.7002 25.247 2.7002 30.4004C2.70041 38.6164 9.38349 45.2997 17.5996 45.2988C19.2928 45.2988 20.9998 44.985 22.6748 44.3721L23.0098 44.2461L23.376 44.1025L23.752 44.2275H23.7529C29.045 45.9686 34.7619 45.568 39.7539 43.1104L40.3125 42.8379L40.8359 43.1738C42.9993 44.5654 45.4779 45.2998 48 45.2998C55.3354 45.2998 61.2998 39.3354 61.2998 32C61.2998 26.078 57.4439 20.9727 51.7158 19.2939L51.1191 19.1191L50.9609 18.5215C48.4878 9.20613 40.033 2.70037 30.4004 2.7002Z" stroke="black" stroke-opacity="0.2"/>
<path d="M102.093 42.576C96.9088 42.576 92.9088 41.2 90.0928 38.448C87.3088 35.664 85.9168 31.36 85.9168 25.536C85.9168 21.664 86.5888 18.48 87.9328 15.984C89.2768 13.456 91.2288 11.584 93.7888 10.368C96.3488 9.12 99.4208 8.496 103.005 8.496C105.149 8.496 107.165 8.736 109.053 9.216C110.941 9.696 112.605 10.432 114.045 11.424C115.517 12.416 116.653 13.664 117.453 15.168C118.285 16.64 118.701 18.4 118.701 20.448H111.453C111.453 19.456 111.229 18.576 110.781 17.808C110.365 17.04 109.773 16.4 109.005 15.888C108.237 15.376 107.357 14.992 106.365 14.736C105.373 14.48 104.333 14.352 103.245 14.352C101.581 14.352 100.125 14.576 98.8768 15.024C97.6288 15.44 96.5888 16.096 95.7568 16.992C94.9568 17.856 94.3488 18.944 93.9328 20.256C93.5168 21.568 93.3088 23.088 93.3088 24.816V26.256C93.3088 28.656 93.6608 30.624 94.3648 32.16C95.0688 33.696 96.1248 34.848 97.5328 35.616C98.9408 36.352 100.685 36.72 102.765 36.72C104.493 36.72 106.013 36.464 107.325 35.952C108.669 35.408 109.709 34.64 110.445 33.648C111.213 32.656 111.597 31.44 111.597 30V29.664H101.757V24.192H118.701V42H113.997L113.373 38.448C112.413 39.376 111.373 40.144 110.253 40.752C109.165 41.36 107.949 41.808 106.605 42.096C105.261 42.416 103.757 42.576 102.093 42.576ZM125.601 42V9.072H132.753V22.128H147.345V9.072H154.497V42H147.345V28.176H132.753V42H125.601ZM176.765 42.576C171.581 42.576 167.581 41.2 164.765 38.448C161.981 35.664 160.589 31.36 160.589 25.536C160.589 21.664 161.261 18.48 162.605 15.984C163.949 13.456 165.901 11.584 168.461 10.368C171.021 9.12 174.093 8.496 177.677 8.496C179.821 8.496 181.837 8.736 183.725 9.216C185.613 9.696 187.277 10.432 188.717 11.424C190.189 12.416 191.325 13.664 192.125 15.168C192.957 16.64 193.373 18.4 193.373 20.448H186.125C186.125 19.456 185.901 18.576 185.453 17.808C185.037 17.04 184.445 16.4 183.677 15.888C182.909 15.376 182.029 14.992 181.037 14.736C180.045 14.48 179.005 14.352 177.917 14.352C176.253 14.352 174.797 14.576 173.549 15.024C172.301 15.44 171.261 16.096 170.429 16.992C169.629 17.856 169.021 18.944 168.605 20.256C168.189 21.568 167.981 23.088 167.981 24.816V26.256C167.981 28.656 168.333 30.624 169.037 32.16C169.741 33.696 170.797 34.848 172.205 35.616C173.613 36.352 175.357 36.72 177.437 36.72C179.165 36.72 180.685 36.464 181.997 35.952C183.341 35.408 184.381 34.64 185.117 33.648C185.885 32.656 186.269 31.44 186.269 30V29.664H176.429V24.192H193.373V42H188.669L188.045 38.448C187.085 39.376 186.045 40.144 184.925 40.752C183.837 41.36 182.621 41.808 181.277 42.096C179.933 42.416 178.429 42.576 176.765 42.576ZM209.695 42V9.072H235.999V14.928H216.895V22.272H233.791V28.08H216.895V36.096H236.287V42H209.695ZM242.461 42V9.072H253.357L258.061 25.92C258.253 26.528 258.445 27.248 258.637 28.08C258.829 28.912 259.021 29.744 259.213 30.576C259.437 31.376 259.613 32.096 259.741 32.736H260.125C260.189 32.192 260.301 31.552 260.461 30.816C260.621 30.048 260.797 29.232 260.989 28.368C261.181 27.504 261.389 26.672 261.613 25.872L266.317 9.072H277.021V42H269.965V26.4C269.965 24.96 269.965 23.52 269.965 22.08C269.997 20.608 270.029 19.328 270.061 18.24C270.125 17.152 270.157 16.448 270.157 16.128H269.773C269.709 16.48 269.549 17.136 269.293 18.096C269.069 19.024 268.813 20.016 268.525 21.072C268.269 22.128 268.029 23.04 267.805 23.808L262.669 42H256.429L251.245 23.856C251.053 23.184 250.829 22.4 250.573 21.504C250.349 20.576 250.125 19.632 249.901 18.672C249.709 17.68 249.517 16.832 249.325 16.128H248.941C248.973 16.992 249.005 18.032 249.037 19.248C249.069 20.432 249.101 21.664 249.133 22.944C249.165 24.192 249.181 25.344 249.181 26.4V42H242.461ZM284.32 42V9.072H291.472V42H284.32ZM311.573 42.576C309.653 42.576 307.829 42.384 306.101 42C304.373 41.616 302.837 41.008 301.493 40.176C300.181 39.312 299.141 38.24 298.373 36.96C297.637 35.648 297.269 34.064 297.269 32.208C297.269 32.048 297.269 31.888 297.269 31.728C297.269 31.536 297.285 31.392 297.317 31.296H304.421C304.389 31.392 304.373 31.52 304.373 31.68C304.373 31.84 304.373 31.984 304.373 32.112C304.373 33.136 304.645 34 305.189 34.704C305.765 35.408 306.597 35.936 307.685 36.288C308.773 36.64 310.037 36.816 311.477 36.816C312.405 36.816 313.221 36.768 313.925 36.672C314.661 36.544 315.301 36.384 315.845 36.192C316.421 35.968 316.885 35.712 317.237 35.424C317.621 35.136 317.893 34.8 318.053 34.416C318.245 34.032 318.341 33.6 318.341 33.12C318.341 32.256 318.053 31.552 317.477 31.008C316.933 30.464 316.165 30 315.173 29.616C314.213 29.232 313.125 28.88 311.909 28.56C310.693 28.24 309.445 27.92 308.165 27.6C306.885 27.248 305.637 26.832 304.421 26.352C303.205 25.84 302.117 25.232 301.157 24.528C300.197 23.824 299.429 22.928 298.853 21.84C298.277 20.752 297.989 19.44 297.989 17.904C297.989 16.272 298.325 14.864 298.997 13.68C299.701 12.496 300.677 11.52 301.925 10.752C303.173 9.984 304.613 9.424 306.245 9.072C307.877 8.688 309.653 8.496 311.573 8.496C313.365 8.496 315.061 8.688 316.661 9.072C318.261 9.424 319.669 10 320.885 10.8C322.101 11.6 323.045 12.608 323.717 13.824C324.421 15.04 324.773 16.48 324.773 18.144V18.72H317.813V18.336C317.813 17.472 317.557 16.736 317.045 16.128C316.533 15.52 315.813 15.04 314.885 14.688C313.957 14.336 312.869 14.16 311.621 14.16C310.277 14.16 309.125 14.288 308.165 14.544C307.237 14.8 306.517 15.184 306.005 15.696C305.525 16.176 305.285 16.752 305.285 17.424C305.285 18.192 305.557 18.832 306.101 19.344C306.677 19.824 307.445 20.256 308.405 20.64C309.397 20.992 310.501 21.312 311.717 21.6C312.933 21.888 314.181 22.208 315.461 22.56C316.741 22.912 317.989 23.328 319.205 23.808C320.421 24.288 321.509 24.896 322.469 25.632C323.429 26.336 324.197 27.216 324.773 28.272C325.349 29.328 325.637 30.592 325.637 32.064C325.637 34.592 325.029 36.624 323.813 38.16C322.597 39.696 320.933 40.816 318.821 41.52C316.709 42.224 314.293 42.576 311.573 42.576ZM344.152 42.576C342.232 42.576 340.408 42.384 338.68 42C336.952 41.616 335.416 41.008 334.072 40.176C332.76 39.312 331.72 38.24 330.952 36.96C330.216 35.648 329.848 34.064 329.848 32.208C329.848 32.048 329.848 31.888 329.848 31.728C329.848 31.536 329.864 31.392 329.896 31.296H337C336.968 31.392 336.952 31.52 336.952 31.68C336.952 31.84 336.952 31.984 336.952 32.112C336.952 33.136 337.224 34 337.768 34.704C338.344 35.408 339.176 35.936 340.264 36.288C341.352 36.64 342.616 36.816 344.056 36.816C344.984 36.816 345.8 36.768 346.504 36.672C347.24 36.544 347.88 36.384 348.424 36.192C349 35.968 349.464 35.712 349.816 35.424C350.2 35.136 350.472 34.8 350.632 34.416C350.824 34.032 350.92 33.6 350.92 33.12C350.92 32.256 350.632 31.552 350.056 31.008C349.512 30.464 348.744 30 347.752 29.616C346.792 29.232 345.704 28.88 344.488 28.56C343.272 28.24 342.024 27.92 340.744 27.6C339.464 27.248 338.216 26.832 337 26.352C335.784 25.84 334.696 25.232 333.736 24.528C332.776 23.824 332.008 22.928 331.432 21.84C330.856 20.752 330.568 19.44 330.568 17.904C330.568 16.272 330.904 14.864 331.576 13.68C332.28 12.496 333.256 11.52 334.504 10.752C335.752 9.984 337.192 9.424 338.824 9.072C340.456 8.688 342.232 8.496 344.152 8.496C345.944 8.496 347.64 8.688 349.24 9.072C350.84 9.424 352.248 10 353.464 10.8C354.68 11.6 355.624 12.608 356.296 13.824C357 15.04 357.352 16.48 357.352 18.144V18.72H350.392V18.336C350.392 17.472 350.136 16.736 349.624 16.128C349.112 15.52 348.392 15.04 347.464 14.688C346.536 14.336 345.448 14.16 344.2 14.16C342.856 14.16 341.704 14.288 340.744 14.544C339.816 14.8 339.096 15.184 338.584 15.696C338.104 16.176 337.864 16.752 337.864 17.424C337.864 18.192 338.136 18.832 338.68 19.344C339.256 19.824 340.024 20.256 340.984 20.64C341.976 20.992 343.08 21.312 344.296 21.6C345.512 21.888 346.76 22.208 348.04 22.56C349.32 22.912 350.568 23.328 351.784 23.808C353 24.288 354.088 24.896 355.048 25.632C356.008 26.336 356.776 27.216 357.352 28.272C357.928 29.328 358.216 30.592 358.216 32.064C358.216 34.592 357.608 36.624 356.392 38.16C355.176 39.696 353.512 40.816 351.4 41.52C349.288 42.224 346.872 42.576 344.152 42.576ZM363.914 42V9.072H371.066V42H363.914ZM393.711 42.576C390.223 42.576 387.215 41.952 384.687 40.704C382.159 39.456 380.223 37.568 378.879 35.04C377.535 32.512 376.863 29.344 376.863 25.536C376.863 21.664 377.535 18.48 378.879 15.984C380.223 13.456 382.159 11.584 384.687 10.368C387.215 9.12 390.223 8.496 393.711 8.496C397.263 8.496 400.287 9.12 402.783 10.368C405.311 11.584 407.247 13.456 408.591 15.984C409.935 18.48 410.607 21.664 410.607 25.536C410.607 29.344 409.935 32.512 408.591 35.04C407.247 37.568 405.311 39.456 402.783 40.704C400.287 41.952 397.263 42.576 393.711 42.576ZM393.711 36.72C395.279 36.72 396.655 36.496 397.839 36.048C399.023 35.6 400.015 34.928 400.815 34.032C401.615 33.136 402.223 32.048 402.639 30.768C403.055 29.456 403.263 27.968 403.263 26.304V24.816C403.263 23.12 403.055 21.616 402.639 20.304C402.223 18.992 401.615 17.904 400.815 17.04C400.015 16.144 399.023 15.472 397.839 15.024C396.655 14.576 395.279 14.352 393.711 14.352C392.175 14.352 390.815 14.576 389.631 15.024C388.447 15.472 387.455 16.144 386.655 17.04C385.855 17.904 385.247 18.992 384.831 20.304C384.447 21.616 384.255 23.12 384.255 24.816V26.304C384.255 27.968 384.447 29.456 384.831 30.768C385.247 32.048 385.855 33.136 386.655 34.032C387.455 34.928 388.447 35.6 389.631 36.048C390.815 36.496 392.175 36.72 393.711 36.72ZM416.414 42V9.072H422.99L436.238 26.832C436.43 27.056 436.67 27.376 436.958 27.792C437.246 28.176 437.518 28.56 437.774 28.944C438.03 29.328 438.206 29.632 438.302 29.856H438.542C438.542 29.312 438.542 28.784 438.542 28.272C438.542 27.728 438.542 27.248 438.542 26.832V9.072H445.31V42H438.734L425.198 23.808C424.878 23.36 424.542 22.864 424.19 22.32C423.838 21.776 423.582 21.36 423.422 21.072H423.182C423.182 21.552 423.182 22.032 423.182 22.512C423.182 22.96 423.182 23.392 423.182 23.808V42H416.414ZM465.417 42.576C463.497 42.576 461.673 42.384 459.945 42C458.217 41.616 456.681 41.008 455.337 40.176C454.025 39.312 452.985 38.24 452.217 36.96C451.481 35.648 451.113 34.064 451.113 32.208C451.113 32.048 451.113 31.888 451.113 31.728C451.113 31.536 451.129 31.392 451.161 31.296H458.265C458.233 31.392 458.217 31.52 458.217 31.68C458.217 31.84 458.217 31.984 458.217 32.112C458.217 33.136 458.489 34 459.033 34.704C459.609 35.408 460.441 35.936 461.529 36.288C462.617 36.64 463.881 36.816 465.321 36.816C466.249 36.816 467.065 36.768 467.769 36.672C468.505 36.544 469.145 36.384 469.689 36.192C470.265 35.968 470.729 35.712 471.081 35.424C471.465 35.136 471.737 34.8 471.897 34.416C472.089 34.032 472.185 33.6 472.185 33.12C472.185 32.256 471.897 31.552 471.321 31.008C470.777 30.464 470.009 30 469.017 29.616C468.057 29.232 466.969 28.88 465.753 28.56C464.537 28.24 463.289 27.92 462.009 27.6C460.729 27.248 459.481 26.832 458.265 26.352C457.049 25.84 455.961 25.232 455.001 24.528C454.041 23.824 453.273 22.928 452.697 21.84C452.121 20.752 451.833 19.44 451.833 17.904C451.833 16.272 452.169 14.864 452.841 13.68C453.545 12.496 454.521 11.52 455.769 10.752C457.017 9.984 458.457 9.424 460.089 9.072C461.721 8.688 463.497 8.496 465.417 8.496C467.209 8.496 468.905 8.688 470.505 9.072C472.105 9.424 473.513 10 474.729 10.8C475.945 11.6 476.889 12.608 477.561 13.824C478.265 15.04 478.617 16.48 478.617 18.144V18.72H471.657V18.336C471.657 17.472 471.401 16.736 470.889 16.128C470.377 15.52 469.657 15.04 468.729 14.688C467.801 14.336 466.713 14.16 465.465 14.16C464.121 14.16 462.969 14.288 462.009 14.544C461.081 14.8 460.361 15.184 459.849 15.696C459.369 16.176 459.129 16.752 459.129 17.424C459.129 18.192 459.401 18.832 459.945 19.344C460.521 19.824 461.289 20.256 462.249 20.64C463.241 20.992 464.345 21.312 465.561 21.6C466.777 21.888 468.025 22.208 469.305 22.56C470.585 22.912 471.833 23.328 473.049 23.808C474.265 24.288 475.353 24.896 476.313 25.632C477.273 26.336 478.041 27.216 478.617 28.272C479.193 29.328 479.481 30.592 479.481 32.064C479.481 34.592 478.873 36.624 477.657 38.16C476.441 39.696 474.777 40.816 472.665 41.52C470.553 42.224 468.137 42.576 465.417 42.576Z" fill="#01243D"/>
</svg>
