<svg width="61" height="64" viewBox="0 0 61 64" fill="none" xmlns="http://www.w3.org/2000/svg">
<g clip-path="url(#clip0_448_224)">
<path d="M43.3421 57.6H46.5526V44.8H43.3421V57.6ZM44.9474 41.6C45.3647 41.6 45.75 41.44 46.0711 41.12C46.3921 40.8 46.5526 40.416 46.5526 40C46.5526 39.584 46.3921 39.2 46.0711 38.88C45.75 38.56 45.3647 38.4 44.9474 38.4C44.53 38.4 44.1447 38.56 43.8237 38.88C43.5026 39.2 43.3421 39.584 43.3421 40C43.3421 40.416 43.5026 40.8 43.8237 41.12C44.1447 41.44 44.53 41.6 44.9474 41.6ZM12.8421 38.4H24.6568C25.2347 37.184 25.9411 36.032 26.7116 34.944C27.4821 33.856 28.3489 32.896 29.3121 31.968H12.8421V38.368V38.4ZM12.8421 51.2H22.7305C22.57 50.144 22.4737 49.056 22.4737 48C22.4737 46.944 22.57 45.856 22.7305 44.8H12.8421V51.2ZM6.42105 64C4.65526 64 3.14632 63.36 1.89421 62.112C0.642105 60.864 0 59.36 0 57.6V6.4C0 4.64 0.642105 3.136 1.89421 1.888C3.14632 0.64 4.65526 0 6.42105 0H32.1053L51.3684 19.2V26.56C50.3411 26.24 49.3137 25.984 48.2221 25.824C47.1305 25.664 46.0389 25.568 44.9153 25.568V22.368H28.8626V6.4H6.42105V57.6H24.6568C25.2347 58.816 25.9411 59.968 26.7116 61.056C27.4821 62.112 28.3489 63.104 29.3121 64.032H6.42105V64ZM44.9474 32C49.3779 32 53.1663 33.568 56.3126 36.672C59.459 39.776 61 43.552 61 48C61 52.448 59.4268 56.192 56.3126 59.328C53.1984 62.464 49.41 64 44.9474 64C40.4847 64 36.7284 62.432 33.5821 59.328C30.4358 56.224 28.8947 52.448 28.8947 48C28.8947 43.552 30.4679 39.808 33.5821 36.672C36.6963 33.536 40.4847 32 44.9474 32Z" fill="white"/>
</g>
<defs>
<clipPath id="clip0_448_224">
<rect width="61" height="64" fill="white"/>
</clipPath>
</defs>
</svg>
