<svg width="457" height="367" viewBox="0 0 457 367" fill="none" xmlns="http://www.w3.org/2000/svg">
<g clip-path="url(#clip0_665_179)">
<path d="M437 0H20C8.9543 0 0 8.9543 0 20V347C0 358.046 8.9543 367 20 367H437C448.046 367 457 358.046 457 347V20C457 8.9543 448.046 0 437 0Z" fill="white"/>
<path d="M36.7091 5.58065H34.5791V4.80645C34.5791 3.81548 33.7377 3 32.7153 3H22.8638C21.8414 3 21 3.81548 21 4.80645V14.0968C21 15.0877 21.8414 15.9032 22.8638 15.9032H23.162C23.3005 17.6271 24.7808 19 26.5914 19C28.4019 19 29.8823 17.6271 30.0208 15.9032H31.6715C31.81 17.6271 33.2904 19 35.1009 19C36.9115 19 38.3919 17.6271 38.5303 15.9032H38.8285C39.8509 15.9032 40.6923 15.0877 40.6923 14.0968V9.45161C40.6923 7.31484 38.9031 5.58065 36.6985 5.58065H36.7091ZM22.5975 14.0968V4.80645C22.5975 4.66194 22.7147 4.54839 22.8638 4.54839H32.7153C32.8644 4.54839 32.9815 4.66194 32.9815 4.80645V13.0026C32.9815 13.0026 32.9283 13.0645 32.8963 13.0852C32.7366 13.2194 32.5875 13.3639 32.449 13.5187C32.4064 13.5703 32.3638 13.6116 32.3319 13.6632C32.1721 13.88 32.023 14.0968 31.9272 14.3445H29.7971C29.7971 14.3445 29.7971 14.3445 29.7971 14.3342C29.7226 14.1587 29.6161 13.9832 29.5095 13.8284C29.4776 13.7871 29.4456 13.7458 29.4137 13.6942C29.3285 13.5703 29.2326 13.4671 29.1261 13.3535C29.0835 13.3123 29.0516 13.271 29.009 13.2297C28.8705 13.1058 28.7321 12.9923 28.583 12.889C28.5617 12.8787 28.551 12.8581 28.5297 12.8477C28.37 12.7445 28.1996 12.6619 28.0292 12.5794C27.9653 12.5484 27.9014 12.5277 27.8375 12.5071C27.699 12.4555 27.5712 12.4142 27.4328 12.3832C27.3688 12.3729 27.3049 12.3523 27.241 12.3419C27.0387 12.3006 26.8257 12.28 26.6127 12.28C26.3997 12.28 26.1973 12.3006 25.9843 12.3419C25.9204 12.3523 25.8565 12.3729 25.7926 12.3832C25.6542 12.4142 25.5157 12.4555 25.3879 12.5071C25.324 12.5277 25.2601 12.5484 25.1962 12.5794C25.0258 12.6516 24.8554 12.7445 24.6956 12.8477C24.6743 12.8581 24.6637 12.8684 24.6424 12.889C24.4933 12.9923 24.3442 13.1058 24.2164 13.2297C24.1738 13.271 24.1312 13.3123 24.0992 13.3535C23.9927 13.4568 23.8969 13.5703 23.8117 13.6942C23.7797 13.7355 23.7478 13.7768 23.7158 13.8284C23.6093 13.9935 23.5135 14.1587 23.4283 14.3342C23.4283 14.3342 23.4283 14.3342 23.4283 14.3445H22.8957C22.7466 14.3445 22.6295 14.231 22.6295 14.0865L22.5975 14.0968ZM26.5914 17.4516C25.569 17.4516 24.7276 16.6361 24.7276 15.6452C24.7276 15.5213 24.7382 15.3974 24.7702 15.2839C24.8128 15.0981 24.8873 14.9226 24.9832 14.7677C24.9938 14.7368 25.0151 14.7161 25.0258 14.6852C25.1216 14.5406 25.2388 14.4065 25.3773 14.2929C25.4092 14.2723 25.4305 14.2516 25.4625 14.231C25.6009 14.1277 25.7607 14.0348 25.9311 13.9729C25.9524 13.9729 25.9843 13.9523 26.0163 13.9523C26.1973 13.8903 26.3997 13.849 26.602 13.849C26.8044 13.849 26.9961 13.8903 27.1878 13.9523C27.2197 13.9523 27.241 13.9626 27.273 13.9729C27.4434 14.0348 27.6032 14.1277 27.7416 14.231C27.7736 14.2516 27.7949 14.2723 27.8268 14.2929C27.9653 14.4065 28.0824 14.5406 28.1783 14.6852C28.1996 14.7058 28.2102 14.7368 28.2209 14.7677C28.3167 14.9329 28.3913 15.0981 28.4339 15.2839C28.4552 15.3974 28.4765 15.5213 28.4765 15.6452C28.4765 16.6361 27.6351 17.4516 26.6127 17.4516H26.5914ZM35.1116 17.4516C34.0892 17.4516 33.2478 16.6361 33.2478 15.6452C33.2478 15.5213 33.2584 15.3974 33.2904 15.2839C33.3223 15.16 33.3543 15.0361 33.4075 14.9226C33.4075 14.9226 33.4075 14.9123 33.4075 14.9019C33.4608 14.7987 33.514 14.6955 33.5886 14.6026C33.5992 14.5819 33.6205 14.5716 33.6312 14.551C33.6951 14.4684 33.759 14.3961 33.8335 14.3239C33.8549 14.3032 33.8762 14.2929 33.8975 14.2723C33.972 14.2103 34.0572 14.1484 34.1424 14.0968C34.1637 14.0865 34.1957 14.0658 34.2276 14.0555C34.3235 14.0039 34.43 13.9626 34.5365 13.9316C34.5791 13.9213 34.6217 13.9006 34.6749 13.8903C34.8134 13.8594 34.9625 13.8387 35.1116 13.8387C35.3139 13.8387 35.5056 13.88 35.6973 13.9419C35.7293 13.9419 35.7506 13.9523 35.7825 13.9626C35.9529 14.0245 36.1127 14.1174 36.2512 14.2206C36.2831 14.2413 36.3044 14.2619 36.3364 14.2826C36.4748 14.3961 36.592 14.5303 36.6878 14.6748C36.7091 14.6955 36.7198 14.7265 36.7304 14.7574C36.8263 14.9226 36.9008 15.0877 36.9434 15.2735C36.9647 15.3871 36.986 15.511 36.986 15.6348C36.986 16.6258 36.1447 17.4413 35.1222 17.4413L35.1116 17.4516ZM34.5791 10.2258V7.12903H36.7091C38.0297 7.12903 39.1054 8.17161 39.1054 9.45161V10.2258H34.5791Z" fill="#01243D"/>
<g filter="url(#filter0_d_665_179)">
<path d="M434 23H23C13.0589 23 5 31.0589 5 41V195C5 204.941 13.0589 213 23 213H434C443.941 213 452 204.941 452 195V41C452 31.0589 443.941 23 434 23Z" fill="#F0F5F9"/>
<mask id="mask0_665_179" style="mask-type:luminance" maskUnits="userSpaceOnUse" x="93" y="65" width="40" height="40">
<path d="M133 65H93V105H133V65Z" fill="white"/>
</mask>
<g mask="url(#mask0_665_179)">
<path d="M129.928 81.3737H129.575L126.812 76.922C126.314 76.1188 125.451 75.6393 124.506 75.6393H122.516C121.647 75.6393 120.939 76.3473 120.939 77.2168V82.4122V90.1428H118.972L117.482 87.1372C118.103 86.9256 118.637 86.5287 119 85.971C119.43 85.3117 119.578 84.5239 119.415 83.7525L117.21 73.2818C116.883 71.7259 115.292 70.6792 113.717 71.0039L112.976 71.1601C112.226 69.945 110.774 69.185 109.156 69.3764C108.876 69.4082 108.599 69.4703 108.329 69.561C107.507 68.5982 106.063 68.0782 104.475 68.2574C104.122 68.298 103.776 68.373 103.443 68.4819C102.716 67.8416 101.74 67.5251 100.726 67.6414C99.8133 67.7454 98.9931 68.1843 98.415 68.8766C97.8896 69.5068 97.6212 70.2783 97.6456 71.0729C97.0654 71.2087 96.54 71.4609 96.1316 71.8037C95.536 72.3033 95.2378 72.9647 95.3128 73.6191C95.3628 74.058 95.5833 74.4393 95.9098 74.7538L95.3413 74.8734C94.4521 75.0613 93.711 75.6361 93.3087 76.4482C92.9051 77.2615 92.897 78.1988 93.2857 79.0202L96.9964 86.8582C96.9816 86.8744 96.9695 86.8845 96.9538 86.9014C96.6801 87.1983 96.3257 87.6237 95.945 88.1571C93.0002 92.2833 93.3152 96.4228 94.215 99.0219C94.3517 99.417 94.7045 99.7101 95.1379 99.6832C95.6321 99.652 96.0315 99.2233 95.977 98.7312C95.7826 96.9744 95.5451 94.6302 97.7059 91.8757V94.579C97.7059 96.2733 99.0839 97.6513 100.778 97.6513H102.956C103.071 100.277 105.225 102.382 107.879 102.382C110.532 102.382 112.687 100.277 112.802 97.6513H117.903C118.018 100.277 120.172 102.382 122.825 102.382C125.48 102.382 127.635 100.277 127.75 97.6513H129.928C131.622 97.6513 133 96.2733 133 94.579V92.2192V90.1428V84.4461C133 82.7517 131.622 81.3737 129.928 81.3737ZM130.923 84.4461V90.142H123.016V83.4508H128.419H128.997H129.928C130.477 83.4508 130.923 83.8972 130.923 84.4461ZM123.016 77.7164H124.506C124.728 77.7164 124.93 77.8288 125.047 78.0173L127.13 81.3737H123.016V77.7164ZM115.881 90.1428H103.383L114.7 87.7586L115.881 90.1428ZM116.382 79.4272L117.383 84.1805C117.431 84.4082 117.387 84.6416 117.26 84.8363C117.133 85.031 116.938 85.1649 116.71 85.2129L100.839 88.5559C100.449 88.6343 100.04 88.4327 99.8717 88.0764L97.6444 83.3725L116.382 79.4272ZM97.0217 72.8644C97.3347 72.6021 98.4802 72.3539 98.4802 72.3539C98.6903 72.3424 98.8831 72.2362 99.0055 72.0653C99.1272 71.8941 99.1651 71.6765 99.1076 71.4743C99.0812 71.3816 99.0529 71.289 99.0414 71.1877C98.9832 70.6771 99.138 70.1714 99.4788 69.7637C99.827 69.3458 100.326 69.0808 100.884 69.0165C101.605 68.9393 102.293 69.2078 102.736 69.7347C102.934 69.9672 103.262 70.045 103.541 69.9239C103.886 69.7745 104.253 69.6765 104.633 69.6324C105.893 69.4858 107.046 69.9563 107.47 70.7427C107.649 71.0739 108.057 71.2018 108.391 71.0321C108.688 70.8827 108.999 70.788 109.315 70.7515C110.162 70.6588 110.941 70.9571 111.466 71.4776C111.466 71.4776 102.002 73.4739 98.1524 74.2817C98.047 74.3038 96.9386 74.4795 96.7139 73.6513C96.5806 73.1608 96.9116 72.957 97.0217 72.8644ZM95.163 78.1315C95.0481 77.8888 95.0507 77.6116 95.1697 77.3709C95.2887 77.131 95.5077 76.9611 95.7707 76.9057L114.145 73.0361C114.205 73.0234 114.266 73.0173 114.327 73.0173C114.735 73.0173 115.093 73.3079 115.178 73.7097L115.538 75.4202L95.8432 79.5677L95.163 78.1315ZM96.4524 80.8544L115.823 76.7752L116.097 78.0722L97.0352 82.0857L96.4524 80.8544ZM107.879 99.6128C106.68 99.6128 105.704 98.6371 105.704 97.4376C105.704 96.2381 106.68 95.2624 107.879 95.2624C109.078 95.2624 110.054 96.2381 110.054 97.4376C110.054 98.6371 109.078 99.6128 107.879 99.6128ZM122.825 99.6128C121.627 99.6128 120.651 98.6371 120.651 97.4376C120.651 96.2381 121.627 95.2624 122.825 95.2624C124.026 95.2624 125.002 96.2381 125.002 97.4376C125.002 98.6371 124.026 99.6128 122.825 99.6128ZM130.923 94.579C130.923 95.1279 130.477 95.5742 129.928 95.5742H127.401C126.663 93.7703 124.893 92.493 122.825 92.493C120.759 92.493 118.99 93.7703 118.252 95.5742H112.453C111.714 93.7703 109.945 92.493 107.879 92.493C105.812 92.493 104.043 93.7703 103.305 95.5742H100.778C100.229 95.5742 99.7831 95.1279 99.7831 94.579V92.2199H130.923V94.579Z" fill="#073D63"/>
</g>
<path d="M324 62C322.355 62 321 63.355 321 65V66.1426C319.28 66.5899 318 68.1416 318 70V75H324V77H318V83.3496C315.673 84.1756 314 86.393 314 89C314 91.607 315.673 93.8244 318 94.6504V100H312V102H358H360V101V100H357V81H355.936L354.936 66H351L350.133 79H353V81H334V65C334 63.355 332.645 62 331 62H324ZM324 64H331C331.565 64 332 64.435 332 65V81H328V100H326V70C326 68.1416 324.72 66.5899 323 66.1426V65C323 64.435 323.435 64 324 64ZM320 85C322.206 85 324 86.794 324 89C324 91.206 322.206 93 320 93C317.794 93 316 91.206 316 89C316 86.794 317.794 85 320 85ZM331 85H335V87H331V85ZM337 85H341V87H337V85ZM344 85H348V87H344V85ZM350 85H354V87H350V85ZM331 90H335V92H331V90ZM337 90H341V92H337V90ZM344 90H348V92H344V90ZM350 90H354V92H350V90Z" fill="#073D63"/>
</g>
<path d="M45.6953 15V7H48.8984C49.487 7 49.9779 7.08724 50.3711 7.26172C50.7643 7.4362 51.0599 7.67839 51.2578 7.98828C51.4557 8.29557 51.5547 8.64974 51.5547 9.05078C51.5547 9.36328 51.4922 9.63802 51.3672 9.875C51.2422 10.1094 51.0703 10.3021 50.8516 10.4531C50.6354 10.6016 50.388 10.707 50.1094 10.7695V10.8477C50.4141 10.8607 50.6992 10.9466 50.9648 11.1055C51.2331 11.2643 51.4505 11.487 51.6172 11.7734C51.7839 12.0573 51.8672 12.3958 51.8672 12.7891C51.8672 13.2135 51.7617 13.5924 51.5508 13.9258C51.3424 14.2565 51.0339 14.5182 50.625 14.7109C50.2161 14.9036 49.7122 15 49.1133 15H45.6953ZM47.3867 13.6172H48.7656C49.237 13.6172 49.5807 13.5273 49.7969 13.3477C50.013 13.1654 50.1211 12.9232 50.1211 12.6211C50.1211 12.3997 50.0677 12.2044 49.9609 12.0352C49.8542 11.8659 49.7018 11.7331 49.5039 11.6367C49.3086 11.5404 49.0755 11.4922 48.8047 11.4922H47.3867V13.6172ZM47.3867 10.3477H48.6406C48.8724 10.3477 49.0781 10.3073 49.2578 10.2266C49.4401 10.1432 49.5833 10.026 49.6875 9.875C49.7943 9.72396 49.8477 9.54297 49.8477 9.33203C49.8477 9.04297 49.7448 8.8099 49.5391 8.63281C49.3359 8.45573 49.0469 8.36719 48.6719 8.36719H47.3867V10.3477ZM52.9365 15V9H54.6006V15H52.9365ZM53.7725 8.22656C53.5251 8.22656 53.3128 8.14453 53.1357 7.98047C52.9613 7.8138 52.874 7.61458 52.874 7.38281C52.874 7.15365 52.9613 6.95703 53.1357 6.79297C53.3128 6.6263 53.5251 6.54297 53.7725 6.54297C54.0199 6.54297 54.2308 6.6263 54.4053 6.79297C54.5824 6.95703 54.6709 7.15365 54.6709 7.38281C54.6709 7.61458 54.5824 7.8138 54.4053 7.98047C54.2308 8.14453 54.0199 8.22656 53.7725 8.22656ZM58.6445 15.1172C58.0378 15.1172 57.513 14.9883 57.0703 14.7305C56.6302 14.4701 56.2904 14.1081 56.0508 13.6445C55.8112 13.1784 55.6914 12.638 55.6914 12.0234C55.6914 11.4036 55.8112 10.862 56.0508 10.3984C56.2904 9.93229 56.6302 9.57031 57.0703 9.3125C57.513 9.05208 58.0378 8.92188 58.6445 8.92188C59.2513 8.92188 59.7747 9.05208 60.2148 9.3125C60.6576 9.57031 60.9987 9.93229 61.2383 10.3984C61.4779 10.862 61.5977 11.4036 61.5977 12.0234C61.5977 12.638 61.4779 13.1784 61.2383 13.6445C60.9987 14.1081 60.6576 14.4701 60.2148 14.7305C59.7747 14.9883 59.2513 15.1172 58.6445 15.1172ZM58.6523 13.8281C58.9284 13.8281 59.1589 13.75 59.3438 13.5938C59.5286 13.4349 59.668 13.2187 59.7617 12.9453C59.8581 12.6719 59.9063 12.3607 59.9063 12.0117C59.9063 11.6628 59.8581 11.3516 59.7617 11.0781C59.668 10.8047 59.5286 10.5885 59.3438 10.4297C59.1589 10.2708 58.9284 10.1914 58.6523 10.1914C58.3737 10.1914 58.1393 10.2708 57.9492 10.4297C57.7617 10.5885 57.6198 10.8047 57.5234 11.0781C57.4297 11.3516 57.3828 11.6628 57.3828 12.0117C57.3828 12.3607 57.4297 12.6719 57.5234 12.9453C57.6198 13.2187 57.7617 13.4349 57.9492 13.5938C58.1393 13.75 58.3737 13.8281 58.6523 13.8281ZM62.7109 15V7H65.8672C66.4714 7 66.987 7.10807 67.4141 7.32422C67.8438 7.53776 68.1706 7.84115 68.3945 8.23438C68.6211 8.625 68.7344 9.08464 68.7344 9.61328C68.7344 10.1445 68.6198 10.6016 68.3906 10.9844C68.1615 11.3646 67.8294 11.6562 67.3945 11.8594C66.9622 12.0625 66.4388 12.1641 65.8242 12.1641H63.7109V10.8047H65.5508C65.8737 10.8047 66.1419 10.7604 66.3555 10.6719C66.569 10.5833 66.7279 10.4505 66.832 10.2734C66.9388 10.0964 66.9922 9.8763 66.9922 9.61328C66.9922 9.34766 66.9388 9.1237 66.832 8.94141C66.7279 8.75911 66.5677 8.62109 66.3516 8.52734C66.138 8.43099 65.8685 8.38281 65.543 8.38281H64.4023V15H62.7109ZM67.0313 11.3594L69.0195 15H67.1523L65.207 11.3594H67.0313ZM72.5361 15.1172C71.9189 15.1172 71.3877 14.9922 70.9424 14.7422C70.4997 14.4896 70.1585 14.1328 69.9189 13.6719C69.6794 13.2083 69.5596 12.6602 69.5596 12.0273C69.5596 11.4102 69.6794 10.8685 69.9189 10.4023C70.1585 9.9362 70.4958 9.57292 70.9307 9.3125C71.3682 9.05208 71.8812 8.92188 72.4697 8.92188C72.8656 8.92188 73.234 8.98568 73.5752 9.11328C73.9189 9.23828 74.2184 9.42708 74.4736 9.67969C74.7314 9.93229 74.932 10.25 75.0752 10.6328C75.2184 11.013 75.29 11.4583 75.29 11.9687V12.4258H70.2236V11.3945H73.7236C73.7236 11.1549 73.6715 10.9427 73.5674 10.7578C73.4632 10.5729 73.3187 10.4284 73.1338 10.3242C72.9515 10.2174 72.7393 10.1641 72.4971 10.1641C72.2445 10.1641 72.0205 10.2227 71.8252 10.3398C71.6325 10.4544 71.4814 10.6094 71.3721 10.8047C71.2627 10.9974 71.2067 11.2122 71.2041 11.4492V12.4297C71.2041 12.7266 71.2588 12.9831 71.3682 13.1992C71.4801 13.4154 71.6377 13.582 71.8408 13.6992C72.0439 13.8164 72.2848 13.875 72.5635 13.875C72.7484 13.875 72.9176 13.849 73.0713 13.7969C73.2249 13.7448 73.3564 13.6667 73.4658 13.5625C73.5752 13.4583 73.6585 13.3307 73.7158 13.1797L75.2549 13.2812C75.1768 13.651 75.0166 13.974 74.7744 14.25C74.5348 14.5234 74.2249 14.737 73.8447 14.8906C73.4671 15.0417 73.0309 15.1172 72.5361 15.1172ZM79.6025 9V10.25H75.8994V9H79.6025ZM76.7471 15V8.56641C76.7471 8.13151 76.8317 7.77083 77.001 7.48437C77.1729 7.19792 77.4072 6.98307 77.7041 6.83984C78.001 6.69661 78.3382 6.625 78.7158 6.625C78.971 6.625 79.2041 6.64453 79.415 6.68359C79.6286 6.72266 79.7874 6.75781 79.8916 6.78906L79.5947 8.03906C79.5296 8.01823 79.4489 7.9987 79.3525 7.98047C79.2588 7.96224 79.1624 7.95312 79.0635 7.95312C78.8187 7.95312 78.6481 8.01042 78.5518 8.125C78.4554 8.23698 78.4072 8.39453 78.4072 8.59766V15H76.7471ZM80.6191 15V9H82.2832V15H80.6191ZM81.4551 8.22656C81.2077 8.22656 80.9954 8.14453 80.8184 7.98047C80.6439 7.8138 80.5566 7.61458 80.5566 7.38281C80.5566 7.15365 80.6439 6.95703 80.8184 6.79297C80.9954 6.6263 81.2077 6.54297 81.4551 6.54297C81.7025 6.54297 81.9134 6.6263 82.0879 6.79297C82.265 6.95703 82.3535 7.15365 82.3535 7.38281C82.3535 7.61458 82.265 7.8138 82.0879 7.98047C81.9134 8.14453 81.7025 8.22656 81.4551 8.22656ZM85.2803 11.5313V15H83.6162V9H85.2021V10.0586H85.2725C85.4053 9.70964 85.6279 9.43359 85.9404 9.23047C86.2529 9.02474 86.6318 8.92188 87.0771 8.92188C87.4938 8.92188 87.8571 9.01302 88.167 9.19531C88.4769 9.3776 88.7178 9.63802 88.8896 9.97656C89.0615 10.3125 89.1475 10.7135 89.1475 11.1797V15H87.4834V11.4766C87.486 11.1094 87.3923 10.8229 87.2021 10.6172C87.012 10.4089 86.7503 10.3047 86.417 10.3047C86.193 10.3047 85.9951 10.3529 85.8232 10.4492C85.654 10.5456 85.5212 10.6862 85.4248 10.8711C85.3311 11.0534 85.2829 11.2734 85.2803 11.5313ZM93.1934 15.1172C92.5762 15.1172 92.0449 14.9922 91.5996 14.7422C91.1569 14.4896 90.8158 14.1328 90.5762 13.6719C90.3366 13.2083 90.2168 12.6602 90.2168 12.0273C90.2168 11.4102 90.3366 10.8685 90.5762 10.4023C90.8158 9.9362 91.153 9.57292 91.5879 9.3125C92.0254 9.05208 92.5384 8.92188 93.127 8.92188C93.5228 8.92188 93.8913 8.98568 94.2324 9.11328C94.5762 9.23828 94.8757 9.42708 95.1309 9.67969C95.3887 9.93229 95.5892 10.25 95.7324 10.6328C95.8757 11.013 95.9473 11.4583 95.9473 11.9687V12.4258H90.8809V11.3945H94.3809C94.3809 11.1549 94.3288 10.9427 94.2246 10.7578C94.1204 10.5729 93.9759 10.4284 93.791 10.3242C93.6087 10.2174 93.3965 10.1641 93.1543 10.1641C92.9017 10.1641 92.6777 10.2227 92.4824 10.3398C92.2897 10.4544 92.1387 10.6094 92.0293 10.8047C91.9199 10.9974 91.8639 11.2122 91.8613 11.4492V12.4297C91.8613 12.7266 91.916 12.9831 92.0254 13.1992C92.1374 13.4154 92.2949 13.582 92.498 13.6992C92.7012 13.8164 92.9421 13.875 93.2207 13.875C93.4056 13.875 93.5749 13.849 93.7285 13.7969C93.8822 13.7448 94.0137 13.6667 94.123 13.5625C94.2324 13.4583 94.3158 13.3307 94.373 13.1797L95.9121 13.2812C95.834 13.651 95.6738 13.974 95.4316 14.25C95.1921 14.5234 94.8822 14.737 94.502 14.8906C94.1243 15.0417 93.6882 15.1172 93.1934 15.1172ZM97.0332 15V9H98.6465V10.0469H98.709C98.8184 9.67448 99.002 9.39323 99.2598 9.20313C99.5176 9.01042 99.8145 8.91406 100.15 8.91406C100.234 8.91406 100.324 8.91927 100.42 8.92969C100.516 8.9401 100.601 8.95443 100.674 8.97266V10.4492C100.596 10.4258 100.488 10.4049 100.35 10.3867C100.212 10.3685 100.085 10.3594 99.9707 10.3594C99.7259 10.3594 99.5072 10.4128 99.3145 10.5195C99.1243 10.6237 98.9733 10.7695 98.8613 10.957C98.752 11.1445 98.6973 11.3607 98.6973 11.6055V15H97.0332ZM102.744 17.25C102.533 17.25 102.335 17.2331 102.15 17.1992C101.968 17.168 101.817 17.1276 101.697 17.0781L102.072 15.8359C102.268 15.8958 102.443 15.9284 102.6 15.9336C102.758 15.9388 102.895 15.9023 103.01 15.8242C103.127 15.7461 103.222 15.6133 103.295 15.4258L103.393 15.1719L101.24 9H102.99L104.232 13.4062H104.295L105.549 9H107.311L104.979 15.6484C104.867 15.9714 104.714 16.2526 104.521 16.4922C104.331 16.7344 104.09 16.9206 103.799 17.0508C103.507 17.1836 103.156 17.25 102.744 17.25ZM115.079 9.30078C115.048 8.98568 114.914 8.74089 114.677 8.56641C114.44 8.39193 114.118 8.30469 113.712 8.30469C113.436 8.30469 113.203 8.34375 113.013 8.42187C112.823 8.4974 112.677 8.60286 112.575 8.73828C112.476 8.8737 112.427 9.02734 112.427 9.19922C112.422 9.34245 112.451 9.46745 112.517 9.57422C112.584 9.68099 112.677 9.77344 112.794 9.85156C112.911 9.92708 113.047 9.99349 113.2 10.0508C113.354 10.1055 113.518 10.1523 113.692 10.1914L114.411 10.3633C114.76 10.4414 115.08 10.5456 115.372 10.6758C115.664 10.806 115.916 10.9661 116.13 11.1562C116.343 11.3464 116.509 11.5703 116.626 11.8281C116.746 12.0859 116.807 12.3815 116.81 12.7148C116.807 13.2044 116.682 13.6289 116.435 13.9883C116.19 14.3451 115.836 14.6224 115.372 14.8203C114.911 15.0156 114.355 15.1133 113.704 15.1133C113.058 15.1133 112.496 15.0143 112.017 14.8164C111.54 14.6185 111.168 14.3255 110.899 13.9375C110.634 13.5469 110.494 13.0638 110.481 12.4883H112.118C112.136 12.7565 112.213 12.9805 112.349 13.1602C112.487 13.3372 112.67 13.4714 112.899 13.5625C113.131 13.651 113.393 13.6953 113.685 13.6953C113.971 13.6953 114.22 13.6536 114.431 13.5703C114.644 13.487 114.81 13.3711 114.927 13.2227C115.044 13.0742 115.103 12.9036 115.103 12.7109C115.103 12.5312 115.049 12.3802 114.942 12.2578C114.838 12.1354 114.685 12.0312 114.481 11.9453C114.281 11.8594 114.035 11.7812 113.743 11.7109L112.872 11.4922C112.198 11.3281 111.665 11.0716 111.274 10.7227C110.884 10.3737 110.69 9.90365 110.692 9.3125C110.69 8.82812 110.819 8.40495 111.079 8.04297C111.342 7.68099 111.703 7.39844 112.161 7.19531C112.619 6.99219 113.14 6.89062 113.724 6.89062C114.317 6.89062 114.836 6.99219 115.278 7.19531C115.724 7.39844 116.07 7.68099 116.317 8.04297C116.565 8.40495 116.692 8.82422 116.7 9.30078H115.079ZM120.627 15.1172C120.012 15.1172 119.484 14.987 119.041 14.7266C118.601 14.4635 118.262 14.099 118.025 13.6328C117.791 13.1667 117.674 12.6302 117.674 12.0234C117.674 11.4089 117.792 10.8698 118.029 10.4062C118.269 9.9401 118.609 9.57682 119.049 9.31641C119.489 9.05339 120.012 8.92188 120.619 8.92188C121.143 8.92188 121.601 9.01693 121.994 9.20703C122.387 9.39714 122.699 9.66406 122.928 10.0078C123.157 10.3516 123.283 10.7552 123.307 11.2188H121.736C121.692 10.9193 121.575 10.6784 121.385 10.4961C121.197 10.3112 120.951 10.2187 120.646 10.2187C120.389 10.2187 120.163 10.2891 119.971 10.4297C119.781 10.5677 119.632 10.7695 119.525 11.0352C119.419 11.3008 119.365 11.6224 119.365 12C119.365 12.3828 119.417 12.7083 119.521 12.9766C119.628 13.2448 119.778 13.4492 119.971 13.5898C120.163 13.7305 120.389 13.8008 120.646 13.8008C120.837 13.8008 121.007 13.7617 121.158 13.6836C121.312 13.6055 121.438 13.4922 121.537 13.3437C121.639 13.1927 121.705 13.0117 121.736 12.8008H123.307C123.281 13.2591 123.156 13.6628 122.932 14.0117C122.71 14.3581 122.404 14.6289 122.014 14.8242C121.623 15.0195 121.161 15.1172 120.627 15.1172ZM126.083 15.1133C125.7 15.1133 125.359 15.0469 125.06 14.9141C124.76 14.7786 124.523 14.5794 124.349 14.3164C124.177 14.0508 124.091 13.7201 124.091 13.3242C124.091 12.9909 124.152 12.7109 124.274 12.4844C124.397 12.2578 124.563 12.0755 124.774 11.9375C124.985 11.7995 125.225 11.6953 125.493 11.625C125.764 11.5547 126.048 11.5052 126.345 11.4766C126.694 11.4401 126.975 11.4062 127.188 11.375C127.402 11.3411 127.557 11.2917 127.653 11.2266C127.75 11.1615 127.798 11.0651 127.798 10.9375V10.9141C127.798 10.6667 127.72 10.4753 127.563 10.3398C127.41 10.2044 127.191 10.1367 126.907 10.1367C126.608 10.1367 126.369 10.2031 126.192 10.3359C126.015 10.4661 125.898 10.6302 125.841 10.8281L124.302 10.7031C124.38 10.3385 124.534 10.0234 124.763 9.75781C124.992 9.48958 125.287 9.28385 125.649 9.14062C126.014 8.99479 126.436 8.92188 126.915 8.92188C127.248 8.92188 127.567 8.96094 127.872 9.03906C128.179 9.11719 128.451 9.23828 128.688 9.40234C128.928 9.56641 129.117 9.77734 129.255 10.0352C129.393 10.2904 129.462 10.5964 129.462 10.9531V15H127.884V14.168H127.837C127.741 14.3555 127.612 14.5208 127.45 14.6641C127.289 14.8047 127.095 14.9154 126.868 14.9961C126.642 15.0742 126.38 15.1133 126.083 15.1133ZM126.56 13.9648C126.804 13.9648 127.021 13.9167 127.208 13.8203C127.396 13.7214 127.543 13.5885 127.649 13.4219C127.756 13.2552 127.81 13.0664 127.81 12.8555V12.2188C127.757 12.2526 127.686 12.2839 127.595 12.3125C127.506 12.3385 127.406 12.3633 127.294 12.3867C127.182 12.4076 127.07 12.4271 126.958 12.4453C126.846 12.4609 126.744 12.4753 126.653 12.4883C126.458 12.5169 126.287 12.5625 126.142 12.625C125.996 12.6875 125.882 12.7721 125.802 12.8789C125.721 12.9831 125.681 13.1133 125.681 13.2695C125.681 13.4961 125.763 13.6693 125.927 13.7891C126.093 13.9062 126.304 13.9648 126.56 13.9648ZM132.417 7V15H130.753V7H132.417ZM136.484 15.1172C135.867 15.1172 135.336 14.9922 134.891 14.7422C134.448 14.4896 134.107 14.1328 133.867 13.6719C133.628 13.2083 133.508 12.6602 133.508 12.0273C133.508 11.4102 133.628 10.8685 133.867 10.4023C134.107 9.9362 134.444 9.57292 134.879 9.3125C135.316 9.05208 135.829 8.92188 136.418 8.92188C136.814 8.92188 137.182 8.98568 137.523 9.11328C137.867 9.23828 138.167 9.42708 138.422 9.67969C138.68 9.93229 138.88 10.25 139.023 10.6328C139.167 11.013 139.238 11.4583 139.238 11.9687V12.4258H134.172V11.3945H137.672C137.672 11.1549 137.62 10.9427 137.516 10.7578C137.411 10.5729 137.267 10.4284 137.082 10.3242C136.9 10.2174 136.688 10.1641 136.445 10.1641C136.193 10.1641 135.969 10.2227 135.773 10.3398C135.581 10.4544 135.43 10.6094 135.32 10.8047C135.211 10.9974 135.155 11.2122 135.152 11.4492V12.4297C135.152 12.7266 135.207 12.9831 135.316 13.1992C135.428 13.4154 135.586 13.582 135.789 13.6992C135.992 13.8164 136.233 13.875 136.512 13.875C136.697 13.875 136.866 13.849 137.02 13.7969C137.173 13.7448 137.305 13.6667 137.414 13.5625C137.523 13.4583 137.607 13.3307 137.664 13.1797L139.203 13.2812C139.125 13.651 138.965 13.974 138.723 14.25C138.483 14.5234 138.173 14.737 137.793 14.8906C137.415 15.0417 136.979 15.1172 136.484 15.1172Z" fill="#01243D"/>
<path d="M434 170H24C18.4772 170 14 174.477 14 180V188C14 193.523 18.4772 198 24 198H434C439.523 198 444 193.523 444 188V180C444 174.477 439.523 170 434 170Z" fill="#FBFCFD"/>
<path d="M18 42H90" stroke="#D0D8E0" stroke-width="2"/>
<path d="M260 42H311" stroke="#D0D8E0" stroke-width="2"/>
<path d="M364 42H441" stroke="#D0D8E0" stroke-width="2"/>
<path d="M253.707 42.7073C254.098 42.3168 254.098 41.6836 253.707 41.2931L247.343 34.9291C246.953 34.5386 246.319 34.5386 245.929 34.9291C245.538 35.3197 245.538 35.9528 245.929 36.3433L251.586 42.0002L245.929 47.6571C245.538 48.0476 245.538 48.6807 245.929 49.0713C246.319 49.4618 246.953 49.4618 247.343 49.0713L253.707 42.7073ZM133 42.0002V43.0002H253V42.0002V41.0002H133V42.0002Z" fill="#D0D8E0"/>
<path d="M229 147V57" stroke="#D0D8E0" stroke-width="2"/>
<path d="M98.604 36.2725V44.9998H96.7588V36.2725H98.604ZM101.903 41.2157V44.9998H100.088V38.4543H101.818V39.6092H101.895C102.039 39.2285 102.282 38.9274 102.623 38.7058C102.964 38.4813 103.377 38.3691 103.863 38.3691C104.318 38.3691 104.714 38.4686 105.052 38.6674C105.39 38.8663 105.653 39.1504 105.841 39.5197C106.028 39.8862 106.122 40.3237 106.122 40.8322V44.9998H104.306V41.156C104.309 40.7555 104.207 40.443 104 40.2186C103.792 39.9913 103.507 39.8776 103.143 39.8776C102.899 39.8776 102.683 39.9302 102.495 40.0353C102.311 40.1404 102.166 40.2938 102.061 40.4955C101.958 40.6944 101.906 40.9345 101.903 41.2157ZM107.553 47.4543V38.4543H109.342V39.5538H109.423C109.503 39.3776 109.618 39.1987 109.768 39.0168C109.922 38.8322 110.121 38.6788 110.365 38.5566C110.612 38.4316 110.919 38.3691 111.286 38.3691C111.763 38.3691 112.203 38.4941 112.607 38.7441C113.01 38.9913 113.332 39.3649 113.574 39.8649C113.815 40.362 113.936 40.9856 113.936 41.7356C113.936 42.4657 113.818 43.0822 113.582 43.585C113.349 44.085 113.031 44.4643 112.628 44.7228C112.227 44.9785 111.778 45.1063 111.281 45.1063C110.929 45.1063 110.629 45.0481 110.382 44.9316C110.138 44.8151 109.938 44.6688 109.781 44.4927C109.625 44.3137 109.506 44.1333 109.423 43.9515H109.368V47.4543H107.553ZM109.33 41.7271C109.33 42.1163 109.384 42.4558 109.491 42.7455C109.599 43.0353 109.756 43.2612 109.96 43.4231C110.165 43.5822 110.413 43.6617 110.706 43.6617C111.001 43.6617 111.251 43.5808 111.456 43.4188C111.661 43.2541 111.815 43.0268 111.92 42.737C112.028 42.4444 112.082 42.1078 112.082 41.7271C112.082 41.3492 112.03 41.0168 111.925 40.7299C111.82 40.443 111.665 40.2185 111.46 40.0566C111.256 39.8947 111.004 39.8137 110.706 39.8137C110.411 39.8137 110.161 39.8918 109.956 40.0481C109.754 40.2043 109.599 40.4259 109.491 40.7129C109.384 40.9998 109.33 41.3379 109.33 41.7271ZM119.344 42.2129V38.4543H121.159V44.9998H119.416V43.8109H119.348C119.2 44.1944 118.955 44.5026 118.611 44.7356C118.27 44.9685 117.854 45.085 117.362 45.085C116.925 45.085 116.54 44.9856 116.207 44.7867C115.875 44.5879 115.615 44.3052 115.428 43.9387C115.243 43.5722 115.149 43.1333 115.146 42.622V38.4543H116.962V42.2981C116.964 42.6845 117.068 42.9899 117.273 43.2143C117.477 43.4387 117.751 43.5509 118.095 43.5509C118.314 43.5509 118.518 43.5012 118.709 43.4018C118.899 43.2995 119.053 43.1489 119.169 42.9501C119.288 42.7512 119.347 42.5055 119.344 42.2129ZM126.093 38.4543V39.818H122.151V38.4543H126.093ZM123.046 36.8862H124.861V42.9884C124.861 43.156 124.887 43.2867 124.938 43.3805C124.989 43.4714 125.06 43.5353 125.151 43.5722C125.245 43.6092 125.353 43.6276 125.475 43.6276C125.56 43.6276 125.645 43.6205 125.73 43.6063C125.816 43.5893 125.881 43.5765 125.926 43.568L126.212 44.9188C126.121 44.9472 125.993 44.9799 125.828 45.0168C125.664 45.0566 125.463 45.0808 125.228 45.0893C124.79 45.1063 124.407 45.0481 124.077 44.9146C123.75 44.781 123.496 44.5737 123.314 44.2924C123.132 44.0112 123.043 43.656 123.046 43.2271V36.8862Z" fill="#073D63"/>
<path d="M324.778 40.6363C324.778 41.588 324.598 42.3976 324.237 43.0652C323.879 43.7329 323.391 44.2428 322.771 44.5951C322.155 44.9445 321.462 45.1192 320.692 45.1192C319.916 45.1192 319.22 44.9431 318.604 44.5908C317.987 44.2385 317.5 43.7286 317.142 43.061C316.784 42.3934 316.605 41.5851 316.605 40.6363C316.605 39.6846 316.784 38.8749 317.142 38.2073C317.5 37.5397 317.987 37.0311 318.604 36.6817C319.22 36.3294 319.916 36.1533 320.692 36.1533C321.462 36.1533 322.155 36.3294 322.771 36.6817C323.391 37.0311 323.879 37.5397 324.237 38.2073C324.598 38.8749 324.778 39.6846 324.778 40.6363ZM322.908 40.6363C322.908 40.0198 322.815 39.4999 322.631 39.0766C322.449 38.6533 322.192 38.3323 321.859 38.1135C321.527 37.8948 321.138 37.7854 320.692 37.7854C320.246 37.7854 319.857 37.8948 319.524 38.1135C319.192 38.3323 318.933 38.6533 318.749 39.0766C318.567 39.4999 318.476 40.0198 318.476 40.6363C318.476 41.2527 318.567 41.7726 318.749 42.1959C318.933 42.6192 319.192 42.9402 319.524 43.159C319.857 43.3777 320.246 43.4871 320.692 43.4871C321.138 43.4871 321.527 43.3777 321.859 43.159C322.192 42.9402 322.449 42.6192 322.631 42.1959C322.815 41.7726 322.908 41.2527 322.908 40.6363ZM330.309 42.213V38.4544H332.124V44.9999H330.381V43.811H330.313C330.165 44.1945 329.919 44.5027 329.576 44.7357C329.235 44.9686 328.819 45.0851 328.327 45.0851C327.89 45.0851 327.505 44.9857 327.172 44.7868C326.84 44.588 326.58 44.3053 326.392 43.9388C326.208 43.5723 326.114 43.1334 326.111 42.6221V38.4544H327.926V42.2982C327.929 42.6846 328.033 42.99 328.238 43.2144C328.442 43.4388 328.716 43.551 329.06 43.551C329.279 43.551 329.483 43.5013 329.674 43.4019C329.864 43.2996 330.017 43.149 330.134 42.9502C330.253 42.7513 330.311 42.5056 330.309 42.213ZM337.058 38.4544V39.8181H333.116V38.4544H337.058ZM334.011 36.8863H335.826V42.9885C335.826 43.1561 335.852 43.2868 335.903 43.3806C335.954 43.4715 336.025 43.5354 336.116 43.5723C336.21 43.6093 336.317 43.6277 336.44 43.6277C336.525 43.6277 336.61 43.6206 336.695 43.6064C336.781 43.5894 336.846 43.5766 336.891 43.5681L337.177 44.9189C337.086 44.9473 336.958 44.98 336.793 45.0169C336.629 45.0567 336.428 45.0809 336.192 45.0894C335.755 45.1064 335.371 45.0482 335.042 44.9147C334.715 44.7811 334.461 44.5738 334.279 44.2925C334.097 44.0113 334.008 43.6561 334.011 43.2272V36.8863ZM338.24 47.4544V38.4544H340.03V39.5539H340.111C340.19 39.3777 340.305 39.1988 340.456 39.0169C340.609 38.8323 340.808 38.6789 341.053 38.5567C341.3 38.4317 341.607 38.3692 341.973 38.3692C342.45 38.3692 342.891 38.4942 343.294 38.7442C343.697 38.9914 344.02 39.365 344.261 39.865C344.503 40.3621 344.624 40.9857 344.624 41.7357C344.624 42.4658 344.506 43.0823 344.27 43.5851C344.037 44.0851 343.719 44.4644 343.315 44.7229C342.915 44.9786 342.466 45.1064 341.969 45.1064C341.616 45.1064 341.317 45.0482 341.07 44.9317C340.825 44.8152 340.625 44.6689 340.469 44.4928C340.312 44.3138 340.193 44.1334 340.111 43.9516H340.055V47.4544H338.24ZM340.017 41.7272C340.017 42.1164 340.071 42.4559 340.179 42.7456C340.287 43.0354 340.443 43.2613 340.648 43.4232C340.852 43.5823 341.101 43.6618 341.393 43.6618C341.689 43.6618 341.939 43.5809 342.143 43.4189C342.348 43.2542 342.503 43.0269 342.608 42.7371C342.716 42.4445 342.77 42.1079 342.77 41.7272C342.77 41.3493 342.717 41.0169 342.612 40.73C342.507 40.4431 342.352 40.2186 342.148 40.0567C341.943 39.8948 341.692 39.8138 341.393 39.8138C341.098 39.8138 340.848 39.8919 340.643 40.0482C340.442 40.2044 340.287 40.426 340.179 40.713C340.071 40.9999 340.017 41.338 340.017 41.7272ZM350.031 42.213V38.4544H351.847V44.9999H350.104V43.811H350.036C349.888 44.1945 349.642 44.5027 349.298 44.7357C348.957 44.9686 348.541 45.0851 348.05 45.0851C347.612 45.0851 347.227 44.9857 346.895 44.7868C346.563 44.588 346.303 44.3053 346.115 43.9388C345.93 43.5723 345.837 43.1334 345.834 42.6221V38.4544H347.649V42.2982C347.652 42.6846 347.756 42.99 347.96 43.2144C348.165 43.4388 348.439 43.551 348.783 43.551C349.001 43.551 349.206 43.5013 349.396 43.4019C349.587 43.2996 349.74 43.149 349.857 42.9502C349.976 42.7513 350.034 42.5056 350.031 42.213ZM356.78 38.4544V39.8181H352.838V38.4544H356.78ZM353.733 36.8863H355.549V42.9885C355.549 43.1561 355.574 43.2868 355.625 43.3806C355.676 43.4715 355.748 43.5354 355.838 43.5723C355.932 43.6093 356.04 43.6277 356.162 43.6277C356.248 43.6277 356.333 43.6206 356.418 43.6064C356.503 43.5894 356.569 43.5766 356.614 43.5681L356.9 44.9189C356.809 44.9473 356.681 44.98 356.516 45.0169C356.351 45.0567 356.151 45.0809 355.915 45.0894C355.478 45.1064 355.094 45.0482 354.765 44.9147C354.438 44.7811 354.184 44.5738 354.002 44.2925C353.82 44.0113 353.73 43.6561 353.733 43.2272V36.8863Z" fill="#073D63"/>
<path d="M207 222H23C13.0589 222 5 230.059 5 240V344C5 353.941 13.0589 362 23 362H207C216.941 362 225 353.941 225 344V240C225 230.059 216.941 222 207 222Z" fill="#F1F6F9"/>
<path d="M434 222H250C240.059 222 232 230.059 232 240V344C232 353.941 240.059 362 250 362H434C443.941 362 452 353.941 452 344V240C452 230.059 443.941 222 434 222Z" fill="#F1F6F9"/>
<path d="M245 252H439" stroke="#D0D8E0" stroke-width="2"/>
<path d="M18 252H212" stroke="#D0D8E0" stroke-width="2"/>
<path d="M429 324H255C249.477 324 245 328.477 245 334V344C245 349.523 249.477 354 255 354H429C434.523 354 439 349.523 439 344V334C439 328.477 434.523 324 429 324Z" fill="#FBFCFD"/>
<path d="M202 324H28C22.4772 324 18 328.477 18 334V344C18 349.523 22.4772 354 28 354H202C207.523 354 212 349.523 212 344V334C212 328.477 207.523 324 202 324Z" fill="#FBFCFD"/>
<path d="M18.6953 244V236H20.3867V242.605H23.8164V244H18.6953ZM31.6836 238.801H29.9727C29.9414 238.579 29.8776 238.383 29.7813 238.211C29.6849 238.036 29.5612 237.888 29.4102 237.766C29.2591 237.643 29.0846 237.549 28.8867 237.484C28.6914 237.419 28.4792 237.387 28.25 237.387C27.8359 237.387 27.4753 237.49 27.168 237.695C26.8607 237.898 26.6224 238.195 26.4531 238.586C26.2839 238.974 26.1992 239.445 26.1992 240C26.1992 240.57 26.2839 241.049 26.4531 241.437C26.625 241.826 26.8646 242.118 27.1719 242.316C27.4792 242.514 27.8346 242.613 28.2383 242.613C28.4648 242.613 28.6745 242.583 28.8672 242.523C29.0625 242.464 29.2357 242.376 29.3867 242.262C29.5378 242.145 29.6628 242.003 29.7617 241.836C29.8633 241.669 29.9336 241.479 29.9727 241.266L31.6836 241.273C31.6393 241.641 31.5286 241.995 31.3516 242.336C31.1771 242.674 30.9414 242.978 30.6445 243.246C30.3503 243.512 29.9987 243.723 29.5898 243.879C29.1836 244.033 28.724 244.109 28.2109 244.109C27.4974 244.109 26.8594 243.948 26.2969 243.625C25.737 243.302 25.2943 242.835 24.9687 242.223C24.6458 241.611 24.4844 240.87 24.4844 240C24.4844 239.128 24.6484 238.385 24.9766 237.773C25.3047 237.161 25.75 236.695 26.3125 236.375C26.875 236.052 27.5078 235.891 28.2109 235.891C28.6745 235.891 29.1042 235.956 29.5 236.086C29.8984 236.216 30.2513 236.406 30.5586 236.656C30.8659 236.904 31.1159 237.207 31.3086 237.566C31.5039 237.926 31.6289 238.337 31.6836 238.801ZM40.248 240C40.248 240.872 40.0827 241.615 39.752 242.227C39.4238 242.839 38.9759 243.306 38.4082 243.629C37.8431 243.949 37.2077 244.109 36.502 244.109C35.791 244.109 35.153 243.948 34.5879 243.625C34.0228 243.302 33.5762 242.835 33.248 242.223C32.9199 241.611 32.7559 240.87 32.7559 240C32.7559 239.128 32.9199 238.385 33.248 237.773C33.5762 237.161 34.0228 236.695 34.5879 236.375C35.153 236.052 35.791 235.891 36.502 235.891C37.2077 235.891 37.8431 236.052 38.4082 236.375C38.9759 236.695 39.4238 237.161 39.752 237.773C40.0827 238.385 40.248 239.128 40.248 240ZM38.5332 240C38.5332 239.435 38.4486 238.958 38.2793 238.57C38.1126 238.182 37.877 237.888 37.5723 237.688C37.2676 237.487 36.9108 237.387 36.502 237.387C36.0931 237.387 35.7363 237.487 35.4316 237.688C35.127 237.888 34.89 238.182 34.7207 238.57C34.554 238.958 34.4707 239.435 34.4707 240C34.4707 240.565 34.554 241.042 34.7207 241.43C34.89 241.818 35.127 242.112 35.4316 242.312C35.7363 242.513 36.0931 242.613 36.502 242.613C36.9108 242.613 37.2676 242.513 37.5723 242.312C37.877 242.112 38.1126 241.818 38.2793 241.43C38.4486 241.042 38.5332 240.565 38.5332 240ZM41.501 244V236H46.8916V237.395H43.1924V239.301H46.6143V240.695H43.1924V242.605H46.9072V244H41.501ZM50.7822 244V236H53.9854C54.5739 236 55.0648 236.087 55.458 236.262C55.8512 236.436 56.1468 236.678 56.3447 236.988C56.5426 237.296 56.6416 237.65 56.6416 238.051C56.6416 238.363 56.5791 238.638 56.4541 238.875C56.3291 239.109 56.1572 239.302 55.9385 239.453C55.7223 239.602 55.4749 239.707 55.1963 239.77V239.848C55.501 239.861 55.7861 239.947 56.0518 240.105C56.32 240.264 56.5374 240.487 56.7041 240.773C56.8708 241.057 56.9541 241.396 56.9541 241.789C56.9541 242.214 56.8486 242.592 56.6377 242.926C56.4294 243.257 56.1208 243.518 55.7119 243.711C55.3031 243.904 54.7992 244 54.2002 244H50.7822ZM52.4736 242.617H53.8525C54.3239 242.617 54.6676 242.527 54.8838 242.348C55.0999 242.165 55.208 241.923 55.208 241.621C55.208 241.4 55.1546 241.204 55.0479 241.035C54.9411 240.866 54.7887 240.733 54.5908 240.637C54.3955 240.54 54.1624 240.492 53.8916 240.492H52.4736V242.617ZM52.4736 239.348H53.7275C53.9593 239.348 54.165 239.307 54.3447 239.227C54.527 239.143 54.6702 239.026 54.7744 238.875C54.8812 238.724 54.9346 238.543 54.9346 238.332C54.9346 238.043 54.8317 237.81 54.626 237.633C54.4229 237.456 54.1338 237.367 53.7588 237.367H52.4736V239.348ZM58.0234 244V238H59.6875V244H58.0234ZM58.8594 237.227C58.612 237.227 58.3997 237.145 58.2227 236.98C58.0482 236.814 57.9609 236.615 57.9609 236.383C57.9609 236.154 58.0482 235.957 58.2227 235.793C58.3997 235.626 58.612 235.543 58.8594 235.543C59.1068 235.543 59.3177 235.626 59.4922 235.793C59.6693 235.957 59.7578 236.154 59.7578 236.383C59.7578 236.615 59.6693 236.814 59.4922 236.98C59.3177 237.145 59.1068 237.227 58.8594 237.227ZM63.7314 244.117C63.1247 244.117 62.5999 243.988 62.1572 243.73C61.7171 243.47 61.3773 243.108 61.1377 242.645C60.8981 242.178 60.7783 241.638 60.7783 241.023C60.7783 240.404 60.8981 239.862 61.1377 239.398C61.3773 238.932 61.7171 238.57 62.1572 238.312C62.5999 238.052 63.1247 237.922 63.7314 237.922C64.3382 237.922 64.8617 238.052 65.3018 238.312C65.7445 238.57 66.0856 238.932 66.3252 239.398C66.5648 239.862 66.6846 240.404 66.6846 241.023C66.6846 241.638 66.5648 242.178 66.3252 242.645C66.0856 243.108 65.7445 243.47 65.3018 243.73C64.8617 243.988 64.3382 244.117 63.7314 244.117ZM63.7393 242.828C64.0153 242.828 64.2458 242.75 64.4307 242.594C64.6156 242.435 64.7549 242.219 64.8486 241.945C64.945 241.672 64.9932 241.361 64.9932 241.012C64.9932 240.663 64.945 240.352 64.8486 240.078C64.7549 239.805 64.6156 239.589 64.4307 239.43C64.2458 239.271 64.0153 239.191 63.7393 239.191C63.4606 239.191 63.2262 239.271 63.0361 239.43C62.8486 239.589 62.7067 239.805 62.6104 240.078C62.5166 240.352 62.4697 240.663 62.4697 241.012C62.4697 241.361 62.5166 241.672 62.6104 241.945C62.7067 242.219 62.8486 242.435 63.0361 242.594C63.2262 242.75 63.4606 242.828 63.7393 242.828ZM67.7666 244V238H69.3525V239.059H69.4229C69.5479 238.707 69.7562 238.43 70.0479 238.227C70.3395 238.023 70.6885 237.922 71.0947 237.922C71.5062 237.922 71.8564 238.025 72.1455 238.23C72.4346 238.434 72.6273 238.71 72.7236 239.059H72.7861C72.9085 238.715 73.1299 238.44 73.4502 238.234C73.7731 238.026 74.1546 237.922 74.5947 237.922C75.1546 237.922 75.609 238.1 75.958 238.457C76.3096 238.811 76.4854 239.314 76.4854 239.965V244H74.8252V240.293C74.8252 239.96 74.7367 239.71 74.5596 239.543C74.3825 239.376 74.1611 239.293 73.8955 239.293C73.5934 239.293 73.3577 239.389 73.1885 239.582C73.0192 239.772 72.9346 240.023 72.9346 240.336V244H71.3213V240.258C71.3213 239.964 71.2367 239.729 71.0674 239.555C70.9007 239.38 70.6807 239.293 70.4072 239.293C70.2223 239.293 70.0557 239.34 69.9072 239.434C69.7614 239.525 69.6455 239.654 69.5596 239.82C69.4736 239.984 69.4307 240.177 69.4307 240.398V244H67.7666ZM80.5342 244.117C79.917 244.117 79.3857 243.992 78.9404 243.742C78.4977 243.49 78.1566 243.133 77.917 242.672C77.6774 242.208 77.5576 241.66 77.5576 241.027C77.5576 240.41 77.6774 239.868 77.917 239.402C78.1566 238.936 78.4938 238.573 78.9287 238.312C79.3662 238.052 79.8792 237.922 80.4678 237.922C80.8636 237.922 81.2321 237.986 81.5732 238.113C81.917 238.238 82.2165 238.427 82.4717 238.68C82.7295 238.932 82.93 239.25 83.0732 239.633C83.2165 240.013 83.2881 240.458 83.2881 240.969V241.426H78.2217V240.395H81.7217C81.7217 240.155 81.6696 239.943 81.5654 239.758C81.4613 239.573 81.3167 239.428 81.1318 239.324C80.9495 239.217 80.7373 239.164 80.4951 239.164C80.2425 239.164 80.0186 239.223 79.8232 239.34C79.6305 239.454 79.4795 239.609 79.3701 239.805C79.2607 239.997 79.2048 240.212 79.2021 240.449V241.43C79.2021 241.727 79.2568 241.983 79.3662 242.199C79.4782 242.415 79.6357 242.582 79.8389 242.699C80.042 242.816 80.2829 242.875 80.5615 242.875C80.7464 242.875 80.9157 242.849 81.0693 242.797C81.223 242.745 81.3545 242.667 81.4639 242.562C81.5732 242.458 81.6566 242.331 81.7139 242.18L83.2529 242.281C83.1748 242.651 83.0146 242.974 82.7725 243.25C82.5329 243.523 82.223 243.737 81.8428 243.891C81.4652 244.042 81.029 244.117 80.5342 244.117ZM87.5654 238V239.25H83.9521V238H87.5654ZM84.7725 236.562H86.4365V242.156C86.4365 242.31 86.46 242.43 86.5068 242.516C86.5537 242.599 86.6188 242.658 86.7021 242.691C86.7881 242.725 86.887 242.742 86.999 242.742C87.0771 242.742 87.1553 242.736 87.2334 242.723C87.3115 242.707 87.3714 242.695 87.4131 242.687L87.6748 243.926C87.5915 243.952 87.4743 243.982 87.3232 244.016C87.1722 244.052 86.9886 244.074 86.7725 244.082C86.3714 244.098 86.0199 244.044 85.7178 243.922C85.4183 243.799 85.1852 243.609 85.0186 243.352C84.8519 243.094 84.7699 242.768 84.7725 242.375V236.562ZM90.4424 240.531V244H88.7783V236H90.3955V239.059H90.4658C90.6012 238.704 90.82 238.427 91.1221 238.227C91.4242 238.023 91.8031 237.922 92.2588 237.922C92.6755 237.922 93.0387 238.013 93.3486 238.195C93.6611 238.375 93.9033 238.634 94.0752 238.973C94.2497 239.309 94.3356 239.711 94.333 240.18V244H92.6689V240.477C92.6715 240.107 92.5778 239.819 92.3877 239.613C92.2002 239.408 91.9372 239.305 91.5986 239.305C91.3721 239.305 91.1715 239.353 90.9971 239.449C90.8252 239.546 90.6898 239.686 90.5908 239.871C90.4945 240.053 90.445 240.273 90.4424 240.531ZM97.3535 244.113C96.9707 244.113 96.6296 244.047 96.3301 243.914C96.0306 243.779 95.7936 243.579 95.6191 243.316C95.4473 243.051 95.3613 242.72 95.3613 242.324C95.3613 241.991 95.4225 241.711 95.5449 241.484C95.6673 241.258 95.834 241.076 96.0449 240.937C96.2559 240.799 96.4954 240.695 96.7637 240.625C97.0345 240.555 97.3184 240.505 97.6152 240.477C97.9642 240.44 98.2454 240.406 98.459 240.375C98.6725 240.341 98.8275 240.292 98.9238 240.227C99.0202 240.161 99.0684 240.065 99.0684 239.937V239.914C99.0684 239.667 98.9902 239.475 98.834 239.34C98.6803 239.204 98.4616 239.137 98.1777 239.137C97.8783 239.137 97.64 239.203 97.4629 239.336C97.2858 239.466 97.1686 239.63 97.1113 239.828L95.5723 239.703C95.6504 239.339 95.804 239.023 96.0332 238.758C96.2624 238.49 96.5579 238.284 96.9199 238.141C97.2845 237.995 97.7064 237.922 98.1855 237.922C98.5189 237.922 98.8379 237.961 99.1426 238.039C99.4499 238.117 99.722 238.238 99.959 238.402C100.199 238.566 100.387 238.777 100.525 239.035C100.663 239.29 100.732 239.596 100.732 239.953V244H99.1543V243.168H99.1074C99.0111 243.355 98.8822 243.521 98.7207 243.664C98.5592 243.805 98.3652 243.915 98.1387 243.996C97.9121 244.074 97.6504 244.113 97.3535 244.113ZM97.8301 242.965C98.0749 242.965 98.291 242.917 98.4785 242.82C98.666 242.721 98.8132 242.589 98.9199 242.422C99.0267 242.255 99.0801 242.066 99.0801 241.855V241.219C99.028 241.253 98.9564 241.284 98.8652 241.312C98.7767 241.339 98.6764 241.363 98.5645 241.387C98.4525 241.408 98.3405 241.427 98.2285 241.445C98.1165 241.461 98.015 241.475 97.9238 241.488C97.7285 241.517 97.5579 241.562 97.4121 241.625C97.2663 241.687 97.153 241.772 97.0723 241.879C96.9915 241.983 96.9512 242.113 96.9512 242.27C96.9512 242.496 97.0332 242.669 97.1973 242.789C97.3639 242.906 97.5749 242.965 97.8301 242.965ZM103.688 240.531V244H102.023V238H103.609V239.059H103.68C103.813 238.71 104.035 238.434 104.348 238.23C104.66 238.025 105.039 237.922 105.484 237.922C105.901 237.922 106.264 238.013 106.574 238.195C106.884 238.378 107.125 238.638 107.297 238.977C107.469 239.312 107.555 239.714 107.555 240.18V244H105.891V240.477C105.893 240.109 105.799 239.823 105.609 239.617C105.419 239.409 105.158 239.305 104.824 239.305C104.6 239.305 104.402 239.353 104.23 239.449C104.061 239.546 103.928 239.686 103.832 239.871C103.738 240.053 103.69 240.273 103.688 240.531ZM111.601 244.117C110.983 244.117 110.452 243.992 110.007 243.742C109.564 243.49 109.223 243.133 108.983 242.672C108.744 242.208 108.624 241.66 108.624 241.027C108.624 240.41 108.744 239.868 108.983 239.402C109.223 238.936 109.56 238.573 109.995 238.312C110.433 238.052 110.946 237.922 111.534 237.922C111.93 237.922 112.299 237.986 112.64 238.113C112.983 238.238 113.283 238.427 113.538 238.68C113.796 238.932 113.996 239.25 114.14 239.633C114.283 240.013 114.354 240.458 114.354 240.969V241.426H109.288V240.395H112.788C112.788 240.155 112.736 239.943 112.632 239.758C112.528 239.573 112.383 239.428 112.198 239.324C112.016 239.217 111.804 239.164 111.562 239.164C111.309 239.164 111.085 239.223 110.89 239.34C110.697 239.454 110.546 239.609 110.437 239.805C110.327 239.997 110.271 240.212 110.269 240.449V241.43C110.269 241.727 110.323 241.983 110.433 242.199C110.545 242.415 110.702 242.582 110.905 242.699C111.108 242.816 111.349 242.875 111.628 242.875C111.813 242.875 111.982 242.849 112.136 242.797C112.289 242.745 112.421 242.667 112.53 242.562C112.64 242.458 112.723 242.331 112.78 242.18L114.319 242.281C114.241 242.651 114.081 242.974 113.839 243.25C113.599 243.523 113.289 243.737 112.909 243.891C112.532 244.042 112.095 244.117 111.601 244.117Z" fill="#073D63"/>
<path d="M247.074 244H245.262L248.023 236H250.203L252.961 244H251.148L249.145 237.828H249.082L247.074 244ZM246.961 240.855H251.242V242.176H246.961V240.855ZM253.924 244V236H255.588V239.008H255.639C255.712 238.846 255.817 238.682 255.955 238.516C256.096 238.346 256.278 238.206 256.502 238.094C256.729 237.979 257.01 237.922 257.346 237.922C257.783 237.922 258.187 238.036 258.557 238.266C258.926 238.492 259.222 238.835 259.443 239.293C259.665 239.749 259.775 240.32 259.775 241.008C259.775 241.677 259.667 242.242 259.451 242.703C259.238 243.161 258.946 243.509 258.576 243.746C258.209 243.98 257.798 244.098 257.342 244.098C257.019 244.098 256.744 244.044 256.518 243.937C256.294 243.831 256.11 243.697 255.967 243.535C255.824 243.371 255.714 243.206 255.639 243.039H255.564V244H253.924ZM255.553 241C255.553 241.357 255.602 241.668 255.701 241.934C255.8 242.199 255.943 242.406 256.131 242.555C256.318 242.701 256.546 242.773 256.814 242.773C257.085 242.773 257.314 242.699 257.502 242.551C257.689 242.4 257.831 242.191 257.928 241.926C258.027 241.658 258.076 241.349 258.076 241C258.076 240.654 258.028 240.349 257.932 240.086C257.835 239.823 257.693 239.617 257.506 239.469C257.318 239.32 257.088 239.246 256.814 239.246C256.544 239.246 256.314 239.318 256.127 239.461C255.942 239.604 255.8 239.807 255.701 240.07C255.602 240.333 255.553 240.643 255.553 241ZM262.597 244.113C262.214 244.113 261.873 244.047 261.573 243.914C261.274 243.779 261.037 243.579 260.862 243.316C260.69 243.051 260.604 242.72 260.604 242.324C260.604 241.991 260.666 241.711 260.788 241.484C260.91 241.258 261.077 241.076 261.288 240.937C261.499 240.799 261.739 240.695 262.007 240.625C262.278 240.555 262.562 240.505 262.858 240.477C263.207 240.44 263.489 240.406 263.702 240.375C263.916 240.341 264.071 240.292 264.167 240.227C264.263 240.161 264.312 240.065 264.312 239.937V239.914C264.312 239.667 264.233 239.475 264.077 239.34C263.924 239.204 263.705 239.137 263.421 239.137C263.121 239.137 262.883 239.203 262.706 239.336C262.529 239.466 262.412 239.63 262.354 239.828L260.815 239.703C260.894 239.339 261.047 239.023 261.276 238.758C261.506 238.49 261.801 238.284 262.163 238.141C262.528 237.995 262.95 237.922 263.429 237.922C263.762 237.922 264.081 237.961 264.386 238.039C264.693 238.117 264.965 238.238 265.202 238.402C265.442 238.566 265.631 238.777 265.769 239.035C265.907 239.29 265.976 239.596 265.976 239.953V244H264.397V243.168H264.351C264.254 243.355 264.125 243.521 263.964 243.664C263.802 243.805 263.608 243.915 263.382 243.996C263.155 244.074 262.894 244.113 262.597 244.113ZM263.073 242.965C263.318 242.965 263.534 242.917 263.722 242.82C263.909 242.721 264.056 242.589 264.163 242.422C264.27 242.255 264.323 242.066 264.323 241.855V241.219C264.271 241.253 264.2 241.284 264.108 241.312C264.02 241.339 263.92 241.363 263.808 241.387C263.696 241.408 263.584 241.427 263.472 241.445C263.36 241.461 263.258 241.475 263.167 241.488C262.972 241.517 262.801 241.562 262.655 241.625C262.509 241.687 262.396 241.772 262.315 241.879C262.235 241.983 262.194 242.113 262.194 242.27C262.194 242.496 262.276 242.669 262.44 242.789C262.607 242.906 262.818 242.965 263.073 242.965ZM270.458 238V239.25H266.845V238H270.458ZM267.665 236.562H269.329V242.156C269.329 242.31 269.353 242.43 269.399 242.516C269.446 242.599 269.511 242.658 269.595 242.691C269.681 242.725 269.78 242.742 269.892 242.742C269.97 242.742 270.048 242.736 270.126 242.723C270.204 242.707 270.264 242.695 270.306 242.687L270.567 243.926C270.484 243.952 270.367 243.982 270.216 244.016C270.065 244.052 269.881 244.074 269.665 244.082C269.264 244.098 268.912 244.044 268.61 243.922C268.311 243.799 268.078 243.609 267.911 243.352C267.744 243.094 267.662 242.768 267.665 242.375V236.562ZM274.212 244.117C273.595 244.117 273.063 243.992 272.618 243.742C272.175 243.49 271.834 243.133 271.595 242.672C271.355 242.208 271.235 241.66 271.235 241.027C271.235 240.41 271.355 239.868 271.595 239.402C271.834 238.936 272.172 238.573 272.606 238.312C273.044 238.052 273.557 237.922 274.146 237.922C274.541 237.922 274.91 237.986 275.251 238.113C275.595 238.238 275.894 238.427 276.149 238.68C276.407 238.932 276.608 239.25 276.751 239.633C276.894 240.013 276.966 240.458 276.966 240.969V241.426H271.899V240.395H275.399C275.399 240.155 275.347 239.943 275.243 239.758C275.139 239.573 274.994 239.428 274.81 239.324C274.627 239.217 274.415 239.164 274.173 239.164C273.92 239.164 273.696 239.223 273.501 239.34C273.308 239.454 273.157 239.609 273.048 239.805C272.938 239.997 272.882 240.212 272.88 240.449V241.43C272.88 241.727 272.935 241.983 273.044 242.199C273.156 242.415 273.313 242.582 273.517 242.699C273.72 242.816 273.961 242.875 274.239 242.875C274.424 242.875 274.593 242.849 274.747 242.797C274.901 242.745 275.032 242.667 275.142 242.562C275.251 242.458 275.334 242.331 275.392 242.18L276.931 242.281C276.853 242.651 276.692 242.974 276.45 243.25C276.211 243.523 275.901 243.737 275.521 243.891C275.143 244.042 274.707 244.117 274.212 244.117ZM278.052 244V238H279.638V239.059H279.708C279.833 238.707 280.041 238.43 280.333 238.227C280.625 238.023 280.974 237.922 281.38 237.922C281.791 237.922 282.142 238.025 282.431 238.23C282.72 238.434 282.912 238.71 283.009 239.059H283.071C283.194 238.715 283.415 238.44 283.735 238.234C284.058 238.026 284.44 237.922 284.88 237.922C285.44 237.922 285.894 238.1 286.243 238.457C286.595 238.811 286.771 239.314 286.771 239.965V244H285.11V240.293C285.11 239.96 285.022 239.71 284.845 239.543C284.668 239.376 284.446 239.293 284.181 239.293C283.879 239.293 283.643 239.389 283.474 239.582C283.304 239.772 283.22 240.023 283.22 240.336V244H281.606V240.258C281.606 239.964 281.522 239.729 281.353 239.555C281.186 239.38 280.966 239.293 280.692 239.293C280.507 239.293 280.341 239.34 280.192 239.434C280.047 239.525 279.931 239.654 279.845 239.82C279.759 239.984 279.716 240.177 279.716 240.398V244H278.052ZM290.819 244.117C290.202 244.117 289.671 243.992 289.226 243.742C288.783 243.49 288.442 243.133 288.202 242.672C287.963 242.208 287.843 241.66 287.843 241.027C287.843 240.41 287.963 239.868 288.202 239.402C288.442 238.936 288.779 238.573 289.214 238.312C289.651 238.052 290.164 237.922 290.753 237.922C291.149 237.922 291.517 237.986 291.858 238.113C292.202 238.238 292.502 238.427 292.757 238.68C293.015 238.932 293.215 239.25 293.358 239.633C293.502 240.013 293.573 240.458 293.573 240.969V241.426H288.507V240.395H292.007C292.007 240.155 291.955 239.943 291.851 239.758C291.746 239.573 291.602 239.428 291.417 239.324C291.235 239.217 291.022 239.164 290.78 239.164C290.528 239.164 290.304 239.223 290.108 239.34C289.916 239.454 289.765 239.609 289.655 239.805C289.546 239.997 289.49 240.212 289.487 240.449V241.43C289.487 241.727 289.542 241.983 289.651 242.199C289.763 242.415 289.921 242.582 290.124 242.699C290.327 242.816 290.568 242.875 290.847 242.875C291.032 242.875 291.201 242.849 291.354 242.797C291.508 242.745 291.64 242.667 291.749 242.562C291.858 242.458 291.942 242.331 291.999 242.18L293.538 242.281C293.46 242.651 293.3 242.974 293.058 243.25C292.818 243.523 292.508 243.737 292.128 243.891C291.75 244.042 291.314 244.117 290.819 244.117ZM296.323 240.531V244H294.659V238H296.245V239.059H296.315C296.448 238.71 296.671 238.434 296.983 238.23C297.296 238.025 297.675 237.922 298.12 237.922C298.537 237.922 298.9 238.013 299.21 238.195C299.52 238.378 299.761 238.638 299.933 238.977C300.104 239.312 300.19 239.714 300.19 240.18V244H298.526V240.477C298.529 240.109 298.435 239.823 298.245 239.617C298.055 239.409 297.793 239.305 297.46 239.305C297.236 239.305 297.038 239.353 296.866 239.449C296.697 239.546 296.564 239.686 296.468 239.871C296.374 240.053 296.326 240.273 296.323 240.531ZM304.693 238V239.25H301.08V238H304.693ZM301.9 236.562H303.564V242.156C303.564 242.31 303.588 242.43 303.635 242.516C303.682 242.599 303.747 242.658 303.83 242.691C303.916 242.725 304.015 242.742 304.127 242.742C304.205 242.742 304.283 242.736 304.361 242.723C304.439 242.707 304.499 242.695 304.541 242.687L304.803 243.926C304.719 243.952 304.602 243.982 304.451 244.016C304.3 244.052 304.117 244.074 303.9 244.082C303.499 244.098 303.148 244.044 302.846 243.922C302.546 243.799 302.313 243.609 302.146 243.352C301.98 243.094 301.898 242.768 301.9 242.375V236.562ZM315.413 238.801H313.702C313.671 238.579 313.607 238.383 313.511 238.211C313.414 238.036 313.291 237.888 313.14 237.766C312.989 237.643 312.814 237.549 312.616 237.484C312.421 237.419 312.209 237.387 311.979 237.387C311.565 237.387 311.205 237.49 310.897 237.695C310.59 237.898 310.352 238.195 310.183 238.586C310.013 238.974 309.929 239.445 309.929 240C309.929 240.57 310.013 241.049 310.183 241.437C310.354 241.826 310.594 242.118 310.901 242.316C311.209 242.514 311.564 242.613 311.968 242.613C312.194 242.613 312.404 242.583 312.597 242.523C312.792 242.464 312.965 242.376 313.116 242.262C313.267 242.145 313.392 242.003 313.491 241.836C313.593 241.669 313.663 241.479 313.702 241.266L315.413 241.273C315.369 241.641 315.258 241.995 315.081 242.336C314.907 242.674 314.671 242.978 314.374 243.246C314.08 243.512 313.728 243.723 313.319 243.879C312.913 244.033 312.453 244.109 311.94 244.109C311.227 244.109 310.589 243.948 310.026 243.625C309.466 243.302 309.024 242.835 308.698 242.223C308.375 241.611 308.214 240.87 308.214 240C308.214 239.128 308.378 238.385 308.706 237.773C309.034 237.161 309.479 236.695 310.042 236.375C310.604 236.052 311.237 235.891 311.94 235.891C312.404 235.891 312.834 235.956 313.229 236.086C313.628 236.216 313.981 236.406 314.288 236.656C314.595 236.904 314.845 237.207 315.038 237.566C315.233 237.926 315.358 238.337 315.413 238.801ZM319.306 244.117C318.699 244.117 318.174 243.988 317.731 243.73C317.291 243.47 316.951 243.108 316.712 242.645C316.472 242.178 316.353 241.638 316.353 241.023C316.353 240.404 316.472 239.862 316.712 239.398C316.951 238.932 317.291 238.57 317.731 238.312C318.174 238.052 318.699 237.922 319.306 237.922C319.912 237.922 320.436 238.052 320.876 238.312C321.319 238.57 321.66 238.932 321.899 239.398C322.139 239.862 322.259 240.404 322.259 241.023C322.259 241.638 322.139 242.178 321.899 242.645C321.66 243.108 321.319 243.47 320.876 243.73C320.436 243.988 319.912 244.117 319.306 244.117ZM319.313 242.828C319.59 242.828 319.82 242.75 320.005 242.594C320.19 242.435 320.329 242.219 320.423 241.945C320.519 241.672 320.567 241.361 320.567 241.012C320.567 240.663 320.519 240.352 320.423 240.078C320.329 239.805 320.19 239.589 320.005 239.43C319.82 239.271 319.59 239.191 319.313 239.191C319.035 239.191 318.8 239.271 318.61 239.43C318.423 239.589 318.281 239.805 318.185 240.078C318.091 240.352 318.044 240.663 318.044 241.012C318.044 241.361 318.091 241.672 318.185 241.945C318.281 242.219 318.423 242.435 318.61 242.594C318.8 242.75 319.035 242.828 319.313 242.828ZM328.333 239.711L326.81 239.805C326.784 239.674 326.728 239.557 326.642 239.453C326.556 239.346 326.442 239.262 326.302 239.199C326.164 239.134 325.998 239.102 325.806 239.102C325.548 239.102 325.33 239.156 325.153 239.266C324.976 239.372 324.888 239.516 324.888 239.695C324.888 239.839 324.945 239.96 325.06 240.059C325.174 240.158 325.371 240.237 325.649 240.297L326.735 240.516C327.319 240.635 327.754 240.828 328.04 241.094C328.326 241.359 328.47 241.708 328.47 242.141C328.47 242.534 328.354 242.879 328.122 243.176C327.893 243.473 327.578 243.704 327.177 243.871C326.778 244.035 326.319 244.117 325.798 244.117C325.004 244.117 324.371 243.952 323.899 243.621C323.431 243.288 323.156 242.835 323.075 242.262L324.712 242.176C324.761 242.418 324.881 242.603 325.071 242.73C325.261 242.855 325.505 242.918 325.802 242.918C326.093 242.918 326.328 242.862 326.505 242.75C326.685 242.635 326.776 242.488 326.778 242.309C326.776 242.158 326.712 242.034 326.587 241.938C326.462 241.839 326.269 241.763 326.009 241.711L324.97 241.504C324.384 241.387 323.948 241.184 323.661 240.895C323.377 240.605 323.235 240.237 323.235 239.789C323.235 239.404 323.34 239.072 323.548 238.793C323.759 238.514 324.054 238.299 324.435 238.148C324.817 237.997 325.265 237.922 325.778 237.922C326.536 237.922 327.132 238.082 327.567 238.402C328.005 238.723 328.26 239.159 328.333 239.711ZM332.709 238V239.25H329.096V238H332.709ZM329.916 236.562H331.58V242.156C331.58 242.31 331.604 242.43 331.65 242.516C331.697 242.599 331.762 242.658 331.846 242.691C331.932 242.725 332.031 242.742 332.143 242.742C332.221 242.742 332.299 242.736 332.377 242.723C332.455 242.707 332.515 242.695 332.557 242.687L332.818 243.926C332.735 243.952 332.618 243.982 332.467 244.016C332.316 244.052 332.132 244.074 331.916 244.082C331.515 244.098 331.163 244.044 330.861 243.922C330.562 243.799 330.329 243.609 330.162 243.352C329.995 243.094 329.913 242.768 329.916 242.375V236.562Z" fill="#073D63"/>
<path d="M285.5 321C303.449 321 318 306.449 318 288.5C318 270.551 303.449 256 285.5 256C267.551 256 253 270.551 253 288.5C253 306.449 267.551 321 285.5 321Z" fill="#B8DCF5"/>
<path d="M68.5 321C86.4493 321 101 306.449 101 288.5C101 270.551 86.4493 256 68.5 256C50.5507 256 36 270.551 36 288.5C36 306.449 50.5507 321 68.5 321Z" fill="#B8DCF5"/>
<path d="M280.649 288.231C280.443 287.917 280.134 287.707 279.764 287.627L279.431 287.589C279.195 287.589 278.969 287.648 278.744 287.772C278.397 287.973 278.161 288.317 278.088 288.717C277.871 289.716 277.473 290.441 276.912 290.868C276.415 291.241 275.728 291.429 274.876 291.429C273.753 291.429 272.889 291.053 272.233 290.285C271.495 289.415 271.119 288.121 271.119 286.434C271.119 284.791 271.497 283.502 272.231 282.618C272.913 281.823 273.778 281.437 274.876 281.437C275.725 281.437 276.423 281.625 276.952 281.998C277.519 282.39 277.871 282.98 278.027 283.773C278.118 284.329 278.416 284.633 278.631 284.772C278.851 284.928 279.106 285.012 279.37 285.012L279.678 284.974C280.039 284.89 280.331 284.694 280.536 284.394C280.745 284.079 280.825 283.723 280.767 283.328C280.519 282.014 279.937 280.945 279.024 280.148C277.979 279.253 276.586 278.799 274.878 278.799C272.942 278.799 271.354 279.522 270.164 280.945C268.977 282.347 268.376 284.192 268.376 286.434C268.376 288.725 268.977 290.583 270.162 291.954C271.349 293.358 272.935 294.07 274.878 294.07C276.583 294.07 277.98 293.579 279.024 292.617C279.899 291.825 280.506 290.743 280.832 289.394C280.956 288.849 280.797 288.457 280.649 288.231Z" fill="#11598C"/>
<path d="M294.026 281.211C292.808 279.611 291.075 278.799 288.879 278.799C286.671 278.799 284.933 279.611 283.709 281.219C282.683 282.594 282.164 284.351 282.164 286.434C282.164 288.518 282.682 290.27 283.711 291.636C284.933 293.251 286.671 294.069 288.879 294.069C291.075 294.069 292.807 293.25 294.024 291.642C295.076 290.275 295.611 288.524 295.611 286.434C295.611 284.344 295.079 282.586 294.026 281.211ZM291.889 290.033C291.201 290.984 290.216 291.446 288.879 291.446C287.533 291.446 286.548 290.984 285.871 290.038C285.235 289.147 284.91 287.936 284.91 286.434C284.91 284.923 285.232 283.711 285.871 282.827C286.548 281.882 287.533 281.42 288.879 281.42C290.216 281.42 291.201 281.882 291.892 282.832C292.539 283.722 292.866 284.933 292.866 286.434C292.866 287.923 292.536 289.134 291.889 290.033Z" fill="#11598C"/>
<path d="M303.868 296.342C303.604 296.079 303.249 295.935 302.865 295.935H299.514C299.731 295.68 300.167 295.29 301.061 294.731L301.281 294.575C302.235 293.968 302.839 293.504 303.174 293.114C303.765 292.443 304.063 291.578 304.063 290.546C304.063 289.569 303.73 288.726 303.075 288.044C301.619 286.54 298.813 286.551 297.395 288.052C296.751 288.729 296.423 289.569 296.423 290.547V290.883C296.423 291.393 296.633 291.732 296.842 291.963C297.384 292.5 298.367 292.465 298.834 291.997C299.135 291.723 299.302 291.342 299.302 290.923V290.547C299.302 290.223 299.412 290.067 299.516 289.956C299.626 289.838 299.809 289.701 300.236 289.701C300.671 289.701 300.865 289.843 300.98 289.964C301.077 290.066 301.188 290.222 301.188 290.547C301.188 290.926 301.086 291.216 300.876 291.452C300.744 291.597 300.371 291.932 299.356 292.561C298.325 293.182 297.546 293.882 297.036 294.647C296.459 295.52 296.169 296.546 296.179 297.698L296.187 298.721H302.866C303.268 298.721 303.64 298.557 303.868 298.302C304.128 298.039 304.27 297.695 304.27 297.328C304.27 296.952 304.128 296.603 303.868 296.342Z" fill="#11598C"/>
<path d="M303.829 279.468C301.194 270.837 293.199 264.875 284.125 264.875C275.44 264.875 267.717 270.311 264.754 278.451C260.516 281.273 258 285.927 258 291C258 299.339 264.786 306.125 273.125 306.125C274.806 306.125 276.498 305.827 278.155 305.233C282.903 306.68 287.991 306.35 292.501 304.331C294.574 305.507 296.892 306.125 299.25 306.125C306.832 306.125 313 299.957 313 292.375C313 286.505 309.345 281.407 303.829 279.468ZM299.25 303.375C297.166 303.375 295.117 302.768 293.326 301.616L292.673 301.197L291.974 301.538C287.785 303.6 282.988 303.936 278.547 302.475L278.077 302.319L277.618 302.499C276.133 303.079 274.62 303.374 273.125 303.374C266.301 303.375 260.75 297.824 260.75 291C260.75 286.722 262.945 282.804 266.62 280.518L267.039 280.258L267.198 279.79C269.655 272.513 276.458 267.625 284.125 267.625C292.208 267.625 299.304 273.085 301.379 280.902L301.578 281.651L302.323 281.868C307.065 283.258 310.25 287.479 310.25 292.375C310.25 298.442 305.317 303.375 299.25 303.375Z" fill="#11598C"/>
<path fill-rule="evenodd" clip-rule="evenodd" d="M67.5 311C79.9263 311 90 300.926 90 288.5C90 276.074 79.9263 266 67.5 266C55.0736 266 45 276.074 45 288.5C45 300.926 55.0736 311 67.5 311ZM55.6875 288.5C55.6875 287.927 55.7283 287.364 55.8071 286.812H63C63.932 286.812 64.6875 286.057 64.6875 285.125C64.6875 284.193 63.932 283.438 63 283.438H56.8242C58.7201 279.447 62.7878 276.688 67.5 276.688C69.6544 276.688 71.6693 277.263 73.4051 278.267C74.2118 278.733 75.2441 278.458 75.7107 277.651C76.1774 276.844 75.9017 275.812 75.0949 275.345C72.8593 274.052 70.2634 273.312 67.5 273.312C60.8873 273.312 55.2616 277.539 53.1767 283.438H51.75C50.818 283.438 50.0625 284.193 50.0625 285.125C50.0625 286.057 50.818 286.812 51.75 286.812H52.4052C52.3439 287.367 52.3125 287.93 52.3125 288.5C52.3125 289.07 52.3439 289.633 52.4052 290.188H51.75C50.818 290.188 50.0625 290.943 50.0625 291.875C50.0625 292.807 50.818 293.562 51.75 293.562H53.1767C55.2616 299.461 60.8873 303.688 67.5 303.688C70.2634 303.688 72.8593 302.948 75.0949 301.655C75.9017 301.188 76.1774 300.156 75.7107 299.349C75.2441 298.542 74.2118 298.267 73.4051 298.733C71.6693 299.737 69.6544 300.312 67.5 300.312C62.7878 300.312 58.7201 297.553 56.8242 293.562H63C63.932 293.562 64.6875 292.807 64.6875 291.875C64.6875 290.943 63.932 290.188 63 290.188H55.8071C55.7283 289.636 55.6875 289.073 55.6875 288.5Z" fill="#11598C"/>
</g>
<defs>
<filter id="filter0_d_665_179" x="1" y="23" width="455" height="198" filterUnits="userSpaceOnUse" color-interpolation-filters="sRGB">
<feFlood flood-opacity="0" result="BackgroundImageFix"/>
<feColorMatrix in="SourceAlpha" type="matrix" values="0 0 0 0 0 0 0 0 0 0 0 0 0 0 0 0 0 0 127 0" result="hardAlpha"/>
<feOffset dy="4"/>
<feGaussianBlur stdDeviation="2"/>
<feComposite in2="hardAlpha" operator="out"/>
<feColorMatrix type="matrix" values="0 0 0 0 0.847059 0 0 0 0 0.870588 0 0 0 0 0.913725 0 0 0 0.2 0"/>
<feBlend mode="normal" in2="BackgroundImageFix" result="effect1_dropShadow_665_179"/>
<feBlend mode="normal" in="SourceGraphic" in2="effect1_dropShadow_665_179" result="shape"/>
</filter>
<clipPath id="clip0_665_179">
<rect width="457" height="367" fill="white"/>
</clipPath>
</defs>
</svg>
