<svg width="500" height="234" viewBox="0 0 500 234" fill="none" xmlns="http://www.w3.org/2000/svg">
<path d="M0 18C0 8.05887 8.05887 0 18 0H482C491.941 0 500 8.05888 500 18V216C500 225.941 491.941 234 482 234H18C8.05888 234 0 225.941 0 216V18Z" fill="#FBFCFD"/>
<path d="M199.521 27.9091V41H197.131L191.435 32.7607H191.339V41H188.572V27.9091H191.001L196.651 36.142H196.766V27.9091H199.521ZM206.231 41.1918C205.221 41.1918 204.352 40.9872 203.623 40.5781C202.899 40.1648 202.341 39.581 201.949 38.8267C201.556 38.0682 201.36 37.1712 201.36 36.1357C201.36 35.1257 201.556 34.2393 201.949 33.4766C202.341 32.7138 202.892 32.1193 203.604 31.6932C204.32 31.267 205.159 31.054 206.123 31.054C206.77 31.054 207.373 31.1584 207.931 31.3672C208.494 31.5717 208.984 31.8807 209.402 32.294C209.824 32.7074 210.152 33.2273 210.386 33.8537C210.62 34.4759 210.738 35.2045 210.738 36.0398V36.7876H202.447V35.1001H208.174C208.174 34.7081 208.089 34.3608 207.919 34.0582C207.748 33.7557 207.512 33.5192 207.209 33.3487C206.911 33.174 206.564 33.0866 206.167 33.0866C205.754 33.0866 205.387 33.1825 205.068 33.3743C204.753 33.5618 204.505 33.8153 204.326 34.1349C204.147 34.4503 204.056 34.8018 204.052 35.1896V36.794C204.052 37.2798 204.141 37.6996 204.32 38.0533C204.503 38.407 204.761 38.6797 205.093 38.8714C205.426 39.0632 205.82 39.1591 206.276 39.1591C206.579 39.1591 206.855 39.1165 207.107 39.0312C207.358 38.946 207.574 38.8182 207.753 38.6477C207.931 38.4773 208.068 38.2685 208.162 38.0213L210.68 38.1875C210.552 38.7926 210.29 39.321 209.894 39.7727C209.502 40.2202 208.995 40.5696 208.373 40.821C207.755 41.0682 207.041 41.1918 206.231 41.1918ZM217.737 31.1818V33.2273H211.824V31.1818H217.737ZM213.167 28.8295H215.89V37.983C215.89 38.2344 215.928 38.4304 216.005 38.571C216.081 38.7074 216.188 38.8033 216.324 38.8587C216.465 38.9141 216.627 38.9418 216.81 38.9418C216.938 38.9418 217.066 38.9311 217.194 38.9098C217.321 38.8842 217.419 38.8651 217.488 38.8523L217.916 40.8786C217.78 40.9212 217.588 40.9702 217.341 41.0256C217.093 41.0852 216.793 41.1214 216.439 41.1342C215.783 41.1598 215.208 41.0724 214.713 40.8722C214.223 40.6719 213.842 40.3608 213.569 39.9389C213.297 39.517 213.162 38.9844 213.167 38.3409V28.8295ZM223.728 41V27.9091H232.549V30.1911H226.496V33.3104H232.095V35.5923H226.496V38.718H232.574V41H223.728ZM234.698 41V31.1818H237.293V32.9141H237.408C237.613 32.3388 237.954 31.8849 238.431 31.5526C238.908 31.2202 239.479 31.054 240.144 31.054C240.818 31.054 241.391 31.2223 241.864 31.5589C242.337 31.8913 242.652 32.343 242.81 32.9141H242.912C243.112 32.3516 243.474 31.902 243.999 31.5653C244.527 31.2244 245.151 31.054 245.871 31.054C246.788 31.054 247.531 31.3459 248.102 31.9297C248.678 32.5092 248.965 33.3317 248.965 34.397V41H246.249V34.9339C246.249 34.3885 246.104 33.9794 245.814 33.7067C245.524 33.4339 245.162 33.2976 244.727 33.2976C244.233 33.2976 243.847 33.4553 243.57 33.7706C243.293 34.0817 243.155 34.4929 243.155 35.0043V41H240.515V34.8764C240.515 34.3949 240.376 34.0114 240.099 33.7259C239.827 33.4403 239.467 33.2976 239.019 33.2976C238.717 33.2976 238.444 33.3743 238.201 33.5277C237.962 33.6768 237.773 33.8878 237.632 34.1605C237.492 34.429 237.421 34.7443 237.421 35.1065V41H234.698ZM251.116 41V31.1818H253.839V41H251.116ZM252.484 29.9162C252.079 29.9162 251.732 29.782 251.442 29.5135C251.157 29.2408 251.014 28.9148 251.014 28.5355C251.014 28.1605 251.157 27.8388 251.442 27.5703C251.732 27.2976 252.079 27.1612 252.484 27.1612C252.889 27.1612 253.234 27.2976 253.52 27.5703C253.809 27.8388 253.954 28.1605 253.954 28.5355C253.954 28.9148 253.809 29.2408 253.52 29.5135C253.234 29.782 252.889 29.9162 252.484 29.9162ZM264.189 33.9815L261.697 34.1349C261.654 33.9219 261.562 33.7301 261.422 33.5597C261.281 33.3849 261.096 33.2464 260.866 33.1442C260.64 33.0376 260.369 32.9844 260.054 32.9844C259.632 32.9844 259.276 33.0739 258.986 33.2528C258.697 33.4276 258.552 33.6619 258.552 33.956C258.552 34.1903 258.645 34.3885 258.833 34.5504C259.02 34.7124 259.342 34.8423 259.798 34.9403L261.575 35.2983C262.53 35.4943 263.241 35.8097 263.71 36.2443C264.179 36.679 264.413 37.25 264.413 37.9574C264.413 38.6009 264.224 39.1655 263.844 39.6513C263.469 40.1371 262.954 40.5163 262.297 40.7891C261.645 41.0575 260.893 41.1918 260.041 41.1918C258.741 41.1918 257.706 40.9212 256.935 40.38C256.167 39.8345 255.718 39.093 255.586 38.1555L258.264 38.0149C258.345 38.4112 258.541 38.7138 258.852 38.9226C259.163 39.1271 259.562 39.2294 260.047 39.2294C260.525 39.2294 260.908 39.1378 261.198 38.9545C261.492 38.767 261.641 38.5263 261.645 38.2322C261.641 37.9851 261.537 37.7827 261.332 37.625C261.128 37.4631 260.812 37.3395 260.386 37.2543L258.686 36.9155C257.727 36.7237 257.013 36.3913 256.545 35.9183C256.08 35.4453 255.848 34.8423 255.848 34.1094C255.848 33.4787 256.018 32.9354 256.359 32.4794C256.704 32.0234 257.188 31.6719 257.81 31.4247C258.437 31.1776 259.17 31.054 260.009 31.054C261.249 31.054 262.225 31.3161 262.937 31.8402C263.653 32.3643 264.07 33.0781 264.189 33.9815ZM274.297 33.9815L271.804 34.1349C271.761 33.9219 271.67 33.7301 271.529 33.5597C271.389 33.3849 271.203 33.2464 270.973 33.1442C270.747 33.0376 270.477 32.9844 270.161 32.9844C269.739 32.9844 269.384 33.0739 269.094 33.2528C268.804 33.4276 268.659 33.6619 268.659 33.956C268.659 34.1903 268.753 34.3885 268.94 34.5504C269.128 34.7124 269.45 34.8423 269.906 34.9403L271.683 35.2983C272.637 35.4943 273.349 35.8097 273.818 36.2443C274.286 36.679 274.521 37.25 274.521 37.9574C274.521 38.6009 274.331 39.1655 273.952 39.6513C273.577 40.1371 273.061 40.5163 272.405 40.7891C271.753 41.0575 271.001 41.1918 270.148 41.1918C268.849 41.1918 267.813 40.9212 267.042 40.38C266.275 39.8345 265.825 39.093 265.693 38.1555L268.371 38.0149C268.452 38.4112 268.648 38.7138 268.96 38.9226C269.271 39.1271 269.669 39.2294 270.155 39.2294C270.632 39.2294 271.016 39.1378 271.305 38.9545C271.599 38.767 271.749 38.5263 271.753 38.2322C271.749 37.9851 271.644 37.7827 271.44 37.625C271.235 37.4631 270.92 37.3395 270.494 37.2543L268.793 36.9155C267.835 36.7237 267.121 36.3913 266.652 35.9183C266.188 35.4453 265.955 34.8423 265.955 34.1094C265.955 33.4787 266.126 32.9354 266.467 32.4794C266.812 32.0234 267.295 31.6719 267.918 31.4247C268.544 31.1776 269.277 31.054 270.117 31.054C271.357 31.054 272.332 31.3161 273.044 31.8402C273.76 32.3643 274.178 33.0781 274.297 33.9815ZM276.235 41V31.1818H278.958V41H276.235ZM277.603 29.9162C277.198 29.9162 276.851 29.782 276.561 29.5135C276.276 29.2408 276.133 28.9148 276.133 28.5355C276.133 28.1605 276.276 27.8388 276.561 27.5703C276.851 27.2976 277.198 27.1612 277.603 27.1612C278.008 27.1612 278.353 27.2976 278.639 27.5703C278.928 27.8388 279.073 28.1605 279.073 28.5355C279.073 28.9148 278.928 29.2408 278.639 29.5135C278.353 29.782 278.008 29.9162 277.603 29.9162ZM285.576 41.1918C284.583 41.1918 283.724 40.9808 283 40.5589C282.28 40.1328 281.723 39.5405 281.331 38.782C280.939 38.0192 280.743 37.1349 280.743 36.1293C280.743 35.1151 280.939 34.2287 281.331 33.4702C281.723 32.7074 282.28 32.1151 283 31.6932C283.724 31.267 284.583 31.054 285.576 31.054C286.569 31.054 287.425 31.267 288.145 31.6932C288.87 32.1151 289.428 32.7074 289.82 33.4702C290.212 34.2287 290.408 35.1151 290.408 36.1293C290.408 37.1349 290.212 38.0192 289.82 38.782C289.428 39.5405 288.87 40.1328 288.145 40.5589C287.425 40.9808 286.569 41.1918 285.576 41.1918ZM285.588 39.0824C286.04 39.0824 286.417 38.9545 286.72 38.6989C287.022 38.4389 287.25 38.0852 287.404 37.6378C287.561 37.1903 287.64 36.6811 287.64 36.1101C287.64 35.5391 287.561 35.0298 287.404 34.5824C287.25 34.1349 287.022 33.7812 286.72 33.5213C286.417 33.2614 286.04 33.1314 285.588 33.1314C285.132 33.1314 284.749 33.2614 284.438 33.5213C284.131 33.7812 283.899 34.1349 283.741 34.5824C283.588 35.0298 283.511 35.5391 283.511 36.1101C283.511 36.6811 283.588 37.1903 283.741 37.6378C283.899 38.0852 284.131 38.4389 284.438 38.6989C284.749 38.9545 285.132 39.0824 285.588 39.0824ZM294.902 35.3239V41H292.179V31.1818H294.774V32.9141H294.889C295.106 32.343 295.471 31.8913 295.982 31.5589C296.493 31.2223 297.113 31.054 297.842 31.054C298.524 31.054 299.118 31.2031 299.625 31.5014C300.132 31.7997 300.527 32.2259 300.808 32.7798C301.089 33.3295 301.23 33.9858 301.23 34.7486V41H298.507V35.2344C298.511 34.6335 298.358 34.1648 298.047 33.8281C297.735 33.4872 297.307 33.3168 296.762 33.3168C296.395 33.3168 296.071 33.3956 295.79 33.5533C295.513 33.7109 295.296 33.9411 295.138 34.2436C294.985 34.5419 294.906 34.902 294.902 35.3239ZM310.361 27.9091V41H307.593V27.9091H310.361ZM312.587 41V31.1818H315.182V32.9141H315.297C315.502 32.3388 315.843 31.8849 316.32 31.5526C316.797 31.2202 317.368 31.054 318.033 31.054C318.706 31.054 319.279 31.2223 319.752 31.5589C320.225 31.8913 320.541 32.343 320.698 32.9141H320.801C321.001 32.3516 321.363 31.902 321.887 31.5653C322.416 31.2244 323.04 31.054 323.76 31.054C324.676 31.054 325.42 31.3459 325.991 31.9297C326.566 32.5092 326.854 33.3317 326.854 34.397V41H324.137V34.9339C324.137 34.3885 323.992 33.9794 323.703 33.7067C323.413 33.4339 323.051 33.2976 322.616 33.2976C322.122 33.2976 321.736 33.4553 321.459 33.7706C321.182 34.0817 321.044 34.4929 321.044 35.0043V41H318.404V34.8764C318.404 34.3949 318.265 34.0114 317.988 33.7259C317.715 33.4403 317.355 33.2976 316.908 33.2976C316.605 33.2976 316.333 33.3743 316.09 33.5277C315.851 33.6768 315.661 33.8878 315.521 34.1605C315.38 34.429 315.31 34.7443 315.31 35.1065V41H312.587ZM329.005 44.6818V31.1818H331.689V32.831H331.811C331.93 32.5668 332.103 32.2983 332.329 32.0256C332.559 31.7486 332.857 31.5185 333.224 31.3352C333.594 31.1477 334.055 31.054 334.604 31.054C335.32 31.054 335.981 31.2415 336.586 31.6165C337.191 31.9872 337.675 32.5476 338.037 33.2976C338.399 34.0433 338.58 34.9787 338.58 36.1037C338.58 37.1989 338.403 38.1236 338.05 38.8778C337.7 39.6278 337.223 40.1967 336.618 40.5845C336.017 40.968 335.344 41.1598 334.598 41.1598C334.069 41.1598 333.62 41.0724 333.249 40.8977C332.883 40.723 332.582 40.5036 332.348 40.2393C332.113 39.9709 331.935 39.7003 331.811 39.4276H331.728V44.6818H329.005ZM331.67 36.0909C331.67 36.6747 331.751 37.1839 331.913 37.6186C332.075 38.0533 332.31 38.392 332.616 38.6349C332.923 38.8736 333.296 38.9929 333.735 38.9929C334.178 38.9929 334.553 38.8714 334.86 38.6286C335.167 38.3814 335.399 38.0405 335.557 37.6058C335.719 37.1669 335.8 36.6619 335.8 36.0909C335.8 35.5241 335.721 35.0256 335.563 34.5952C335.405 34.1648 335.173 33.8281 334.866 33.5852C334.56 33.3423 334.182 33.2209 333.735 33.2209C333.292 33.2209 332.917 33.3381 332.61 33.5724C332.307 33.8068 332.075 34.1392 331.913 34.5696C331.751 35 331.67 35.5071 331.67 36.0909ZM343.195 41.1854C342.569 41.1854 342.011 41.0767 341.52 40.8594C341.03 40.6378 340.643 40.3118 340.357 39.8814C340.076 39.4467 339.935 38.9055 339.935 38.2578C339.935 37.7124 340.035 37.2543 340.236 36.8835C340.436 36.5128 340.709 36.2145 341.054 35.9886C341.399 35.7628 341.791 35.5923 342.23 35.4773C342.673 35.3622 343.138 35.2812 343.623 35.2344C344.194 35.1747 344.655 35.1193 345.004 35.0682C345.354 35.0128 345.607 34.9318 345.765 34.8253C345.922 34.7187 346.001 34.5611 346.001 34.3523V34.3139C346.001 33.9091 345.873 33.5959 345.618 33.3743C345.366 33.1527 345.008 33.0419 344.544 33.0419C344.054 33.0419 343.664 33.1506 343.374 33.3679C343.084 33.581 342.893 33.8494 342.799 34.1733L340.28 33.9688C340.408 33.3722 340.66 32.8565 341.035 32.4219C341.41 31.983 341.893 31.6463 342.486 31.4119C343.082 31.1733 343.773 31.054 344.557 31.054C345.102 31.054 345.624 31.1179 346.123 31.2457C346.626 31.3736 347.071 31.5717 347.459 31.8402C347.851 32.1087 348.16 32.4538 348.386 32.8757C348.611 33.2933 348.724 33.794 348.724 34.3778V41H346.142V39.6385H346.065C345.908 39.9453 345.697 40.2159 345.432 40.4503C345.168 40.6804 344.851 40.8615 344.48 40.9936C344.109 41.1214 343.681 41.1854 343.195 41.1854ZM343.975 39.3061C344.376 39.3061 344.729 39.2273 345.036 39.0696C345.343 38.9077 345.584 38.6903 345.758 38.4176C345.933 38.1449 346.02 37.8359 346.02 37.4908V36.4489C345.935 36.5043 345.818 36.5554 345.669 36.6023C345.524 36.6449 345.36 36.6854 345.177 36.7237C344.993 36.7578 344.81 36.7898 344.627 36.8196C344.444 36.8452 344.278 36.8686 344.128 36.8899C343.809 36.9368 343.53 37.0114 343.291 37.1136C343.052 37.2159 342.867 37.3544 342.735 37.5291C342.603 37.6996 342.537 37.9126 342.537 38.1683C342.537 38.5391 342.671 38.8224 342.939 39.0185C343.212 39.2102 343.557 39.3061 343.975 39.3061ZM355.273 41.1918C354.267 41.1918 353.402 40.9787 352.678 40.5526C351.958 40.1222 351.404 39.5256 351.016 38.7628C350.632 38 350.441 37.1222 350.441 36.1293C350.441 35.1236 350.634 34.2415 351.022 33.483C351.414 32.7202 351.97 32.1257 352.691 31.6996C353.411 31.2692 354.267 31.054 355.26 31.054C356.117 31.054 356.867 31.2095 357.51 31.5206C358.154 31.8317 358.663 32.2685 359.038 32.831C359.413 33.3935 359.62 34.054 359.658 34.8125H357.088C357.016 34.3224 356.824 33.9283 356.513 33.63C356.206 33.3274 355.803 33.1761 355.305 33.1761C354.883 33.1761 354.514 33.2912 354.199 33.5213C353.888 33.7472 353.645 34.0774 353.47 34.5121C353.296 34.9467 353.208 35.473 353.208 36.0909C353.208 36.7173 353.294 37.25 353.464 37.6889C353.639 38.1278 353.884 38.4624 354.199 38.6925C354.514 38.9226 354.883 39.0376 355.305 39.0376C355.616 39.0376 355.895 38.9737 356.142 38.8459C356.394 38.718 356.6 38.5327 356.762 38.2898C356.928 38.0426 357.037 37.7464 357.088 37.4013H359.658C359.615 38.1513 359.411 38.8118 359.044 39.3828C358.682 39.9496 358.181 40.3928 357.542 40.7124C356.903 41.032 356.147 41.1918 355.273 41.1918ZM366.624 31.1818V33.2273H360.711V31.1818H366.624ZM362.053 28.8295H364.776V37.983C364.776 38.2344 364.815 38.4304 364.891 38.571C364.968 38.7074 365.075 38.8033 365.211 38.8587C365.352 38.9141 365.514 38.9418 365.697 38.9418C365.825 38.9418 365.952 38.9311 366.08 38.9098C366.208 38.8842 366.306 38.8651 366.374 38.8523L366.803 40.8786C366.666 40.9212 366.474 40.9702 366.227 41.0256C365.98 41.0852 365.68 41.1214 365.326 41.1342C364.67 41.1598 364.094 41.0724 363.6 40.8722C363.11 40.6719 362.729 40.3608 362.456 39.9389C362.183 39.517 362.049 38.9844 362.053 38.3409V28.8295Z" fill="#0F2A34"/>
<line x1="12.165" y1="161.75" x2="487.834" y2="161.75" stroke="#3F4A4F" stroke-width="0.5"/>
<g clip-path="url(#clip0_630_217)">
<path d="M178.585 35.6873L173.181 24.9029L174.997 24.5748C175.52 24.4785 175.911 24.0257 175.911 23.481C175.911 22.8663 175.415 22.3698 174.8 22.3698C174.73 22.3698 174.662 22.3763 174.597 22.3895L172.897 22.6957C170.725 21.0441 167.975 20.0488 164.994 20.0488C164.534 20.0488 164.079 20.0729 163.631 20.1188C163.552 19.0251 162.631 18.1895 161.516 18.1895C161.509 18.1895 161.505 18.1895 161.498 18.1895C160.291 18.1895 159.311 19.1695 159.311 20.377V20.8145C155.561 21.5495 152.418 23.7173 150.416 26.7141L148.767 27.0488C148.205 27.1013 147.767 27.5716 147.767 28.1426C147.767 28.7485 148.259 29.2407 148.865 29.2407C148.9 29.2407 148.935 29.2385 148.968 29.2363H149.161L149.926 29.127L144.414 40.0645H143.998C143.998 42.4707 146.929 44.4395 150.561 44.4395C154.192 44.4395 157.123 42.4707 157.123 40.0645H156.707L151.107 28.8645H151.326C151.702 28.7966 152.006 28.5495 152.155 28.2148C152.201 28.0113 153.689 24.752 159.311 23.0457V46.627H157.123V48.8145H152.748V51.002H170.248V48.8145H165.873V46.627H163.686V22.302C164.125 22.2341 164.635 22.1948 165.151 22.1948C167.671 22.1948 169.975 23.1113 171.749 24.6316L171.736 24.6207L166.289 35.6895H165.873C165.873 38.0957 168.804 40.0645 172.436 40.0645C176.067 40.0645 178.998 38.0957 178.998 35.6895H178.582L178.585 35.6873ZM154.938 40.0623H146.188L150.563 31.4435L154.938 40.0623ZM168.063 35.6873L172.438 27.0685L176.813 35.6873H168.063Z" fill="#0F2A34"/>
</g>
<defs>
<clipPath id="clip0_630_217">
<rect width="35" height="35" fill="white" transform="translate(144 16)"/>
</clipPath>
</defs>
</svg>
