<svg width="34" height="34" viewBox="0 0 34 34" fill="none" xmlns="http://www.w3.org/2000/svg">
<path d="M31.3948 22.3887C31.3948 24.7773 30.4459 27.068 28.7569 28.757C27.068 30.4459 24.7772 31.3948 22.3887 31.3948C20.0001 31.3948 17.7094 30.4459 16.0204 28.757C14.3314 27.068 13.3826 24.7773 13.3826 22.3887V22.3322C13.3958 20.1484 14.2025 18.0439 15.6524 16.4109C17.1024 14.7778 19.0966 13.7277 21.2635 13.4561C21.6364 13.4059 22.0124 13.3814 22.3887 13.3826C23.5714 13.3824 24.7427 13.6151 25.8354 14.0677C26.9282 14.5202 27.9211 15.1835 28.7575 16.0199C29.5938 16.8562 30.2572 17.8491 30.7097 18.9419C31.1622 20.0347 31.395 21.2059 31.3948 22.3887Z" stroke="#0A468C" stroke-width="2" stroke-linecap="round" stroke-linejoin="round"/>
<path d="M11.1313 5.50257C16.7266 5.50257 21.2625 4.49464 21.2625 3.25129C21.2625 2.00794 16.7266 1 11.1313 1C5.53592 1 1 2.00794 1 3.25129C1 4.49464 5.53592 5.50257 11.1313 5.50257Z" stroke="#0A468C" stroke-width="2" stroke-linecap="round" stroke-linejoin="round"/>
<path d="M21.2635 3.25134V8.88003C21.2635 10.1238 16.7261 11.1313 11.1313 11.1313C5.53647 11.1313 1 10.1238 1 8.88003V3.25134C1 4.49515 5.53647 5.50263 11.1313 5.50263C16.7261 5.50263 21.2635 4.49515 21.2635 3.25134Z" stroke="#0A468C" stroke-width="2" stroke-linecap="round" stroke-linejoin="round"/>
<path d="M21.2635 8.88V13.456C19.0394 13.7323 16.9992 14.831 15.5444 16.5359C14.0785 16.6905 12.6053 16.7656 11.1313 16.7609C5.53647 16.76 1 15.7525 1 14.5087V8.88C1 10.1238 5.53647 11.1313 11.1313 11.1313C16.7261 11.1313 21.2635 10.1238 21.2635 8.88Z" stroke="#0A468C" stroke-width="2" stroke-linecap="round" stroke-linejoin="round"/>
<path d="M15.5444 16.5359C14.1558 18.1491 13.3879 20.2046 13.3788 22.3331C12.6528 22.3726 11.8986 22.3896 11.1275 22.3896C5.53647 22.3886 1 21.3812 1 20.1374V14.5087C1 15.7525 5.53647 16.76 11.1313 16.76C12.6053 16.765 14.0785 16.6902 15.5444 16.5359Z" stroke="#0A468C" stroke-width="2" stroke-linecap="round" stroke-linejoin="round"/>
<path d="M15.2007 27.8262C13.9569 27.9495 12.5785 28.0145 11.1313 28.0145C7.38853 28.0145 4.11847 27.5644 2.3681 26.8846C1.50091 26.5598 1 26.1765 1 25.7632V20.1373C1 21.3811 5.53647 22.3886 11.1313 22.3886C11.9024 22.3886 12.6566 22.3717 13.3826 22.3321V22.3886C13.3817 24.3505 14.0199 26.2594 15.2007 27.8262Z" stroke="#0A468C" stroke-width="2" stroke-linecap="round" stroke-linejoin="round"/>
<path d="M22.2811 32.0488C16.8854 32.0488 12.5114 27.6748 12.5114 22.2791C12.5114 16.8835 16.8854 12.5094 22.2811 12.5094C27.6767 12.5094 32.0508 16.8835 32.0508 22.2791C32.0508 27.6748 27.6767 32.0488 22.2811 32.0488ZM22.2811 30.0949C26.5977 30.0949 30.0969 26.5957 30.0969 22.2791C30.0969 17.9626 26.5977 14.4633 22.2811 14.4633C17.9645 14.4633 14.4653 17.9626 14.4653 22.2791C14.4653 26.5957 17.9645 30.0949 22.2811 30.0949ZM20.376 21.3021H25.212V23.2561H20.376C20.6023 24.3709 21.5879 25.21 22.7696 25.21C23.3706 25.21 23.9209 24.9929 24.3463 24.6329L26.0082 25.7408C25.2046 26.6157 24.0511 27.164 22.7696 27.164C20.5066 27.164 18.643 25.4543 18.4 23.2561H17.3962V21.3021H18.4C18.643 19.104 20.5066 17.3943 22.7696 17.3943C24.0511 17.3943 25.2046 17.9426 26.0082 18.8175L24.3464 19.9254C23.921 19.5653 23.3706 19.3482 22.7696 19.3482C21.5879 19.3482 20.6023 20.1873 20.376 21.3021Z" fill="#0A468C"/>
</svg>
